<?xml version="1.0" encoding="utf-8"?>
<!-- Generator: Adobe Illustrator 25.4.1, SVG Export Plug-In . SVG Version: 6.00 Build 0)  -->
<svg version="1.1" id="Capa_1" xmlns="http://www.w3.org/2000/svg" xmlns:xlink="http://www.w3.org/1999/xlink" x="0px" y="0px"
	 viewBox="0 0 30 30" style="enable-background:new 0 0 30 30;" xml:space="preserve">
<style type="text/css">
	.st0{fill:#FFFFFF;}
</style>
<path class="st0" d="M0.1,10.3c0,0.4,0.1,0.7,0.4,1c0.1,0.1,0.2,0.2,0.3,0.2l11.7,6l6,11.7c0.2,0.4,0.7,0.7,1.2,0.7s0.9-0.4,1.1-0.8
	l9.1-27.4l0,0l0,0c0,0,0,0,0-0.1l0,0V1.5l0,0V1.4l0,0V1.3l0,0V1.2l0,0V1.1l0,0V1l0,0V0.9l0,0c0,0,0-0.1-0.1-0.1l0,0c0,0,0,0-0.1-0.1
	l0,0c0,0,0-0.1-0.1-0.1l-0.1-0.1l0,0c0,0,0,0-0.1-0.1l0,0c0,0-0.1,0-0.1-0.1l0,0c0,0,0,0-0.1,0l0,0h-0.1l0,0c0,0,0,0-0.1,0l0,0h-0.1
	l0,0h-0.1l0,0h-0.1l0,0h-0.1l0,0c0,0,0,0-0.1,0l0,0l0,0l-27.6,9C0.4,9.4,0.1,9.8,0.1,10.3 M19.3,25.5l-4.5-8.7l11-11L19.3,25.5z
	 M4.5,10.7l19.7-6.6l-11,11L4.5,10.7z"/>
</svg>
