<?xml version="1.0" encoding="utf-8"?>
<!-- Generator: Adobe Illustrator 25.4.1, SVG Export Plug-In . SVG Version: 6.00 Build 0)  -->
<svg version="1.1" id="Capa_1" xmlns="http://www.w3.org/2000/svg" xmlns:xlink="http://www.w3.org/1999/xlink" x="0px" y="0px"
	 viewBox="0 0 30 30" style="enable-background:new 0 0 30 30;" xml:space="preserve">
<style type="text/css">
	.st0{fill:#FFFFFF;}
</style>
<g>
	<path class="st0" d="M26.9,25.7c5.2-6,3.4-15.3-3.7-18.9c-2-3.9-6.2-6.6-10.9-6.6C5.6,0.1,0.1,5.6,0.1,12.4c0,3,1.1,5.8,3,8
		l-2.7,2.7c-0.6,0.5-0.2,1.5,0.6,1.5l6.6,0c2.3,3.3,6,5.3,10.1,5.3c0,0,11.4-0.1,11.4-0.1c0.8,0,1.2-0.9,0.6-1.5L26.9,25.7z
		 M4.9,19.8c-2-2-3.1-4.6-3.1-7.4c0-5.8,4.7-10.5,10.5-10.5c5.8,0,10.5,4.7,10.5,10.5c0,5.6-4.4,10.6-10.8,10.5l-8.9,0L4.9,21
		C5.3,20.7,5.3,20.1,4.9,19.8 M17.6,28.2c-3.1,0-5.9-1.3-7.9-3.6c3.3,0,2.4,0,2.6,0c7.9,0,13.8-7.4,11.9-15.1
		c4.8,3.9,5.2,11.2,0.8,15.6c-0.3,0.3-0.3,0.9,0,1.2l1.8,1.8C26.9,28.1,17.7,28.2,17.6,28.2"/>
	<path class="st0" d="M7.1,9.8h10.5c0.5,0,0.9-0.4,0.9-0.9c0-0.5-0.4-0.9-0.9-0.9H7.1C6.7,8,6.3,8.4,6.3,8.9
		C6.3,9.4,6.7,9.8,7.1,9.8"/>
	<path class="st0" d="M7.1,13.3h10.5c0.5,0,0.9-0.4,0.9-0.9c0-0.5-0.4-0.9-0.9-0.9H7.1c-0.5,0-0.9,0.4-0.9,0.9
		C6.3,12.9,6.7,13.3,7.1,13.3"/>
	<path class="st0" d="M7.1,16.7h10.5c0.5,0,0.9-0.4,0.9-0.9c0-0.5-0.4-0.9-0.9-0.9H7.1c-0.5,0-0.9,0.4-0.9,0.9
		C6.3,16.3,6.7,16.7,7.1,16.7"/>
</g>
</svg>
