<?xml version="1.0" encoding="utf-8"?>
<!-- Generator: Adobe Illustrator 25.4.1, SVG Export Plug-In . SVG Version: 6.00 Build 0)  -->
<svg version="1.1" id="Capa_1" xmlns="http://www.w3.org/2000/svg" xmlns:xlink="http://www.w3.org/1999/xlink" x="0px" y="0px"
	 viewBox="0 0 30 30" style="enable-background:new 0 0 30 30;" xml:space="preserve">
<style type="text/css">
	.st0{fill:#FFFFFF;}
</style>
<g>
	<path class="st0" d="M2.9,23.9h0.2l7.8-1.7c0.2,0,0.3-0.1,0.4-0.2L24.4,8.9c1-1,1.5-2.3,1.5-3.6c0-1.4-0.5-2.7-1.5-3.7
		c-1-1-2.3-1.5-3.6-1.5c-1.4,0-2.7,0.5-3.6,1.5L4,14.8c-0.1,0.1-0.2,0.2-0.2,0.4l-1.7,7.8c0,0.3,0,0.6,0.2,0.8
		C2.5,23.8,2.7,23.9,2.9,23.9 M20.8,1.7c1.9,0,3.5,1.6,3.5,3.5v0c0,0.9-0.4,1.8-1,2.5l-5-5C19,2.1,19.9,1.7,20.8,1.7 M17.2,3.9l5,5
		L10.7,20.3l-5-4.9L17.2,3.9z M5.1,17l4,4L4,22.1L5.1,17z"/>
	<path class="st0" d="M28.5,28.3h-27c-0.4,0-0.8,0.4-0.8,0.8c0,0.4,0.4,0.8,0.8,0.8h27c0.4,0,0.8-0.4,0.8-0.8
		C29.3,28.6,28.9,28.3,28.5,28.3"/>
</g>
</svg>
