<?xml version="1.0" encoding="utf-8"?>
<!-- Generator: Adobe Illustrator 24.0.1, SVG Export Plug-In . SVG Version: 6.00 Build 0)  -->
<svg version="1.1" id="Capa_1" xmlns="http://www.w3.org/2000/svg" xmlns:xlink="http://www.w3.org/1999/xlink" x="0px" y="0px"
	 viewBox="0 0 40 40" style="enable-background:new 0 0 40 40;" xml:space="preserve">
<style type="text/css">
	.st0{fill:#3BD4AE;}
</style>
<g>
	<g>
		<path class="st0" d="M20,0.2C9.1,0.2,0.2,9.1,0.2,20S9.1,39.8,20,39.8S39.8,30.9,39.8,20S30.9,0.2,20,0.2z M29,26.3
			c0.7,0.7,0.7,2,0,2.7c-0.7,0.7-2,0.7-2.7,0L20,22.7L13.7,29c-0.7,0.7-2,0.7-2.7,0c-0.7-0.7-0.7-2,0-2.7l6.3-6.3L11,13.7
			c-0.7-0.7-0.7-2,0-2.7c0.7-0.7,2-0.7,2.7,0l6.3,6.3l6.3-6.3c0.7-0.7,2-0.7,2.7,0c0.7,0.7,0.7,2,0,2.7L22.7,20L29,26.3z"/>
	</g>
</g>
</svg>
