<?xml version="1.0" encoding="utf-8"?>
<!-- Generator: Adobe Illustrator 25.3.1, SVG Export Plug-In . SVG Version: 6.00 Build 0)  -->
<svg version="1.1" id="Capa_1" xmlns="http://www.w3.org/2000/svg" xmlns:xlink="http://www.w3.org/1999/xlink" x="0px" y="0px"
	 viewBox="0 0 22.1 28.3" style="enable-background:new 0 0 22.1 28.3;" xml:space="preserve">
<style type="text/css">
	.st0{fill:#3BD4AE;}
</style>
<g>
	<path class="st0" d="M20.3,5.1V2.6c0-1.3-1.1-2.4-2.4-2.4H4.2c-1.3,0-2.4,1.1-2.4,2.4v2.5C0.9,5.2,0.1,6,0.1,7v19
		c0,0.5,0.4,0.8,0.8,0.8h1v0.5c0,0.5,0.4,0.8,0.8,0.8c0.5,0,0.8-0.4,0.8-0.8v-0.5h15v0.5c0,0.5,0.4,0.8,0.8,0.8
		c0.5,0,0.8-0.4,0.8-0.8v-0.5h1c0.5,0,0.8-0.4,0.8-0.8V7C22,6,21.3,5.2,20.3,5.1 M3.5,2.6c0-0.4,0.3-0.8,0.8-0.8h13.6
		c0.4,0,0.8,0.3,0.8,0.8v2.5H3.5V2.6z M20.4,25.2H1.8V7c0-0.2,0.1-0.3,0.3-0.3h18c0.2,0,0.3,0.1,0.3,0.3V25.2z"/>
	<path class="st0" d="M16.5,2.6c0.5,0,0.8,0.4,0.8,0.8S17,4.3,16.5,4.3c-0.5,0-0.8-0.4-0.8-0.8S16.1,2.6,16.5,2.6"/>
	<path class="st0" d="M13.2,2.6c0.5,0,0.8,0.4,0.8,0.8s-0.4,0.8-0.8,0.8c-0.5,0-0.8-0.4-0.8-0.8S12.8,2.6,13.2,2.6"/>
	<path class="st0" d="M8.9,2.6c0.5,0,0.8,0.4,0.8,0.8S9.3,4.3,8.9,4.3C8.4,4.3,8,3.9,8,3.4S8.4,2.6,8.9,2.6"/>
	<path class="st0" d="M5.6,2.6C6,2.6,6.4,3,6.4,3.4S6,4.3,5.6,4.3c-0.5,0-0.8-0.4-0.8-0.8S5.1,2.6,5.6,2.6"/>
	<path class="st0" d="M17.8,11.7H4.3c-0.5,0-0.8,0.4-0.8,0.8v10.1c0,0.5,0.4,0.8,0.8,0.8h13.6c0.5,0,0.8-0.4,0.8-0.8V12.6
		C18.7,12.1,18.3,11.7,17.8,11.7 M17,21.9H5.1v-8.5H17V21.9z"/>
	<path class="st0" d="M18,8.4h-14c-0.5,0-0.8,0.4-0.8,0.8c0,0.5,0.4,0.8,0.8,0.8h14c0.5,0,0.8-0.4,0.8-0.8C18.9,8.8,18.5,8.4,18,8.4
		"/>
</g>
</svg>
