<?xml version="1.0" encoding="utf-8"?>
<!-- Generator: Adobe Illustrator 25.4.1, SVG Export Plug-In . SVG Version: 6.00 Build 0)  -->
<svg version="1.1" id="Capa_1" xmlns="http://www.w3.org/2000/svg" xmlns:xlink="http://www.w3.org/1999/xlink" x="0px" y="0px"
	 viewBox="0 0 90 74" style="enable-background:new 0 0 90 74;" xml:space="preserve">
<style type="text/css">
	.st0{clip-path:url(#SVGID_00000081646184409908512270000014274339874102912698_);}
	.st1{fill:#FFC107;}
	.st2{fill:#FFD54F;}
	.st3{fill:#FFEFAD;}
	.st4{fill:#FECE00;}
	.st5{fill:#FFE577;}
	.st6{enable-background:new    ;}
	.st7{clip-path:url(#SVGID_00000023265028331319488510000003713806801241878201_);enable-background:new    ;}
	.st8{clip-path:url(#SVGID_00000160894149822665897460000017164856656953837487_);enable-background:new    ;}
	.st9{fill:#EEBF00;}
	.st10{clip-path:url(#SVGID_00000134961220369436399230000011821135521281516974_);}
	.st11{clip-path:url(#SVGID_00000060752384244580361590000016347949569754672313_);enable-background:new    ;}
	.st12{clip-path:url(#SVGID_00000153674841356020863430000000270340060024667068_);}
	.st13{clip-path:url(#SVGID_00000167354071009068117180000009535937318252345743_);enable-background:new    ;}
	.st14{clip-path:url(#SVGID_00000016773891660747019380000013953310871953788817_);enable-background:new    ;}
	.st15{fill:#85773E;}
	.st16{clip-path:url(#SVGID_00000068636904876797744540000014073460567127306112_);}
	.st17{clip-path:url(#SVGID_00000012440630973290158450000003012010075901462955_);enable-background:new    ;}
	.st18{clip-path:url(#SVGID_00000003074831605680579160000007320433979755862403_);}
	.st19{clip-path:url(#SVGID_00000056414317566700752310000006858068855736258725_);enable-background:new    ;}
	.st20{clip-path:url(#SVGID_00000175309178364308537280000017140019183225482665_);enable-background:new    ;}
	.st21{clip-path:url(#SVGID_00000076574974671872789900000011618611709306714513_);enable-background:new    ;}
	.st22{clip-path:url(#SVGID_00000030450048980384657090000003003331686532800661_);enable-background:new    ;}
	.st23{clip-path:url(#SVGID_00000160872524879323437140000000590290599724445837_);enable-background:new    ;}
	.st24{clip-path:url(#SVGID_00000032620680969600395610000000524571095744027785_);}
	.st25{fill:none;}
	.st26{fill:#E5BA03;}
	.st27{fill:#CEA705;}
	.st28{clip-path:url(#SVGID_00000140732689903976427750000007876816386144639908_);enable-background:new    ;}
	.st29{clip-path:url(#SVGID_00000050649786755866158620000008186289334675654064_);enable-background:new    ;}
	.st30{clip-path:url(#SVGID_00000031888027360743274460000013944608898105638537_);}
	.st31{clip-path:url(#SVGID_00000160872552142621982900000015560504805497604506_);enable-background:new    ;}
	.st32{clip-path:url(#SVGID_00000110431665043399458850000007060462288526176662_);}
	.st33{clip-path:url(#SVGID_00000009559646700201884400000016935124177567268497_);enable-background:new    ;}
	.st34{clip-path:url(#SVGID_00000138533285467223557740000002270870310526243748_);enable-background:new    ;}
	.st35{clip-path:url(#SVGID_00000040559982443356698700000005425314596114898838_);}
	.st36{clip-path:url(#SVGID_00000014593117660360512670000000402104209534437287_);enable-background:new    ;}
	.st37{clip-path:url(#SVGID_00000011743609999635799100000007084974704198866102_);}
	.st38{clip-path:url(#SVGID_00000050636082325853370950000014022421019211329209_);enable-background:new    ;}
	.st39{clip-path:url(#SVGID_00000171679079352817727350000006913115620875823018_);enable-background:new    ;}
	.st40{clip-path:url(#SVGID_00000154419846319659021510000001999718809026781844_);enable-background:new    ;}
	.st41{clip-path:url(#SVGID_00000178898652104818472700000006944049096392333979_);}
	.st42{clip-path:url(#SVGID_00000021824120354223438480000017878014192921390014_);}
	.st43{clip-path:url(#SVGID_00000095332703455836211910000001459141781266447788_);}
</style>
<g>
	<g>
		<defs>
			<path id="SVGID_1_" d="M89.5,17.3L89.5,17.3c0.2-4.3-2.7-8.7-8.9-12c-11.9-6.4-31.4-6.4-43.4,0c-6.6,3.5-9.6,8.2-9,12.8v8.3
				c0,0.1,0,0.3,0,0.4c-0.1,0.8-0.1,1.7,0,2.5v0.5c1-0.1,2.1-0.1,3.1-0.1c8.9,0,17.2,1.9,23.6,5.3c7.1,3.8,11,9.2,11,15.1
				c0,0.2,0,0.3,0,0.5v9.1c0,0.8-0.1,1.8-0.4,2.8c0.6-0.1,1.2-0.1,1.8-0.2c0,0,0,0,0,0c0.9-0.1,1.8-0.3,2.7-0.4c0.1,0,0.3,0,0.4-0.1
				c0.7-0.1,1.4-0.3,2.1-0.4c0.1,0,0.3-0.1,0.4-0.1v0c2-0.5,3.9-1,5.6-1.7v0c2.1-0.8,4-1.7,5.6-2.8v0c3.5-2.3,5.5-5,5.5-8v-9.1h0
				c0-0.4,0-0.9,0-1.3c0-0.3,0.1-0.5,0.1-0.8v-9.1h0c0-0.4,0-0.9,0-1.3c0-0.3,0.1-0.5,0.1-0.8V17.3z"/>
		</defs>
		<clipPath id="SVGID_00000065057689222596610970000007274731041364249993_">
			<use xlink:href="#SVGID_1_"  style="overflow:visible;"/>
		</clipPath>
		<g style="clip-path:url(#SVGID_00000065057689222596610970000007274731041364249993_);">
			<g>
				<path class="st1" d="M28.2,39.7v9.1c0,7.7,13.7,13.9,30.7,13.9s30.7-6.2,30.7-13.9v-9.1H28.2z"/>
				<ellipse class="st2" cx="58.9" cy="41.4" rx="29" ry="12.2"/>
				<g>
					<path class="st3" d="M78.4,50.4v9.1c2.1-0.8,4-1.7,5.6-2.8v-8.7h-0.6C82,48.9,80.3,49.7,78.4,50.4z"/>
					<path class="st3" d="M67.3,53.1v9.1c2-0.2,3.8-0.6,5.6-1v-9.1C71.1,52.5,69.2,52.8,67.3,53.1z"/>
				</g>
				<path class="st4" d="M42.6,30.1c9-5.2,23.7-5.2,32.6,0c4.5,2.6,6.7,5.9,6.7,9.3l0,3.1c0-3.4-2.2-6.8-6.7-9.3
					c-9-5.2-23.6-5.2-32.6,0c-4.5,2.6-6.8,6-6.8,9.5l0-3.1C35.8,36.2,38,32.8,42.6,30.1z"/>
				<path class="st5" d="M75.1,47.9c9.1-4.8,9.1-12.6,0.1-17.4c-9-4.8-23.7-4.8-32.7,0c-9.1,4.8-9.1,12.6-0.1,17.4
					C51.4,52.8,66.1,52.8,75.1,47.9 M80.6,27.7c11.9,6.4,11.9,16.8-0.1,23.1c-12,6.4-31.5,6.4-43.4,0C25.1,44.4,25.1,34,37.2,27.7
					C49.2,21.3,68.6,21.3,80.6,27.7z"/>
				<g>
					<g class="st6">
						<g>
							<defs>
								<path id="SVGID_00000123402323417274611470000000825985454490398374_" d="M65.9,42.3v3.1c0,0,0,0,0,0.1c0,0-0.1,0-0.1,0
									v-3.1C65.8,42.3,65.9,42.3,65.9,42.3C65.9,42.3,65.9,42.3,65.9,42.3z"/>
							</defs>
							<use xlink:href="#SVGID_00000123402323417274611470000000825985454490398374_"  style="overflow:visible;fill:#FECE00;"/>
							<clipPath id="SVGID_00000013183314050697078960000010106169136359906973_">
								<use xlink:href="#SVGID_00000123402323417274611470000000825985454490398374_"  style="overflow:visible;"/>
							</clipPath>
							<g style="clip-path:url(#SVGID_00000013183314050697078960000010106169136359906973_);enable-background:new    ;">
								<polyline class="st4" points="65.9,42.3 65.9,45.4 65.9,45.4 65.9,42.3 65.9,42.3 								"/>
								<polyline class="st4" points="65.9,42.3 65.9,45.4 65.9,45.4 65.9,42.3 65.9,42.3 								"/>
								<polyline class="st4" points="65.9,42.3 65.9,45.4 65.9,45.4 65.9,42.3 65.9,42.3 								"/>
								<path class="st4" d="M65.9,42.3v3.1c0,0,0,0,0,0c0,0-0.1,0-0.1,0v-3.1C65.8,42.3,65.9,42.3,65.9,42.3
									C65.9,42.3,65.9,42.3,65.9,42.3"/>
							</g>
						</g>
						<g class="st6">
							<defs>
								<path id="SVGID_00000029045290249659535270000001925583327681180310_" class="st6" d="M66.7,42.6v3.1c0-0.9-0.2-3.6-0.8-4.9
									c-0.3-0.7-0.7-1.2-1.2-1.7c-0.5-0.5-1.1-0.9-1.9-1.2c-1.2-0.6-2.7-1-4.4-1.1c-0.7-0.1-1.5-0.1-2.2-0.1
									c-2.8,0-5.5,0.6-7.5,1.7c-1.9,1-2.9,2.3-2.9,3.6v-3.1c0-1.3,1-2.6,2.9-3.6c2-1.1,4.7-1.7,7.5-1.7c0.7,0,1.5,0,2.2,0.1
									c1.7,0.2,3.2,0.6,4.4,1.1c0.8,0.4,1.4,0.8,1.9,1.2c0.5,0.5,0.9,1,1.2,1.7C66.6,39,66.7,41.7,66.7,42.6z"/>
							</defs>
							<clipPath id="SVGID_00000077317837685310978980000012421313814119213480_">
								<use xlink:href="#SVGID_00000029045290249659535270000001925583327681180310_"  style="overflow:visible;"/>
							</clipPath>
							<g style="clip-path:url(#SVGID_00000077317837685310978980000012421313814119213480_);enable-background:new    ;">
								<path class="st9" d="M66.7,42.6v3.1c0-0.9-0.2-3.6-0.8-4.9c-0.3-0.7-0.7-1.2-1.2-1.7c-0.5-0.5-1.1-0.9-1.9-1.2
									c-1.2-0.6-2.7-1-4.4-1.1c-0.7-0.1-1.5-0.1-2.2-0.1c-2.8,0-5.5,0.6-7.5,1.7c-1.1,0.6-1.9,1.3-2.4,2.1v-3.1
									c0.5-0.7,1.3-1.4,2.4-2.1c2-1.1,4.7-1.7,7.5-1.7c0.7,0,1.5,0,2.2,0.1c1.7,0.2,3.2,0.6,4.4,1.1c0.8,0.4,1.4,0.8,1.9,1.2
									c0.5,0.5,0.9,1,1.2,1.7C66.6,39,66.7,41.7,66.7,42.6"/>
								<path class="st9" d="M46.4,37.3v3.1c-0.1,0.2-0.2,0.4-0.3,0.6v-3.1C46.1,37.7,46.2,37.5,46.4,37.3"/>
								<path class="st9" d="M46.1,37.9V41c-0.1,0.2-0.1,0.3-0.1,0.5v-3.1C46,38.3,46,38.1,46.1,37.9"/>
								<path class="st9" d="M45.9,38.4v3.1c0,0.1,0,0.3,0,0.4v-3.1C45.9,38.7,45.9,38.6,45.9,38.4"/>
							</g>
						</g>
						<g class="st6">
							<defs>
								<path id="SVGID_00000030468894281808555280000001365304966043526560_" class="st6" d="M50.5,38.2l0-3.1c0,0,0,0,0,0
									c0,0,0.1,0.1,0.2,0.1c0.7,0,2.2,0,3.8,0.2c2,0.3,3.7,0.7,5.1,1.4c3.4,1.6,5.3,3.3,6,5.4c0,0,0.1,0.1,0.2,0.1v3.1
									c-0.1,0-0.2,0-0.2-0.1c-0.8-2.1-2.7-3.8-6-5.4c-1.4-0.7-3.2-1.2-5.1-1.4c-1.7-0.2-3.1-0.2-3.8-0.2
									C50.6,38.3,50.5,38.3,50.5,38.2C50.5,38.2,50.5,38.2,50.5,38.2z"/>
							</defs>
							<clipPath id="SVGID_00000128466812542364807900000017027770900377741208_">
								<use xlink:href="#SVGID_00000030468894281808555280000001365304966043526560_"  style="overflow:visible;"/>
							</clipPath>
							<g style="clip-path:url(#SVGID_00000128466812542364807900000017027770900377741208_);">
								<path class="st4" d="M65.8,42.3v3.1c-0.1,0-0.2,0-0.2-0.1c-0.8-2.1-2.7-3.8-6-5.4c-1.4-0.7-3.2-1.2-5.1-1.4
									c-1.7-0.2-3.1-0.2-3.8-0.2c-0.1,0-0.1,0-0.2-0.1c0,0,0,0,0,0v-3.1c0,0,0,0,0,0c0,0,0.1,0.1,0.2,0.1c0.7,0,2.2,0,3.8,0.2
									c2,0.3,3.7,0.7,5.1,1.4c3.4,1.6,5.3,3.3,6,5.4C65.6,42.3,65.7,42.3,65.8,42.3"/>
							</g>
						</g>
						<g>
							<defs>
								<path id="SVGID_00000150794420646313287200000007221180123322928009_" d="M69.4,42.6v3.1c0,0,0,0.1-0.1,0.1
									c-0.1,0-0.1,0.1-0.2,0.1v-3.1c0.1,0,0.2,0,0.2-0.1C69.3,42.7,69.4,42.7,69.4,42.6z"/>
							</defs>
							<use xlink:href="#SVGID_00000150794420646313287200000007221180123322928009_"  style="overflow:visible;fill:#EEBF00;"/>
							<clipPath id="SVGID_00000052824720404736450350000011904541561867118755_">
								<use xlink:href="#SVGID_00000150794420646313287200000007221180123322928009_"  style="overflow:visible;"/>
							</clipPath>
							<g style="clip-path:url(#SVGID_00000052824720404736450350000011904541561867118755_);enable-background:new    ;">
								<path class="st9" d="M69.4,42.6v3.1c0,0,0,0,0,0L69.4,42.6C69.4,42.6,69.4,42.6,69.4,42.6"/>
								<path class="st9" d="M69.4,42.6v3.1c0,0,0,0,0,0L69.4,42.6C69.4,42.7,69.4,42.6,69.4,42.6"/>
								<path class="st9" d="M69.4,42.7v3.1c0,0,0,0,0,0L69.4,42.7C69.4,42.7,69.4,42.7,69.4,42.7"/>
								<path class="st9" d="M69.4,42.7v3.1c0,0,0,0-0.1,0.1c-0.1,0-0.1,0.1-0.2,0.1v-3.1C69.1,42.8,69.2,42.8,69.4,42.7
									C69.3,42.7,69.3,42.7,69.4,42.7"/>
							</g>
						</g>
						<g>
							<polygon class="st9" points="69,42.8 69,45.9 67.1,45.9 67.1,42.8 							"/>
						</g>
						<g>
							<defs>
								<path id="SVGID_00000031179513997079565020000015810912637675420319_" d="M67.1,42.8v3.1c-0.1,0-0.2,0-0.2,0
									c-0.1,0-0.1-0.1-0.1-0.1v-3.1c0,0,0,0.1,0.1,0.1C66.9,42.8,67,42.8,67.1,42.8z"/>
							</defs>
							<use xlink:href="#SVGID_00000031179513997079565020000015810912637675420319_"  style="overflow:visible;fill:#EEBF00;"/>
							<clipPath id="SVGID_00000089537627208485727330000017510686601399939250_">
								<use xlink:href="#SVGID_00000031179513997079565020000015810912637675420319_"  style="overflow:visible;"/>
							</clipPath>
							<g style="clip-path:url(#SVGID_00000089537627208485727330000017510686601399939250_);">
								<path class="st9" d="M67.1,42.8v3.1c-0.1,0-0.2,0-0.2,0c-0.1,0-0.1-0.1-0.1-0.1v-3.1c0,0,0,0.1,0.1,0.1
									C66.9,42.8,67,42.8,67.1,42.8"/>
							</g>
						</g>
						<g>
							<defs>
								<path id="SVGID_00000108273889102189602780000000349870142122109106_" d="M63.7,43.5v3.1c0,0,0,0,0,0c0,0,0,0,0,0.1
									L63.7,43.5C63.7,43.5,63.7,43.5,63.7,43.5C63.7,43.5,63.7,43.5,63.7,43.5z"/>
							</defs>
							<use xlink:href="#SVGID_00000108273889102189602780000000349870142122109106_"  style="overflow:visible;fill:#EEBF00;"/>
							<clipPath id="SVGID_00000108306343749855594920000001259810665367712693_">
								<use xlink:href="#SVGID_00000108273889102189602780000000349870142122109106_"  style="overflow:visible;"/>
							</clipPath>
							<g style="clip-path:url(#SVGID_00000108306343749855594920000001259810665367712693_);enable-background:new    ;">
								<polyline class="st9" points="63.7,43.5 63.7,46.6 63.7,46.6 63.7,46.6 63.7,43.5 63.7,43.5 63.7,43.5 								"/>
								<polyline class="st9" points="63.7,43.5 63.7,46.6 63.7,46.6 63.7,43.5 63.7,43.5 								"/>
								<polyline class="st9" points="63.7,43.5 63.7,46.6 63.7,46.6 63.7,43.5 63.7,43.5 								"/>
								<path class="st9" d="M63.7,43.5v3.1c0,0,0,0,0,0L63.7,43.5C63.7,43.5,63.7,43.5,63.7,43.5"/>
							</g>
						</g>
						<g class="st6">
							<defs>
								<polygon id="SVGID_00000095339244190367613590000000070588575499930013_" class="st6" points="65.7,46.6 65.7,43.5 
									65.7,43.5 65.7,46.6 								"/>
							</defs>
							<clipPath id="SVGID_00000178185832538893064170000017130750121652820152_">
								<use xlink:href="#SVGID_00000095339244190367613590000000070588575499930013_"  style="overflow:visible;"/>
							</clipPath>
							<g style="clip-path:url(#SVGID_00000178185832538893064170000017130750121652820152_);enable-background:new    ;">
								<polyline class="st15" points="65.7,43.5 65.7,46.6 65.7,46.6 65.7,43.5 65.7,43.5 								"/>
							</g>
						</g>
						<g class="st6">
							<defs>
								<path id="SVGID_00000088113008984415730530000011911436015626657205_" class="st6" d="M63.6,43.5v3.1c0,0-0.1,0-0.1,0v-3.1
									C63.6,43.6,63.6,43.6,63.6,43.5z"/>
							</defs>
							<clipPath id="SVGID_00000084509405905815026600000008990242948800145078_">
								<use xlink:href="#SVGID_00000088113008984415730530000011911436015626657205_"  style="overflow:visible;"/>
							</clipPath>
							<g style="clip-path:url(#SVGID_00000084509405905815026600000008990242948800145078_);">
								<path class="st9" d="M63.6,43.5v3.1c0,0-0.1,0-0.1,0v-3.1C63.6,43.6,63.6,43.6,63.6,43.5"/>
							</g>
						</g>
						<g>
							<defs>
								<path id="SVGID_00000158738021109952520060000017383711198395145400_" d="M69.7,43.5v3.1c0,0,0,0.1-0.1,0.1v-3.1
									C69.7,43.6,69.7,43.5,69.7,43.5z"/>
							</defs>
							<use xlink:href="#SVGID_00000158738021109952520060000017383711198395145400_"  style="overflow:visible;fill:#EEBF00;"/>
							<clipPath id="SVGID_00000140693950952543714080000011214444382523741611_">
								<use xlink:href="#SVGID_00000158738021109952520060000017383711198395145400_"  style="overflow:visible;"/>
							</clipPath>
							<g style="clip-path:url(#SVGID_00000140693950952543714080000011214444382523741611_);enable-background:new    ;">
								<path class="st9" d="M69.7,43.5v3.1c0,0,0,0,0,0L69.7,43.5C69.7,43.5,69.7,43.5,69.7,43.5"/>
								<path class="st9" d="M69.7,43.5v3.1c0,0,0,0,0,0L69.7,43.5C69.7,43.5,69.7,43.5,69.7,43.5"/>
								<path class="st9" d="M69.7,43.5v3.1c0,0,0,0,0,0L69.7,43.5C69.7,43.5,69.7,43.5,69.7,43.5"/>
								<path class="st9" d="M69.7,43.5v3.1c0,0,0,0-0.1,0L69.7,43.5C69.6,43.6,69.7,43.6,69.7,43.5"/>
							</g>
						</g>
						<g class="st6">
							<defs>
								<path id="SVGID_00000129192680560580656050000013488210623036550044_" class="st6" d="M46.8,42l0-3.1c0,0.4,0.1,0.9,0.4,1.4
									c0.4,0.7,1.3,1.5,2.2,1.9c1.5,0.7,2.9,1.1,5.1,1.3c1.4,0.1,3.1,0.2,4.7,0.2c1,0,2.1,0,3.1,0c0.2,0,0.4,0,0.5,0
									c0.2,0,0.5,0,0.7,0v3.1c-0.2,0-0.5,0-0.7,0c-0.2,0-0.4,0-0.5,0c-1,0-2.1,0-3.1,0c-1.6,0-3.3,0-4.7-0.2
									c-2.2-0.2-3.7-0.6-5.1-1.3c-0.9-0.4-1.8-1.2-2.2-1.9C46.9,42.8,46.8,42.4,46.8,42z"/>
							</defs>
							<clipPath id="SVGID_00000058576264659047398070000016137019627077626275_">
								<use xlink:href="#SVGID_00000129192680560580656050000013488210623036550044_"  style="overflow:visible;"/>
							</clipPath>
							<g style="clip-path:url(#SVGID_00000058576264659047398070000016137019627077626275_);">
								<path class="st9" d="M63.5,43.6v3.1c-0.2,0-0.5,0-0.7,0c-0.2,0-0.4,0-0.5,0c-1,0-2.1,0-3.1,0c-1.6,0-3.3,0-4.7-0.2
									c-2.2-0.2-3.7-0.6-5.1-1.3c-0.9-0.4-1.8-1.2-2.2-1.9c-0.3-0.5-0.4-0.9-0.4-1.4v-3.1c0,0.4,0.1,0.9,0.4,1.4
									c0.4,0.7,1.3,1.5,2.2,1.9c1.5,0.7,2.9,1.1,5.1,1.3c1.4,0.1,3.1,0.2,4.7,0.2c1,0,2.1,0,3.1,0c0.2,0,0.4,0,0.5,0
									C63.1,43.6,63.3,43.6,63.5,43.6"/>
							</g>
						</g>
						<g>
							<polygon class="st9" points="69.6,43.6 69.6,46.7 69.5,46.8 69.5,43.7 							"/>
						</g>
						<g>
							<defs>
								<path id="SVGID_00000022559579740203374190000015316611322713104042_" d="M70.8,44.4l0,3.1c0,0,0,0.1-0.1,0.1v-3.1
									C70.7,44.4,70.8,44.4,70.8,44.4z"/>
							</defs>
							<use xlink:href="#SVGID_00000022559579740203374190000015316611322713104042_"  style="overflow:visible;fill:#FECE00;"/>
							<clipPath id="SVGID_00000061433257525557238800000010340665714284109746_">
								<use xlink:href="#SVGID_00000022559579740203374190000015316611322713104042_"  style="overflow:visible;"/>
							</clipPath>
							<g style="clip-path:url(#SVGID_00000061433257525557238800000010340665714284109746_);enable-background:new    ;">
								<path class="st4" d="M70.8,44.4v3.1c0,0,0,0,0,0L70.8,44.4C70.7,44.4,70.8,44.4,70.8,44.4"/>
								<path class="st4" d="M70.7,44.4v3.1c0,0,0,0,0,0L70.7,44.4C70.7,44.4,70.7,44.4,70.7,44.4"/>
								<path class="st4" d="M70.7,44.4v3.1c0,0,0,0,0,0L70.7,44.4C70.7,44.4,70.7,44.4,70.7,44.4"/>
								<path class="st4" d="M70.7,44.4v3.1c0,0,0,0-0.1,0.1L70.7,44.4C70.7,44.4,70.7,44.4,70.7,44.4"/>
							</g>
						</g>
						<g>
							<defs>
								<path id="SVGID_00000011025994509665901810000006246481121213438859_" d="M67.9,47.7v-3.1c0-0.1,0-0.1,0.1-0.1
									c0.1,0,0.2-0.1,0.3-0.1c0.1,0,0.2,0,0.3,0.1v3.1c-0.1,0-0.2-0.1-0.3-0.1c-0.1,0-0.2,0-0.3,0.1
									C67.9,47.6,67.9,47.7,67.9,47.7z"/>
							</defs>
							<use xlink:href="#SVGID_00000011025994509665901810000006246481121213438859_"  style="overflow:visible;fill:#EEBF00;"/>
							<clipPath id="SVGID_00000118369078286874822390000016024628090335385279_">
								<use xlink:href="#SVGID_00000011025994509665901810000006246481121213438859_"  style="overflow:visible;"/>
							</clipPath>
							<g style="clip-path:url(#SVGID_00000118369078286874822390000016024628090335385279_);enable-background:new    ;">
								<path class="st9" d="M68.6,44.5v3.1c-0.1,0-0.2-0.1-0.3-0.1c-0.1,0-0.2,0-0.3,0.1c0,0-0.1,0.1-0.1,0.1v-3.1
									c0,0,0-0.1,0.1-0.1c0.1,0,0.2-0.1,0.3-0.1C68.4,44.4,68.5,44.4,68.6,44.5"/>
								<path class="st9" d="M67.9,44.6v3.1c0,0,0,0,0,0L67.9,44.6C67.9,44.6,67.9,44.6,67.9,44.6"/>
								<path class="st9" d="M67.9,44.6v3.1c0,0,0,0,0,0L67.9,44.6C67.9,44.6,67.9,44.6,67.9,44.6"/>
								<path class="st9" d="M67.9,44.6v3.1c0,0,0,0,0,0L67.9,44.6C67.9,44.6,67.9,44.6,67.9,44.6"/>
							</g>
						</g>
						<g>
							<polygon class="st9" points="69.7,45 69.7,48.1 68.6,47.6 68.6,44.5 							"/>
						</g>
						<g>
							<polygon class="st4" points="70.7,44.5 70.7,47.6 69.7,48.1 69.7,45 							"/>
						</g>
						<g>
							<polygon class="st9" points="65.9,45.2 65.9,48.3 65.7,46.6 65.7,43.5 							"/>
						</g>
						<g>
							<defs>
								<path id="SVGID_00000050632630280541696250000002559031717055797638_" d="M64.8,45.1v3.1c0,0,0,0.1-0.1,0.1
									c-0.1,0-0.1,0.1-0.2,0.1c-0.9,0-2.5,0.1-4.3,0.1c-2,0-4.2,0-6-0.2c-1.7-0.2-2.8-0.3-3.9-0.6c-1.3-0.3-2.3-0.7-3.3-1.1
									c-1.5-0.7-2.7-1.7-3.3-2.7c-0.3-0.6-0.5-1.2-0.5-1.8v-3.1c0,0.6,0.2,1.2,0.5,1.8c0.6,1.1,1.7,2,3.3,2.7
									c1,0.5,2.1,0.8,3.3,1.1c1,0.2,2.2,0.4,3.9,0.6c1.8,0.2,4,0.2,6,0.2c1.8,0,3.4,0,4.3-0.1c0.1,0,0.2,0,0.2-0.1
									C64.8,45.2,64.8,45.2,64.8,45.1z"/>
							</defs>
							<use xlink:href="#SVGID_00000050632630280541696250000002559031717055797638_"  style="overflow:visible;fill:#FECE00;"/>
							<clipPath id="SVGID_00000078764529149239409510000017315811623619673997_">
								<use xlink:href="#SVGID_00000050632630280541696250000002559031717055797638_"  style="overflow:visible;"/>
							</clipPath>
							<g style="clip-path:url(#SVGID_00000078764529149239409510000017315811623619673997_);enable-background:new    ;">
								<path class="st4" d="M64.8,45.1v3.1c0,0,0,0,0,0L64.8,45.1C64.8,45.1,64.8,45.1,64.8,45.1"/>
								<path class="st4" d="M64.8,45.1v3.1c0,0,0,0,0,0L64.8,45.1C64.8,45.1,64.8,45.1,64.8,45.1"/>
								<path class="st4" d="M64.8,45.1v3.1c0,0,0,0,0,0L64.8,45.1C64.8,45.2,64.8,45.1,64.8,45.1"/>
								<path class="st4" d="M64.8,45.2v3.1c0,0,0,0-0.1,0.1c-0.1,0-0.1,0.1-0.2,0.1c-0.9,0-2.5,0.1-4.3,0.1c-2,0-4.2,0-6-0.2
									c-1.7-0.2-2.8-0.3-3.9-0.6c-1.3-0.3-2.3-0.7-3.3-1.1c-1.5-0.7-2.7-1.7-3.3-2.7c-0.3-0.6-0.5-1.2-0.5-1.8v-3.1
									c0,0.6,0.2,1.2,0.5,1.8c0.6,1.1,1.7,2,3.3,2.7c1,0.5,2.1,0.8,3.3,1.1c1,0.2,2.2,0.4,3.9,0.6c1.8,0.2,4,0.2,6,0.2
									c1.8,0,3.4,0,4.3-0.1C64.6,45.3,64.7,45.3,64.8,45.2C64.8,45.2,64.8,45.2,64.8,45.2"/>
							</g>
						</g>
						<g>
							<polygon class="st4" points="66.6,45.3 66.6,48.4 66.4,48.5 66.4,45.4 							"/>
						</g>
						<g>
							<defs>
								<path id="SVGID_00000176014580302032699980000018068927844499817373_" d="M66.4,45.4v3.1c-0.1,0-0.1,0-0.2,0v-3.1
									C66.3,45.4,66.3,45.4,66.4,45.4z"/>
							</defs>
							<use xlink:href="#SVGID_00000176014580302032699980000018068927844499817373_"  style="overflow:visible;fill:#FECE00;"/>
							<clipPath id="SVGID_00000119799582285328578610000013530794884134251453_">
								<use xlink:href="#SVGID_00000176014580302032699980000018068927844499817373_"  style="overflow:visible;"/>
							</clipPath>
							<g style="clip-path:url(#SVGID_00000119799582285328578610000013530794884134251453_);enable-background:new    ;">
								<path class="st4" d="M66.4,45.4v3.1c-0.1,0-0.1,0-0.2,0v-3.1C66.3,45.4,66.3,45.4,66.4,45.4"/>
							</g>
						</g>
						<g>
							<defs>
								<path id="SVGID_00000071533325513381928010000008223573423686298297_" d="M66.2,45.4v3.1c-0.2,0-0.3-0.1-0.3-0.2v-3.1
									C65.9,45.3,66,45.4,66.2,45.4z"/>
							</defs>
							<use xlink:href="#SVGID_00000071533325513381928010000008223573423686298297_"  style="overflow:visible;fill:#FECE00;"/>
							<clipPath id="SVGID_00000100378433602244995940000006279957242651506319_">
								<use xlink:href="#SVGID_00000071533325513381928010000008223573423686298297_"  style="overflow:visible;"/>
							</clipPath>
							<g style="clip-path:url(#SVGID_00000100378433602244995940000006279957242651506319_);enable-background:new    ;">
								<path class="st4" d="M66.2,45.4v3.1c-0.2,0-0.3-0.1-0.3-0.2v-3.1C65.9,45.3,66,45.4,66.2,45.4"/>
							</g>
						</g>
						<g>
							<polygon class="st4" points="69.1,45.3 69.1,48.4 68.2,48.9 68.2,45.8 							"/>
						</g>
						<g>
							<polygon class="st4" points="67.7,45.8 67.7,48.9 66.6,48.4 66.6,45.3 							"/>
						</g>
						<g class="st6">
							<defs>
								<path id="SVGID_00000079482184336291446090000018047113363569188540_" class="st6" d="M68.2,45.8v3.1C68.1,49,68,49,67.9,49
									c-0.1,0-0.2,0-0.2,0v-3.1c0.1,0,0.1,0,0.2,0C68,45.9,68.1,45.9,68.2,45.8z"/>
							</defs>
							<clipPath id="SVGID_00000164478243287355175540000016106511603143617164_">
								<use xlink:href="#SVGID_00000079482184336291446090000018047113363569188540_"  style="overflow:visible;"/>
							</clipPath>
							<g style="clip-path:url(#SVGID_00000164478243287355175540000016106511603143617164_);">
								<path class="st4" d="M68.2,45.8v3.1C68.1,49,68,49,67.9,49c-0.1,0-0.2,0-0.2,0v-3.1c0.1,0,0.1,0,0.2,0
									C68,45.9,68.1,45.9,68.2,45.8"/>
							</g>
						</g>
					</g>
					<g>
						<g>
							<path class="st5" d="M56.2,34c0.7,0,1.4,0,2.1,0.1c1.3,0.1,2.9,0.5,3.9,1c1.5,0.7,2.3,1.4,2.9,2.5c0.6,1.2,0.8,2.6,0.8,4
								c0,0.1,0,0.2,0,0.3c0,0.1,0,0.2,0,0.4c0,0,0,0,0,0.1c0,0-0.1,0-0.1,0c-0.1,0-0.2,0-0.2-0.1c-0.8-2.1-2.7-3.8-6-5.4
								c-1.4-0.7-3.2-1.2-5.1-1.4c-1.7-0.2-3.1-0.2-3.8-0.2c-0.1,0-0.1,0-0.2-0.1c0,0,0-0.1,0-0.1c1-0.4,2.3-0.7,3.5-0.9
								C54.7,34,55.4,34,56.2,34z"/>
						</g>
						<g>
							<path class="st5" d="M48.5,36.2C48.5,36.2,48.5,36.2,48.5,36.2c0.1,0,0.2,0,0.2,0.1c0.1,0.4,0.2,1.1,0.7,1.9
								c0.6,1,1.7,1.8,3.1,2.5c3.4,1.6,6.9,2.5,11,2.7c0.1,0,0.2,0,0.1,0.1c0,0,0,0,0,0.1c0,0-0.1,0-0.1,0c-0.2,0-0.5,0-0.7,0
								c-0.2,0-0.4,0-0.5,0c-1,0-2.1,0-3.1,0c-1.6,0-3.3,0-4.7-0.2c-2.2-0.2-3.7-0.6-5.1-1.3c-0.9-0.4-1.8-1.2-2.2-1.9
								c-0.4-0.8-0.5-1.5-0.2-2.2c0.2-0.6,0.8-1.3,1.5-1.8C48.4,36.2,48.5,36.2,48.5,36.2z"/>
						</g>
						<g>
							<path class="st5" d="M56.3,32.2c0.9,0,1.8,0,2.7,0.1c2.1,0.2,4,0.7,5.6,1.5c1,0.5,1.8,1,2.4,1.6c0.5,0.5,1,1.1,1.4,1.9
								c0.4,0.7,0.6,1.7,0.8,2.8c0.1,1,0.2,1.9,0.2,2.4c0,0,0,0.1-0.1,0.1c-0.1,0-0.1,0.1-0.2,0.1l-2,0c-0.1,0-0.2,0-0.2,0
								c-0.1,0-0.1-0.1-0.1-0.1c0-0.9-0.2-3.7-0.8-5c-0.3-0.7-0.7-1.2-1.2-1.7c-0.5-0.5-1.1-0.9-1.9-1.2c-1.2-0.6-2.7-1-4.4-1.1
								c-0.7-0.1-1.5-0.1-2.2-0.1c-2.8,0-5.5,0.6-7.5,1.7c-2.6,1.4-3.5,3.3-2.4,5.1c0.5,0.8,1.3,1.6,2.5,2.1
								c0.8,0.4,1.6,0.6,2.5,0.9c0.9,0.2,2,0.4,3.3,0.5c1.2,0.1,3.1,0.1,4.9,0.1c2,0,3.9,0,4.8-0.1c0.1,0,0.2,0,0.2,0
								c0.1,0,0.1,0.1,0.1,0.1l0.1,1c0,0,0,0.1-0.1,0.1c-0.1,0-0.1,0.1-0.2,0.1c-0.9,0-2.5,0.1-4.3,0.1c-2,0-4.2,0-6-0.2
								c-1.7-0.2-2.8-0.3-3.9-0.6c-1.3-0.3-2.3-0.7-3.3-1.1c-1.5-0.7-2.7-1.7-3.3-2.7c-0.6-1.1-0.7-2.2-0.2-3.3
								c0.5-1.1,1.6-2.2,3.2-3.1c1.6-0.9,3.6-1.5,5.8-1.9C53.8,32.3,55,32.2,56.3,32.2z"/>
						</g>
						<g>
							<path class="st5" d="M69.4,43.3c0.2,0,0.3,0.1,0.3,0.2c0,0,0,0.1-0.1,0.1l-0.1,0.1l1.2,0.6c0.1,0.1,0.1,0.2,0,0.2L69.7,45
								l-1.1-0.5c-0.1,0-0.2-0.1-0.3-0.1c-0.1,0-0.2,0-0.3,0.1c-0.2,0.1-0.1,0.2,0,0.3l1.1,0.5l-0.9,0.5c-0.1,0-0.2,0.1-0.2,0.1
								c-0.1,0-0.2,0-0.2,0l-1.2-0.6l-0.1,0.1c-0.1,0-0.1,0-0.2,0c-0.2,0-0.3-0.1-0.3-0.2l-0.1-1.7c0,0,0-0.1,0.1-0.1
								c0.1,0,0.1-0.1,0.2-0.1L69.4,43.3C69.4,43.3,69.4,43.3,69.4,43.3z"/>
						</g>
					</g>
				</g>
			</g>
			<g>
				<path class="st1" d="M28.2,28.5v9.1c0,7.7,13.7,13.9,30.7,13.9s30.7-6.2,30.7-13.9v-9.1H28.2z"/>
				<ellipse class="st2" cx="58.9" cy="30.2" rx="29" ry="12.2"/>
				<g>
					<path class="st3" d="M78.4,39.2v9.1c2.1-0.8,4-1.7,5.6-2.8v-8.7h-0.6C82,37.7,80.3,38.5,78.4,39.2z"/>
					<path class="st3" d="M67.3,41.9V51c2-0.2,3.8-0.6,5.6-1v-9.1C71.1,41.3,69.2,41.6,67.3,41.9z"/>
				</g>
				<path class="st4" d="M42.6,19c9-5.2,23.7-5.2,32.6,0c4.5,2.6,6.7,5.9,6.7,9.3l0,3.1c0-3.4-2.2-6.8-6.7-9.3
					c-9-5.2-23.6-5.2-32.6,0c-4.5,2.6-6.8,6-6.8,9.5l0-3.1C35.8,25,38,21.6,42.6,19z"/>
				<path class="st5" d="M75.1,36.8c9.1-4.8,9.1-12.6,0.1-17.4c-9-4.8-23.7-4.8-32.7,0c-9.1,4.8-9.1,12.6-0.1,17.4
					C51.4,41.6,66.1,41.6,75.1,36.8 M80.6,16.5c11.9,6.4,11.9,16.8-0.1,23.1c-12,6.4-31.5,6.4-43.4,0c-11.9-6.4-11.9-16.8,0.1-23.1
					C49.2,10.1,68.6,10.1,80.6,16.5z"/>
				<g>
					<g class="st6">
						<g>
							<path class="st4" d="M65.9,31.1v3.1c0,0,0,0,0,0.1c0,0-0.1,0-0.1,0v-3.1C65.8,31.1,65.9,31.1,65.9,31.1
								C65.9,31.1,65.9,31.1,65.9,31.1z"/>
							<g class="st6">
								<polyline class="st4" points="65.9,31.1 65.9,34.2 65.9,34.2 65.9,31.1 65.9,31.1 								"/>
								<polyline class="st4" points="65.9,31.1 65.9,34.2 65.9,34.2 65.9,31.1 65.9,31.1 								"/>
								<polyline class="st4" points="65.9,31.1 65.9,34.2 65.9,34.2 65.9,31.1 65.9,31.1 								"/>
								<path class="st4" d="M65.9,31.1v3.1c0,0,0,0,0,0c0,0-0.1,0-0.1,0v-3.1C65.8,31.1,65.9,31.1,65.9,31.1
									C65.9,31.1,65.9,31.1,65.9,31.1"/>
							</g>
						</g>
						<g class="st6">
							<path class="st25" d="M66.7,31.4v3.1c0-0.9-0.2-3.6-0.8-4.9c-0.3-0.7-0.7-1.2-1.2-1.7c-0.5-0.5-1.1-0.9-1.9-1.2
								c-1.2-0.6-2.7-1-4.4-1.1c-0.7-0.1-1.5-0.1-2.2-0.1c-2.8,0-5.5,0.6-7.5,1.7c-1.9,1-2.9,2.3-2.9,3.6v-3.1c0-1.3,1-2.6,2.9-3.6
								c2-1.1,4.7-1.7,7.5-1.7c0.7,0,1.5,0,2.2,0.1c1.7,0.2,3.2,0.6,4.4,1.1c0.8,0.4,1.4,0.8,1.9,1.2c0.5,0.5,0.9,1,1.2,1.7
								C66.6,27.8,66.7,30.5,66.7,31.4z"/>
							<g class="st6">
								<path class="st9" d="M66.7,31.4v3.1c0-0.9-0.2-3.6-0.8-4.9c-0.3-0.7-0.7-1.2-1.2-1.7c-0.5-0.5-1.1-0.9-1.9-1.2
									c-1.2-0.6-2.7-1-4.4-1.1c-0.7-0.1-1.5-0.1-2.2-0.1c-2.8,0-5.5,0.6-7.5,1.7c-1.1,0.6-1.9,1.3-2.4,2.1v-3.1
									c0.5-0.7,1.3-1.4,2.4-2.1c2-1.1,4.7-1.7,7.5-1.7c0.7,0,1.5,0,2.2,0.1c1.7,0.2,3.2,0.6,4.4,1.1c0.8,0.4,1.4,0.8,1.9,1.2
									c0.5,0.5,0.9,1,1.2,1.7C66.6,27.8,66.7,30.5,66.7,31.4"/>
								<path class="st9" d="M46.4,26.1v3.1c-0.1,0.2-0.2,0.4-0.3,0.6v-3.1C46.1,26.5,46.2,26.3,46.4,26.1"/>
								<path class="st9" d="M46.1,26.7v3.1C46,30,46,30.2,45.9,30.4v-3.1C46,27.1,46,26.9,46.1,26.7"/>
								<path class="st9" d="M45.9,27.2v3.1c0,0.1,0,0.3,0,0.4v-3.1C45.9,27.5,45.9,27.4,45.9,27.2"/>
							</g>
						</g>
						<g class="st6">
							<path class="st25" d="M50.5,27l0-3.1c0,0,0,0,0,0c0,0,0.1,0.1,0.2,0.1c0.7,0,2.2,0,3.8,0.2c2,0.3,3.7,0.7,5.1,1.4
								c3.4,1.6,5.3,3.3,6,5.4c0,0,0.1,0.1,0.2,0.1v3.1c-0.1,0-0.2,0-0.2-0.1c-0.8-2.1-2.7-3.8-6-5.4c-1.4-0.7-3.2-1.2-5.1-1.4
								c-1.7-0.2-3.1-0.2-3.8-0.2C50.6,27.1,50.5,27.1,50.5,27C50.5,27,50.5,27,50.5,27z"/>
							<path class="st4" d="M65.8,31.1v3.1c-0.1,0-0.2,0-0.2-0.1c-0.8-2.1-2.7-3.8-6-5.4c-1.4-0.7-3.2-1.2-5.1-1.4
								c-1.7-0.2-3.1-0.2-3.8-0.2c-0.1,0-0.1,0-0.2-0.1c0,0,0,0,0,0v-3.1c0,0,0,0,0,0c0,0,0.1,0.1,0.2,0.1c0.7,0,2.2,0,3.8,0.2
								c2,0.3,3.7,0.7,5.1,1.4c3.4,1.6,5.3,3.3,6,5.4C65.6,31.1,65.7,31.1,65.8,31.1"/>
						</g>
						<g>
							<path class="st9" d="M69.4,31.4v3.1c0,0,0,0.1-0.1,0.1c-0.1,0-0.1,0.1-0.2,0.1v-3.1c0.1,0,0.2,0,0.2-0.1
								C69.3,31.5,69.4,31.5,69.4,31.4z"/>
							<g class="st6">
								<path class="st9" d="M69.4,31.4v3.1c0,0,0,0,0,0L69.4,31.4C69.4,31.4,69.4,31.4,69.4,31.4"/>
								<path class="st9" d="M69.4,31.4v3.1c0,0,0,0,0,0L69.4,31.4C69.4,31.5,69.4,31.5,69.4,31.4"/>
								<path class="st9" d="M69.4,31.5v3.1c0,0,0,0,0,0L69.4,31.5C69.4,31.5,69.4,31.5,69.4,31.5"/>
								<path class="st9" d="M69.4,31.5v3.1c0,0,0,0-0.1,0.1c-0.1,0-0.1,0.1-0.2,0.1v-3.1C69.1,31.6,69.2,31.6,69.4,31.5
									C69.3,31.5,69.3,31.5,69.4,31.5"/>
							</g>
						</g>
						<polygon class="st9" points="69,31.6 69,34.7 67.1,34.7 67.1,31.6 						"/>
						<g>
							<path class="st9" d="M67.1,31.6v3.1c-0.1,0-0.2,0-0.2,0c-0.1,0-0.1-0.1-0.1-0.1v-3.1c0,0,0,0.1,0.1,0.1
								C66.9,31.6,67,31.6,67.1,31.6z"/>
							<path class="st9" d="M67.1,31.6v3.1c-0.1,0-0.2,0-0.2,0c-0.1,0-0.1-0.1-0.1-0.1v-3.1c0,0,0,0.1,0.1,0.1
								C66.9,31.6,67,31.6,67.1,31.6"/>
						</g>
						<g>
							<path class="st9" d="M63.7,32.3v3.1c0,0,0,0,0,0c0,0,0,0,0,0.1L63.7,32.3C63.7,32.3,63.7,32.3,63.7,32.3
								C63.7,32.3,63.7,32.3,63.7,32.3z"/>
							<g class="st6">
								<polyline class="st9" points="63.7,32.3 63.7,35.4 63.7,35.4 63.7,35.4 63.7,32.3 63.7,32.3 63.7,32.3 								"/>
								<polyline class="st9" points="63.7,32.3 63.7,35.4 63.7,35.4 63.7,32.3 63.7,32.3 								"/>
								<polyline class="st9" points="63.7,32.3 63.7,35.4 63.7,35.4 63.7,32.3 63.7,32.3 								"/>
								<path class="st9" d="M63.7,32.3v3.1c0,0,0,0,0,0L63.7,32.3C63.7,32.3,63.7,32.3,63.7,32.3"/>
							</g>
						</g>
						<g class="st6">
							<polygon class="st25" points="65.7,35.4 65.7,32.3 65.7,32.3 65.7,35.5 							"/>
							<polyline class="st15" points="65.7,32.3 65.7,35.5 65.7,35.4 65.7,32.3 65.7,32.3 							"/>
						</g>
						<g class="st6">
							<path class="st25" d="M63.6,32.3v3.1c0,0-0.1,0-0.1,0v-3.1C63.6,32.4,63.6,32.4,63.6,32.3z"/>
							<path class="st9" d="M63.6,32.3v3.1c0,0-0.1,0-0.1,0v-3.1C63.6,32.4,63.6,32.4,63.6,32.3"/>
						</g>
						<g>
							<path class="st9" d="M69.7,32.3v3.1c0,0,0,0.1-0.1,0.1v-3.1C69.7,32.4,69.7,32.3,69.7,32.3z"/>
							<g class="st6">
								<path class="st9" d="M69.7,32.3v3.1c0,0,0,0,0,0L69.7,32.3C69.7,32.3,69.7,32.3,69.7,32.3"/>
								<path class="st9" d="M69.7,32.3v3.1c0,0,0,0,0,0L69.7,32.3C69.7,32.3,69.7,32.3,69.7,32.3"/>
								<path class="st9" d="M69.7,32.3v3.1c0,0,0,0,0,0L69.7,32.3C69.7,32.3,69.7,32.3,69.7,32.3"/>
								<path class="st9" d="M69.7,32.3v3.1c0,0,0,0-0.1,0L69.7,32.3C69.6,32.4,69.7,32.4,69.7,32.3"/>
							</g>
						</g>
						<g class="st6">
							<path class="st25" d="M46.8,30.8l0-3.1c0,0.4,0.1,0.9,0.4,1.4c0.4,0.7,1.3,1.5,2.2,1.9c1.5,0.7,2.9,1.1,5.1,1.3
								c1.4,0.1,3.1,0.2,4.7,0.2c1,0,2.1,0,3.1,0c0.2,0,0.4,0,0.5,0c0.2,0,0.5,0,0.7,0v3.1c-0.2,0-0.5,0-0.7,0c-0.2,0-0.4,0-0.5,0
								c-1,0-2.1,0-3.1,0c-1.6,0-3.3,0-4.7-0.2c-2.2-0.2-3.7-0.6-5.1-1.3c-0.9-0.4-1.8-1.2-2.2-1.9C46.9,31.7,46.8,31.2,46.8,30.8z"
								/>
							<path class="st9" d="M63.5,32.4v3.1c-0.2,0-0.5,0-0.7,0c-0.2,0-0.4,0-0.5,0c-1,0-2.1,0-3.1,0c-1.6,0-3.3,0-4.7-0.2
								c-2.2-0.2-3.7-0.6-5.1-1.3c-0.9-0.4-1.8-1.2-2.2-1.9c-0.3-0.5-0.4-0.9-0.4-1.4v-3.1c0,0.4,0.1,0.9,0.4,1.4
								c0.4,0.7,1.3,1.5,2.2,1.9c1.5,0.7,2.9,1.1,5.1,1.3c1.4,0.1,3.1,0.2,4.7,0.2c1,0,2.1,0,3.1,0c0.2,0,0.4,0,0.5,0
								C63.1,32.4,63.3,32.4,63.5,32.4"/>
						</g>
						<polygon class="st9" points="69.6,32.4 69.6,35.5 69.5,35.6 69.5,32.5 						"/>
						<g>
							<path class="st4" d="M70.8,33.2l0,3.1c0,0,0,0.1-0.1,0.1v-3.1C70.7,33.2,70.8,33.2,70.8,33.2z"/>
							<g class="st6">
								<path class="st4" d="M70.8,33.2v3.1c0,0,0,0,0,0L70.8,33.2C70.7,33.2,70.8,33.2,70.8,33.2"/>
								<path class="st4" d="M70.7,33.2v3.1c0,0,0,0,0,0L70.7,33.2C70.7,33.2,70.7,33.2,70.7,33.2"/>
								<path class="st4" d="M70.7,33.2v3.1c0,0,0,0,0,0L70.7,33.2C70.7,33.2,70.7,33.2,70.7,33.2"/>
								<path class="st4" d="M70.7,33.2v3.1c0,0,0,0-0.1,0.1L70.7,33.2C70.7,33.3,70.7,33.2,70.7,33.2"/>
							</g>
						</g>
						<g>
							<path class="st9" d="M67.9,36.5v-3.1c0-0.1,0-0.1,0.1-0.1c0.1,0,0.2-0.1,0.3-0.1c0.1,0,0.2,0,0.3,0.1v3.1
								c-0.1,0-0.2-0.1-0.3-0.1c-0.1,0-0.2,0-0.3,0.1C67.9,36.4,67.9,36.5,67.9,36.5z"/>
							<g class="st6">
								<path class="st9" d="M68.6,33.3v3.1c-0.1,0-0.2-0.1-0.3-0.1c-0.1,0-0.2,0-0.3,0.1c0,0-0.1,0.1-0.1,0.1v-3.1
									c0,0,0-0.1,0.1-0.1c0.1,0,0.2-0.1,0.3-0.1C68.4,33.2,68.5,33.2,68.6,33.3"/>
								<path class="st9" d="M67.9,33.4v3.1c0,0,0,0,0,0L67.9,33.4C67.9,33.4,67.9,33.4,67.9,33.4"/>
								<path class="st9" d="M67.9,33.4v3.1c0,0,0,0,0,0L67.9,33.4C67.9,33.4,67.9,33.4,67.9,33.4"/>
								<path class="st9" d="M67.9,33.4v3.1c0,0,0,0,0,0L67.9,33.4C67.9,33.4,67.9,33.4,67.9,33.4"/>
							</g>
						</g>
						<polygon class="st9" points="69.7,33.8 69.7,36.9 68.6,36.4 68.6,33.3 						"/>
						<polygon class="st4" points="70.7,33.3 70.7,36.4 69.7,36.9 69.7,33.8 						"/>
						<polygon class="st9" points="65.9,34 65.9,37.1 65.7,35.5 65.7,32.3 						"/>
						<g>
							<path class="st4" d="M64.8,33.9V37c0,0,0,0.1-0.1,0.1c-0.1,0-0.1,0.1-0.2,0.1c-0.9,0-2.5,0.1-4.3,0.1c-2,0-4.2,0-6-0.2
								c-1.7-0.2-2.8-0.3-3.9-0.6c-1.3-0.3-2.3-0.7-3.3-1.1c-1.5-0.7-2.7-1.7-3.3-2.7c-0.3-0.6-0.5-1.2-0.5-1.8v-3.1
								c0,0.6,0.2,1.2,0.5,1.8c0.6,1.1,1.7,2,3.3,2.7c1,0.5,2.1,0.8,3.3,1.1c1,0.2,2.2,0.4,3.9,0.6c1.8,0.2,4,0.2,6,0.2
								c1.8,0,3.4,0,4.3-0.1c0.1,0,0.2,0,0.2-0.1C64.8,34,64.8,34,64.8,33.9z"/>
							<g class="st6">
								<path class="st4" d="M64.8,33.9V37c0,0,0,0,0,0L64.8,33.9C64.8,33.9,64.8,33.9,64.8,33.9"/>
								<path class="st4" d="M64.8,33.9V37c0,0,0,0,0,0L64.8,33.9C64.8,33.9,64.8,33.9,64.8,33.9"/>
								<path class="st4" d="M64.8,33.9v3.1c0,0,0,0,0,0L64.8,33.9C64.8,34,64.8,34,64.8,33.9"/>
								<path class="st4" d="M64.8,34v3.1c0,0,0,0-0.1,0.1c-0.1,0-0.1,0.1-0.2,0.1c-0.9,0-2.5,0.1-4.3,0.1c-2,0-4.2,0-6-0.2
									c-1.7-0.2-2.8-0.3-3.9-0.6c-1.3-0.3-2.3-0.7-3.3-1.1c-1.5-0.7-2.7-1.7-3.3-2.7c-0.3-0.6-0.5-1.2-0.5-1.8v-3.1
									c0,0.6,0.2,1.2,0.5,1.8c0.6,1.1,1.7,2,3.3,2.7c1,0.5,2.1,0.8,3.3,1.1c1,0.2,2.2,0.4,3.9,0.6c1.8,0.2,4,0.2,6,0.2
									c1.8,0,3.4,0,4.3-0.1C64.6,34.1,64.7,34.1,64.8,34C64.8,34,64.8,34,64.8,34"/>
							</g>
						</g>
						<polygon class="st4" points="66.6,34.1 66.6,37.2 66.4,37.3 66.4,34.2 						"/>
						<g>
							<path class="st4" d="M66.4,34.2v3.1c-0.1,0-0.1,0-0.2,0v-3.1C66.3,34.2,66.3,34.2,66.4,34.2z"/>
							<path class="st4" d="M66.4,34.2v3.1c-0.1,0-0.1,0-0.2,0v-3.1C66.3,34.2,66.3,34.2,66.4,34.2"/>
						</g>
						<g>
							<path class="st4" d="M66.2,34.2v3.1c-0.2,0-0.3-0.1-0.3-0.2V34C65.9,34.1,66,34.2,66.2,34.2z"/>
							<path class="st4" d="M66.2,34.2v3.1c-0.2,0-0.3-0.1-0.3-0.2V34C65.9,34.1,66,34.2,66.2,34.2"/>
						</g>
						<polygon class="st4" points="69.1,34.1 69.1,37.2 68.2,37.7 68.2,34.6 						"/>
						<polygon class="st4" points="67.7,34.6 67.7,37.7 66.6,37.2 66.6,34.1 						"/>
						<g class="st6">
							<path class="st25" d="M68.2,34.6v3.1c-0.1,0-0.2,0.1-0.2,0.1c-0.1,0-0.2,0-0.2,0v-3.1c0.1,0,0.1,0,0.2,0
								C68,34.7,68.1,34.7,68.2,34.6z"/>
							<path class="st4" d="M68.2,34.6v3.1c-0.1,0-0.2,0.1-0.2,0.1c-0.1,0-0.2,0-0.2,0v-3.1c0.1,0,0.1,0,0.2,0
								C68,34.7,68.1,34.7,68.2,34.6"/>
						</g>
					</g>
					<g>
						<path class="st5" d="M56.2,22.8c0.7,0,1.4,0,2.1,0.1c1.3,0.1,2.9,0.5,3.9,1c1.5,0.7,2.3,1.4,2.9,2.5c0.6,1.2,0.8,2.6,0.8,4
							c0,0.1,0,0.2,0,0.3c0,0.1,0,0.2,0,0.4c0,0,0,0,0,0.1c0,0-0.1,0-0.1,0c-0.1,0-0.2,0-0.2-0.1c-0.8-2.1-2.7-3.8-6-5.4
							c-1.4-0.7-3.2-1.2-5.1-1.4C52.8,24,51.3,24,50.6,24c-0.1,0-0.1,0-0.2-0.1c0,0,0-0.1,0-0.1c1-0.4,2.3-0.7,3.5-0.9
							C54.7,22.9,55.4,22.8,56.2,22.8z"/>
						<path class="st5" d="M48.5,25C48.5,25,48.5,25,48.5,25c0.1,0,0.2,0,0.2,0.1c0.1,0.4,0.2,1.1,0.7,1.9c0.6,1,1.7,1.8,3.1,2.5
							c3.4,1.6,6.9,2.5,11,2.7c0.1,0,0.2,0,0.1,0.1c0,0,0,0,0,0.1c0,0-0.1,0-0.1,0c-0.2,0-0.5,0-0.7,0c-0.2,0-0.4,0-0.5,0
							c-1,0-2.1,0-3.1,0c-1.6,0-3.3,0-4.7-0.2c-2.2-0.2-3.7-0.6-5.1-1.3c-0.9-0.4-1.8-1.2-2.2-1.9c-0.4-0.8-0.5-1.5-0.2-2.2
							c0.2-0.6,0.8-1.3,1.5-1.8C48.4,25,48.5,25,48.5,25z"/>
						<path class="st5" d="M56.3,21c0.9,0,1.8,0,2.7,0.1c2.1,0.2,4,0.7,5.6,1.5c1,0.5,1.8,1,2.4,1.6c0.5,0.5,1,1.1,1.4,1.9
							c0.4,0.7,0.6,1.7,0.8,2.8c0.1,1,0.2,1.9,0.2,2.4c0,0,0,0.1-0.1,0.1c-0.1,0-0.1,0.1-0.2,0.1l-2,0c-0.1,0-0.2,0-0.2,0
							c-0.1,0-0.1-0.1-0.1-0.1c0-0.9-0.2-3.7-0.8-5c-0.3-0.7-0.7-1.2-1.2-1.7c-0.5-0.5-1.1-0.9-1.9-1.2c-1.2-0.6-2.7-1-4.4-1.1
							c-0.7-0.1-1.5-0.1-2.2-0.1c-2.8,0-5.5,0.6-7.5,1.7c-2.6,1.4-3.5,3.3-2.4,5.1c0.5,0.8,1.3,1.6,2.5,2.1c0.8,0.4,1.6,0.6,2.5,0.9
							c0.9,0.2,2,0.4,3.3,0.5c1.2,0.1,3.1,0.1,4.9,0.1c2,0,3.9,0,4.8-0.1c0.1,0,0.2,0,0.2,0c0.1,0,0.1,0.1,0.1,0.1l0.1,1
							c0,0,0,0.1-0.1,0.1c-0.1,0-0.1,0.1-0.2,0.1c-0.9,0-2.5,0.1-4.3,0.1c-2,0-4.2,0-6-0.2c-1.7-0.2-2.8-0.3-3.9-0.6
							c-1.3-0.3-2.3-0.7-3.3-1.1c-1.5-0.7-2.7-1.7-3.3-2.7c-0.6-1.1-0.7-2.2-0.2-3.3c0.5-1.1,1.6-2.2,3.2-3.1
							c1.6-0.9,3.6-1.5,5.8-1.9C53.8,21.1,55,21,56.3,21z"/>
						<path class="st5" d="M69.4,32.1c0.2,0,0.3,0.1,0.3,0.2c0,0,0,0.1-0.1,0.1l-0.1,0.1l1.2,0.6c0.1,0.1,0.1,0.2,0,0.2l-0.9,0.5
							l-1.1-0.5c-0.1,0-0.2-0.1-0.3-0.1c-0.1,0-0.2,0-0.3,0.1c-0.2,0.1-0.1,0.2,0,0.3l1.1,0.5l-0.9,0.5c-0.1,0-0.2,0.1-0.2,0.1
							c-0.1,0-0.2,0-0.2,0l-1.2-0.6l-0.1,0.1c-0.1,0-0.1,0-0.2,0c-0.2,0-0.3-0.1-0.3-0.2l-0.1-1.7c0,0,0-0.1,0.1-0.1
							c0.1,0,0.1-0.1,0.2-0.1L69.4,32.1C69.4,32.1,69.4,32.1,69.4,32.1z"/>
					</g>
				</g>
			</g>
			<g>
				<path class="st1" d="M28.2,17.3v9.1c0,7.7,13.7,13.9,30.7,13.9s30.7-6.2,30.7-13.9v-9.1H28.2z"/>
				<ellipse class="st4" cx="58.9" cy="19" rx="29" ry="12.2"/>
				<g>
					<path class="st3" d="M78.4,28.1v9.1c2.1-0.8,4-1.7,5.6-2.8v-8.7h-0.6C82,26.6,80.3,27.4,78.4,28.1z"/>
					<path class="st3" d="M67.3,30.7v9.1c2-0.2,3.8-0.6,5.6-1v-9.1C71.1,30.1,69.2,30.5,67.3,30.7z"/>
				</g>
				<path class="st9" d="M42.6,7.8c9-5.2,23.7-5.2,32.6,0c4.5,2.6,6.7,5.9,6.7,9.3l0,3.1c0-3.4-2.2-6.8-6.7-9.3
					c-9-5.2-23.6-5.2-32.6,0c-4.5,2.6-6.8,6-6.8,9.5l0-3.1C35.8,13.8,38,10.4,42.6,7.8z"/>
				<path class="st5" d="M75.1,25.6c9.1-4.8,9.1-12.6,0.1-17.4c-9-4.8-23.7-4.8-32.7,0c-9.1,4.8-9.1,12.6-0.1,17.4
					C51.4,30.4,66.1,30.4,75.1,25.6 M80.6,5.3c11.9,6.4,11.9,16.8-0.1,23.1c-12,6.4-31.5,6.4-43.4,0C25.1,22,25.1,11.7,37.2,5.3
					C49.2-1.1,68.6-1.1,80.6,5.3z"/>
				<g>
					<g class="st6">
						<g>
							<path class="st4" d="M65.9,19.9V23c0,0,0,0,0,0.1c0,0-0.1,0-0.1,0v-3.1C65.8,19.9,65.9,19.9,65.9,19.9
								C65.9,19.9,65.9,19.9,65.9,19.9z"/>
							<g class="st6">
								<polyline class="st4" points="65.9,19.9 65.9,23 65.9,23 65.9,19.9 65.9,19.9 								"/>
								<polyline class="st4" points="65.9,19.9 65.9,23 65.9,23 65.9,19.9 65.9,19.9 								"/>
								<polyline class="st4" points="65.9,19.9 65.9,23 65.9,23 65.9,19.9 65.9,19.9 								"/>
								<path class="st26" d="M65.9,19.9V23c0,0,0,0,0,0c0,0-0.1,0-0.1,0v-3.1C65.8,19.9,65.9,19.9,65.9,19.9
									C65.9,19.9,65.9,19.9,65.9,19.9"/>
							</g>
						</g>
						<g>
							<path class="st27" d="M66.7,20.2v3.1c0-0.9-0.2-3.6-0.8-4.9c-0.3-0.7-0.7-1.2-1.2-1.7c-0.5-0.5-1.1-0.9-1.9-1.2
								c-1.2-0.6-2.7-1-4.4-1.1c-0.7-0.1-1.5-0.1-2.2-0.1c-2.8,0-5.5,0.6-7.5,1.7c-1.9,1-2.9,2.3-2.9,3.6v-3.1c0-1.3,1-2.6,2.9-3.6
								c2-1.1,4.7-1.7,7.5-1.7c0.7,0,1.5,0,2.2,0.1c1.7,0.2,3.2,0.6,4.4,1.1c0.8,0.4,1.4,0.8,1.9,1.2c0.5,0.5,0.9,1,1.2,1.7
								C66.6,16.6,66.7,19.3,66.7,20.2z"/>
							<g class="st6">
								<path class="st27" d="M66.7,20.2v3.1c0-0.9-0.2-3.6-0.8-4.9c-0.3-0.7-0.7-1.2-1.2-1.7c-0.5-0.5-1.1-0.9-1.9-1.2
									c-1.2-0.6-2.7-1-4.4-1.1c-0.7-0.1-1.5-0.1-2.2-0.1c-2.8,0-5.5,0.6-7.5,1.7c-1.1,0.6-1.9,1.3-2.4,2.1v-3.1
									c0.5-0.7,1.3-1.4,2.4-2.1c2-1.1,4.7-1.7,7.5-1.7c0.7,0,1.5,0,2.2,0.1c1.7,0.2,3.2,0.6,4.4,1.1c0.8,0.4,1.4,0.8,1.9,1.2
									c0.5,0.5,0.9,1,1.2,1.7C66.6,16.6,66.7,19.3,66.7,20.2"/>
								<path class="st27" d="M46.4,14.9V18c-0.1,0.2-0.2,0.4-0.3,0.6v-3.1C46.1,15.3,46.2,15.1,46.4,14.9"/>
								<path class="st27" d="M46.1,15.6v3.1C46,18.8,46,19,45.9,19.2V16C46,15.9,46,15.7,46.1,15.6"/>
								<path class="st27" d="M45.9,16v3.1c0,0.1,0,0.3,0,0.4v-3.1C45.9,16.3,45.9,16.2,45.9,16"/>
							</g>
						</g>
						<g class="st6">
							<path class="st25" d="M50.5,15.8l0-3.1c0,0,0,0,0,0c0,0,0.1,0.1,0.2,0.1c0.7,0,2.2,0,3.8,0.2c2,0.3,3.7,0.7,5.1,1.4
								c3.4,1.6,5.3,3.3,6,5.4c0,0,0.1,0.1,0.2,0.1v3.1c-0.1,0-0.2,0-0.2-0.1c-0.8-2.1-2.7-3.8-6-5.4c-1.4-0.7-3.2-1.2-5.1-1.4
								c-1.7-0.2-3.1-0.2-3.8-0.2C50.6,15.9,50.5,15.9,50.5,15.8C50.5,15.8,50.5,15.8,50.5,15.8z"/>
							<path class="st26" d="M65.8,19.9v3.1c-0.1,0-0.2,0-0.2-0.1c-0.8-2.1-2.7-3.8-6-5.4c-1.4-0.7-3.2-1.2-5.1-1.4
								c-1.7-0.2-3.1-0.2-3.8-0.2c-0.1,0-0.1,0-0.2-0.1c0,0,0,0,0,0v-3.1c0,0,0,0,0,0c0,0,0.1,0.1,0.2,0.1c0.7,0,2.2,0,3.8,0.2
								c2,0.3,3.7,0.7,5.1,1.4c3.4,1.6,5.3,3.3,6,5.4C65.6,19.9,65.7,19.9,65.8,19.9"/>
						</g>
						<g>
							<path class="st9" d="M69.4,20.2v3.1c0,0,0,0.1-0.1,0.1c-0.1,0-0.1,0.1-0.2,0.1v-3.1c0.1,0,0.2,0,0.2-0.1
								C69.3,20.3,69.4,20.3,69.4,20.2z"/>
							<g class="st6">
								<path class="st9" d="M69.4,20.2v3.1c0,0,0,0,0,0L69.4,20.2C69.4,20.3,69.4,20.2,69.4,20.2"/>
								<path class="st9" d="M69.4,20.3v3.1c0,0,0,0,0,0L69.4,20.3C69.4,20.3,69.4,20.3,69.4,20.3"/>
								<path class="st9" d="M69.4,20.3v3.1c0,0,0,0,0,0L69.4,20.3C69.4,20.3,69.4,20.3,69.4,20.3"/>
								<path class="st26" d="M69.4,20.3v3.1c0,0,0,0-0.1,0.1c-0.1,0-0.1,0.1-0.2,0.1v-3.1C69.1,20.4,69.2,20.4,69.4,20.3
									C69.3,20.3,69.3,20.3,69.4,20.3"/>
							</g>
						</g>
						<polygon class="st26" points="69,20.4 69,23.5 67.1,23.6 67.1,20.4 						"/>
						<g>
							<path class="st9" d="M67.1,20.4v3.1c-0.1,0-0.2,0-0.2,0c-0.1,0-0.1-0.1-0.1-0.1v-3.1c0,0,0,0.1,0.1,0.1
								C66.9,20.4,67,20.4,67.1,20.4z"/>
							<path class="st26" d="M67.1,20.4v3.1c-0.1,0-0.2,0-0.2,0c-0.1,0-0.1-0.1-0.1-0.1v-3.1c0,0,0,0.1,0.1,0.1
								C66.9,20.4,67,20.4,67.1,20.4"/>
						</g>
						<g>
							<path class="st27" d="M63.7,21.1v3.1c0,0,0,0,0,0c0,0,0,0,0,0.1L63.7,21.1C63.7,21.1,63.7,21.1,63.7,21.1
								C63.7,21.1,63.7,21.1,63.7,21.1z"/>
							<g class="st6">
								<polyline class="st27" points="63.7,21.1 63.7,24.2 63.7,24.2 63.7,24.2 63.7,21.1 63.7,21.1 63.7,21.1 								"/>
								<polyline class="st27" points="63.7,21.1 63.7,24.2 63.7,24.2 63.7,21.1 63.7,21.1 								"/>
								<polyline class="st27" points="63.7,21.1 63.7,24.2 63.7,24.2 63.7,21.1 63.7,21.1 								"/>
								<path class="st27" d="M63.7,21.1v3.1c0,0,0,0,0,0L63.7,21.1C63.7,21.1,63.7,21.1,63.7,21.1"/>
							</g>
						</g>
						<g class="st6">
							<polygon class="st25" points="65.7,24.3 65.7,21.1 65.7,21.2 65.7,24.3 							"/>
							<polyline class="st15" points="65.7,21.2 65.7,24.3 65.7,24.3 65.7,21.1 65.7,21.2 							"/>
						</g>
						<g class="st6">
							<path class="st25" d="M63.6,21.1v3.1c0,0-0.1,0-0.1,0v-3.1C63.6,21.2,63.6,21.2,63.6,21.1z"/>
							<path class="st27" d="M63.6,21.1v3.1c0,0-0.1,0-0.1,0v-3.1C63.6,21.2,63.6,21.2,63.6,21.1"/>
						</g>
						<g>
							<path class="st9" d="M69.7,21.1v3.1c0,0,0,0.1-0.1,0.1v-3.1C69.7,21.2,69.7,21.1,69.7,21.1z"/>
							<g class="st6">
								<path class="st9" d="M69.7,21.1v3.1c0,0,0,0,0,0L69.7,21.1C69.7,21.1,69.7,21.1,69.7,21.1"/>
								<path class="st9" d="M69.7,21.1v3.1c0,0,0,0,0,0L69.7,21.1C69.7,21.1,69.7,21.1,69.7,21.1"/>
								<path class="st9" d="M69.7,21.1v3.1c0,0,0,0,0,0L69.7,21.1C69.7,21.2,69.7,21.1,69.7,21.1"/>
								<path class="st9" d="M69.7,21.2v3.1c0,0,0,0-0.1,0L69.7,21.2C69.6,21.2,69.7,21.2,69.7,21.2"/>
							</g>
						</g>
						<g class="st6">
							<path class="st25" d="M46.8,19.6l0-3.1c0,0.4,0.1,0.9,0.4,1.4c0.4,0.7,1.3,1.5,2.2,1.9c1.5,0.7,2.9,1.1,5.1,1.3
								c1.4,0.1,3.1,0.2,4.7,0.2c1,0,2.1,0,3.1,0c0.2,0,0.4,0,0.5,0c0.2,0,0.5,0,0.7,0v3.1c-0.2,0-0.5,0-0.7,0c-0.2,0-0.4,0-0.5,0
								c-1,0-2.1,0-3.1,0c-1.6,0-3.3,0-4.7-0.2c-2.2-0.2-3.7-0.6-5.1-1.3c-0.9-0.4-1.8-1.2-2.2-1.9C46.9,20.5,46.8,20,46.8,19.6z"/>
							<path class="st27" d="M63.5,21.2v3.1c-0.2,0-0.5,0-0.7,0c-0.2,0-0.4,0-0.5,0c-1,0-2.1,0-3.1,0c-1.6,0-3.3,0-4.7-0.2
								c-2.2-0.2-3.7-0.6-5.1-1.3c-0.9-0.4-1.8-1.2-2.2-1.9c-0.3-0.5-0.4-0.9-0.4-1.4v-3.1c0,0.4,0.1,0.9,0.4,1.4
								c0.4,0.7,1.3,1.5,2.2,1.9c1.5,0.7,2.9,1.1,5.1,1.3c1.4,0.1,3.1,0.2,4.7,0.2c1,0,2.1,0,3.1,0c0.2,0,0.4,0,0.5,0
								C63.1,21.2,63.3,21.2,63.5,21.2"/>
						</g>
						<polygon class="st9" points="69.6,21.2 69.6,24.3 69.5,24.4 69.5,21.3 						"/>
						<g>
							<path class="st26" d="M70.8,22l0,3.1c0,0,0,0.1-0.1,0.1v-3.1C70.7,22,70.8,22,70.8,22z"/>
							<g class="st6">
								<path class="st26" d="M70.8,22v3.1c0,0,0,0,0,0L70.8,22C70.7,22,70.8,22,70.8,22"/>
								<path class="st26" d="M70.7,22v3.1c0,0,0,0,0,0L70.7,22C70.7,22,70.7,22,70.7,22"/>
								<path class="st26" d="M70.7,22v3.1c0,0,0,0,0,0L70.7,22C70.7,22,70.7,22,70.7,22"/>
								<path class="st26" d="M70.7,22v3.1c0,0,0,0-0.1,0.1L70.7,22C70.7,22.1,70.7,22,70.7,22"/>
							</g>
						</g>
						<g>
							<path class="st27" d="M67.9,25.3v-3.1c0-0.1,0-0.1,0.1-0.1c0.1,0,0.2-0.1,0.3-0.1c0.1,0,0.2,0,0.3,0.1v3.1
								c-0.1,0-0.2-0.1-0.3-0.1c-0.1,0-0.2,0-0.3,0.1C67.9,25.2,67.9,25.3,67.9,25.3z"/>
							<g class="st6">
								<path class="st27" d="M68.6,22.1v3.1c-0.1,0-0.2-0.1-0.3-0.1c-0.1,0-0.2,0-0.3,0.1c0,0-0.1,0.1-0.1,0.1v-3.1
									c0,0,0-0.1,0.1-0.1c0.1,0,0.2-0.1,0.3-0.1C68.4,22,68.5,22,68.6,22.1"/>
								<path class="st27" d="M67.9,22.2v3.1c0,0,0,0,0,0L67.9,22.2C67.9,22.2,67.9,22.2,67.9,22.2"/>
								<path class="st27" d="M67.9,22.2v3.1c0,0,0,0,0,0L67.9,22.2C67.9,22.2,67.9,22.2,67.9,22.2"/>
								<path class="st27" d="M67.9,22.2v3.1c0,0,0,0,0,0L67.9,22.2C67.9,22.2,67.9,22.2,67.9,22.2"/>
							</g>
						</g>
						<polygon class="st27" points="69.7,22.6 69.7,25.7 68.6,25.2 68.6,22.1 						"/>
						<polygon class="st26" points="70.7,22.1 70.7,25.2 69.7,25.7 69.7,22.6 						"/>
						<polygon class="st27" points="65.9,22.8 65.9,26 65.7,24.3 65.7,21.2 						"/>
						<g>
							<path class="st4" d="M64.8,22.7v3.1c0,0,0,0.1-0.1,0.1c-0.1,0-0.1,0.1-0.2,0.1c-0.9,0-2.5,0.1-4.3,0.1c-2,0-4.2,0-6-0.2
								c-1.7-0.2-2.8-0.3-3.9-0.6c-1.3-0.3-2.3-0.7-3.3-1.1c-1.5-0.7-2.7-1.7-3.3-2.7c-0.3-0.6-0.5-1.2-0.5-1.8v-3.1
								c0,0.6,0.2,1.2,0.5,1.8c0.6,1.1,1.7,2,3.3,2.7c1,0.5,2.1,0.8,3.3,1.1c1,0.2,2.2,0.4,3.9,0.6c1.8,0.2,4,0.2,6,0.2
								c1.8,0,3.4,0,4.3-0.1c0.1,0,0.2,0,0.2-0.1C64.8,22.8,64.8,22.8,64.8,22.7z"/>
							<g class="st6">
								<path class="st4" d="M64.8,22.7v3.1c0,0,0,0,0,0L64.8,22.7C64.8,22.7,64.8,22.7,64.8,22.7"/>
								<path class="st4" d="M64.8,22.7v3.1c0,0,0,0,0,0L64.8,22.7C64.8,22.7,64.8,22.7,64.8,22.7"/>
								<path class="st4" d="M64.8,22.8v3.1c0,0,0,0,0,0L64.8,22.8C64.8,22.8,64.8,22.8,64.8,22.8"/>
								<path class="st26" d="M64.8,22.8v3.1c0,0,0,0-0.1,0.1c-0.1,0-0.1,0.1-0.2,0.1c-0.9,0-2.5,0.1-4.3,0.1c-2,0-4.2,0-6-0.2
									c-1.7-0.2-2.8-0.3-3.9-0.6c-1.3-0.3-2.3-0.7-3.3-1.1c-1.5-0.7-2.7-1.7-3.3-2.7c-0.3-0.6-0.5-1.2-0.5-1.8v-3.1
									c0,0.6,0.2,1.2,0.5,1.8c0.6,1.1,1.7,2,3.3,2.7c1,0.5,2.1,0.8,3.3,1.1c1,0.2,2.2,0.4,3.9,0.6c1.8,0.2,4,0.2,6,0.2
									c1.8,0,3.4,0,4.3-0.1C64.6,22.9,64.7,22.9,64.8,22.8C64.8,22.8,64.8,22.8,64.8,22.8"/>
							</g>
						</g>
						<polygon class="st26" points="66.6,22.9 66.6,26 66.4,26.1 66.4,23 						"/>
						<g>
							<path class="st4" d="M66.4,23v3.1c-0.1,0-0.1,0-0.2,0V23C66.3,23,66.3,23,66.4,23z"/>
							<path class="st26" d="M66.4,23v3.1c-0.1,0-0.1,0-0.2,0V23C66.3,23,66.3,23,66.4,23"/>
						</g>
						<g>
							<path class="st4" d="M66.2,23v3.1c-0.2,0-0.3-0.1-0.3-0.2v-3.1C65.9,22.9,66,23,66.2,23z"/>
							<path class="st26" d="M66.2,23v3.1c-0.2,0-0.3-0.1-0.3-0.2v-3.1C65.9,22.9,66,23,66.2,23"/>
						</g>
						<polygon class="st26" points="69.1,22.9 69.1,26 68.2,26.5 68.2,23.4 						"/>
						<polygon class="st26" points="67.7,23.4 67.7,26.5 66.6,26 66.6,22.9 						"/>
						<g class="st6">
							<path class="st25" d="M68.2,23.4v3.1c-0.1,0-0.2,0.1-0.2,0.1c-0.1,0-0.2,0-0.2,0v-3.1c0.1,0,0.1,0,0.2,0
								C68,23.5,68.1,23.5,68.2,23.4z"/>
							<path class="st26" d="M68.2,23.4v3.1c-0.1,0-0.2,0.1-0.2,0.1c-0.1,0-0.2,0-0.2,0v-3.1c0.1,0,0.1,0,0.2,0
								C68,23.5,68.1,23.5,68.2,23.4"/>
						</g>
					</g>
					<g>
						<path class="st5" d="M56.2,11.6c0.7,0,1.4,0,2.1,0.1c1.3,0.1,2.9,0.5,3.9,1c1.5,0.7,2.3,1.4,2.9,2.5c0.6,1.2,0.8,2.6,0.8,4
							c0,0.1,0,0.2,0,0.3c0,0.1,0,0.2,0,0.4c0,0,0,0,0,0.1c0,0-0.1,0-0.1,0c-0.1,0-0.2,0-0.2-0.1c-0.8-2.1-2.7-3.8-6-5.4
							c-1.4-0.7-3.2-1.2-5.1-1.4c-1.7-0.2-3.1-0.2-3.8-0.2c-0.1,0-0.1,0-0.2-0.1c0,0,0-0.1,0-0.1c1-0.4,2.3-0.7,3.5-0.9
							C54.7,11.7,55.4,11.6,56.2,11.6z"/>
						<path class="st5" d="M48.5,13.8C48.5,13.8,48.5,13.8,48.5,13.8c0.1,0,0.2,0,0.2,0.1c0.1,0.4,0.2,1.1,0.7,1.9
							c0.6,1,1.7,1.8,3.1,2.5c3.4,1.6,6.9,2.5,11,2.7c0.1,0,0.2,0,0.1,0.1c0,0,0,0,0,0.1c0,0-0.1,0-0.1,0c-0.2,0-0.5,0-0.7,0
							c-0.2,0-0.4,0-0.5,0c-1,0-2.1,0-3.1,0c-1.6,0-3.3,0-4.7-0.2c-2.2-0.2-3.7-0.6-5.1-1.3c-0.9-0.4-1.8-1.2-2.2-1.9
							c-0.4-0.8-0.5-1.5-0.2-2.2c0.2-0.6,0.8-1.3,1.5-1.8C48.4,13.8,48.5,13.8,48.5,13.8z"/>
						<path class="st5" d="M56.3,9.8c0.9,0,1.8,0,2.7,0.1c2.1,0.2,4,0.7,5.6,1.5c1,0.5,1.8,1,2.4,1.6c0.5,0.5,1,1.1,1.4,1.9
							c0.4,0.7,0.6,1.7,0.8,2.8c0.1,1,0.2,1.9,0.2,2.4c0,0,0,0.1-0.1,0.1c-0.1,0-0.1,0.1-0.2,0.1l-2,0c-0.1,0-0.2,0-0.2,0
							c-0.1,0-0.1-0.1-0.1-0.1c0-0.9-0.2-3.7-0.8-5c-0.3-0.7-0.7-1.2-1.2-1.7c-0.5-0.5-1.1-0.9-1.9-1.2c-1.2-0.6-2.7-1-4.4-1.1
							c-0.7-0.1-1.5-0.1-2.2-0.1c-2.8,0-5.5,0.6-7.5,1.7c-2.6,1.4-3.5,3.3-2.4,5.1c0.5,0.8,1.3,1.6,2.5,2.1c0.8,0.4,1.6,0.6,2.5,0.9
							c0.9,0.2,2,0.4,3.3,0.5c1.2,0.1,3.1,0.1,4.9,0.1c2,0,3.9,0,4.8-0.1c0.1,0,0.2,0,0.2,0c0.1,0,0.1,0.1,0.1,0.1l0.1,1
							c0,0,0,0.1-0.1,0.1c-0.1,0-0.1,0.1-0.2,0.1c-0.9,0-2.5,0.1-4.3,0.1c-2,0-4.2,0-6-0.2c-1.7-0.2-2.8-0.3-3.9-0.6
							c-1.3-0.3-2.3-0.7-3.3-1.1c-1.5-0.7-2.7-1.7-3.3-2.7c-0.6-1.1-0.7-2.2-0.2-3.3c0.5-1.1,1.6-2.2,3.2-3.1
							c1.6-0.9,3.6-1.5,5.8-1.9C53.8,9.9,55,9.8,56.3,9.8z"/>
						<path class="st5" d="M69.4,20.9c0.2,0,0.3,0.1,0.3,0.2c0,0,0,0.1-0.1,0.1l-0.1,0.1l1.2,0.6c0.1,0.1,0.1,0.2,0,0.2l-0.9,0.5
							l-1.1-0.5c-0.1,0-0.2-0.1-0.3-0.1c-0.1,0-0.2,0-0.3,0.1c-0.2,0.1-0.1,0.2,0,0.3l1.1,0.5l-0.9,0.5c-0.1,0-0.2,0.1-0.2,0.1
							c-0.1,0-0.2,0-0.2,0l-1.2-0.6L66.4,23c-0.1,0-0.1,0-0.2,0c-0.2,0-0.3-0.1-0.3-0.2l-0.1-1.7c0,0,0-0.1,0.1-0.1
							C65.9,21,66,21,66,21L69.4,20.9C69.4,20.9,69.4,20.9,69.4,20.9z"/>
					</g>
				</g>
			</g>
		</g>
	</g>
	<g>
		<path class="st1" d="M0.6,50.5v9.1c0,7.7,13.7,13.9,30.7,13.9s30.7-6.2,30.7-13.9v-9.1H0.6z"/>
		<ellipse class="st4" cx="31.3" cy="52.2" rx="29" ry="12.2"/>
		<g>
			<path class="st3" d="M50.8,61.3v9.1c2.1-0.8,4-1.7,5.6-2.8v-8.7h-0.6C54.4,59.8,52.7,60.6,50.8,61.3z"/>
			<path class="st3" d="M39.7,63.9V73c2-0.2,3.8-0.6,5.6-1v-9.1C43.5,63.3,41.6,63.7,39.7,63.9z"/>
		</g>
		<path class="st9" d="M15,41c9-5.2,23.7-5.2,32.6,0c4.5,2.6,6.7,5.9,6.7,9.3l0,3.1c0-3.4-2.2-6.8-6.7-9.3c-9-5.2-23.6-5.2-32.6,0
			c-4.5,2.6-6.8,6-6.8,9.5l0-3.1C8.2,47,10.4,43.6,15,41z"/>
		<path class="st5" d="M47.5,58.8c9.1-4.8,9.1-12.6,0.1-17.4c-9-4.8-23.7-4.8-32.7,0C5.8,46.1,5.8,54,14.8,58.8
			C23.8,63.6,38.4,63.6,47.5,58.8 M53,38.5c11.9,6.4,11.9,16.8-0.1,23.1c-12,6.4-31.5,6.4-43.4,0C-2.5,55.2-2.5,44.9,9.5,38.5
			C21.6,32.1,41,32.1,53,38.5z"/>
		<g>
			<g class="st6">
				<g>
					<defs>
						<path id="SVGID_00000125596406057633804210000006378574732111222421_" d="M38.3,53.1v3.1c0,0,0,0,0,0.1c0,0-0.1,0-0.1,0v-3.1
							C38.2,53.1,38.2,53.1,38.3,53.1C38.3,53.1,38.3,53.1,38.3,53.1z"/>
					</defs>
					<use xlink:href="#SVGID_00000125596406057633804210000006378574732111222421_"  style="overflow:visible;fill:#E5BA03;"/>
					<clipPath id="SVGID_00000092449947250487360760000006888682379169922718_">
						<use xlink:href="#SVGID_00000125596406057633804210000006378574732111222421_"  style="overflow:visible;"/>
					</clipPath>
					<g style="clip-path:url(#SVGID_00000092449947250487360760000006888682379169922718_);enable-background:new    ;">
						<polyline class="st26" points="38.3,53.1 38.3,56.2 38.3,56.2 38.3,53.1 38.3,53.1 						"/>
						<polyline class="st26" points="38.3,53.1 38.3,56.2 38.3,56.2 38.3,53.1 38.3,53.1 						"/>
						<polyline class="st26" points="38.3,53.1 38.3,56.2 38.3,56.2 38.3,53.1 38.3,53.1 						"/>
						<path class="st26" d="M38.3,53.1v3.1c0,0,0,0,0,0c0,0-0.1,0-0.1,0v-3.1C38.2,53.1,38.2,53.1,38.3,53.1
							C38.3,53.1,38.3,53.1,38.3,53.1"/>
					</g>
				</g>
				<g class="st6">
					<defs>
						<path id="SVGID_00000158029442912881410760000011468610160032412079_" class="st6" d="M39.1,53.4v3.1c0-0.9-0.2-3.6-0.8-4.9
							c-0.3-0.7-0.7-1.2-1.2-1.7c-0.5-0.5-1.1-0.9-1.9-1.2c-1.2-0.6-2.7-1-4.4-1.1c-0.7-0.1-1.5-0.1-2.2-0.1c-2.8,0-5.5,0.6-7.5,1.7
							c-1.9,1-2.9,2.3-2.9,3.6v-3.1c0-1.3,1-2.6,2.9-3.6c2-1.1,4.7-1.7,7.5-1.7c0.7,0,1.5,0,2.2,0.1c1.7,0.2,3.2,0.6,4.4,1.1
							c0.8,0.4,1.4,0.8,1.9,1.2c0.5,0.5,0.9,1,1.2,1.7C38.9,49.8,39.1,52.5,39.1,53.4z"/>
					</defs>
					<clipPath id="SVGID_00000142133989111704014060000012167048441164640897_">
						<use xlink:href="#SVGID_00000158029442912881410760000011468610160032412079_"  style="overflow:visible;"/>
					</clipPath>
					<g style="clip-path:url(#SVGID_00000142133989111704014060000012167048441164640897_);enable-background:new    ;">
						<path class="st27" d="M39.1,53.4v3.1c0-0.9-0.2-3.6-0.8-4.9c-0.3-0.7-0.7-1.2-1.2-1.7c-0.5-0.5-1.1-0.9-1.9-1.2
							c-1.2-0.6-2.7-1-4.4-1.1c-0.7-0.1-1.5-0.1-2.2-0.1c-2.8,0-5.5,0.6-7.5,1.7c-1.1,0.6-1.9,1.3-2.4,2.1v-3.1
							c0.5-0.7,1.3-1.4,2.4-2.1c2-1.1,4.7-1.7,7.5-1.7c0.7,0,1.5,0,2.2,0.1c1.7,0.2,3.2,0.6,4.4,1.1c0.8,0.4,1.4,0.8,1.9,1.2
							c0.5,0.5,0.9,1,1.2,1.7C38.9,49.8,39.1,52.5,39.1,53.4"/>
						<path class="st27" d="M18.7,48.1v3.1c-0.1,0.2-0.2,0.4-0.3,0.6v-3.1C18.5,48.5,18.6,48.3,18.7,48.1"/>
						<path class="st27" d="M18.4,48.8v3.1c-0.1,0.2-0.1,0.3-0.1,0.5v-3.1C18.3,49.1,18.4,48.9,18.4,48.8"/>
						<path class="st27" d="M18.3,49.3v3.1c0,0.1,0,0.3,0,0.4v-3.1C18.3,49.5,18.3,49.4,18.3,49.3"/>
					</g>
				</g>
				<g class="st6">
					<defs>
						<path id="SVGID_00000015342597942942381010000001716897301682710149_" class="st6" d="M22.8,49l0-3.1c0,0,0,0,0,0
							c0,0,0.1,0.1,0.2,0.1c0.7,0,2.2,0,3.8,0.2c2,0.3,3.7,0.7,5.1,1.4c3.4,1.6,5.3,3.3,6,5.4c0,0,0.1,0.1,0.2,0.1v3.1
							c-0.1,0-0.2,0-0.2-0.1c-0.8-2.1-2.7-3.8-6-5.4c-1.4-0.7-3.2-1.2-5.1-1.4c-1.7-0.2-3.1-0.2-3.8-0.2
							C22.9,49.1,22.9,49.1,22.8,49C22.9,49,22.8,49,22.8,49z"/>
					</defs>
					<clipPath id="SVGID_00000013160240016217934720000013693904833199399077_">
						<use xlink:href="#SVGID_00000015342597942942381010000001716897301682710149_"  style="overflow:visible;"/>
					</clipPath>
					<g style="clip-path:url(#SVGID_00000013160240016217934720000013693904833199399077_);">
						<path class="st26" d="M38.2,53.2v3.1c-0.1,0-0.2,0-0.2-0.1c-0.8-2.1-2.7-3.8-6-5.4c-1.4-0.7-3.2-1.2-5.1-1.4
							c-1.7-0.2-3.1-0.2-3.8-0.2c-0.1,0-0.1,0-0.2-0.1c0,0,0,0,0,0v-3.1c0,0,0,0,0,0c0,0,0.1,0.1,0.2,0.1c0.7,0,2.2,0,3.8,0.2
							c2,0.3,3.7,0.7,5.1,1.4c3.4,1.6,5.3,3.3,6,5.4C38,53.1,38.1,53.2,38.2,53.2"/>
					</g>
				</g>
				<g>
					<defs>
						<path id="SVGID_00000180349532654227668070000000884989204132669592_" d="M41.8,53.4v3.1c0,0,0,0.1-0.1,0.1
							c-0.1,0-0.1,0.1-0.2,0.1v-3.1c0.1,0,0.2,0,0.2-0.1C41.7,53.5,41.8,53.5,41.8,53.4z"/>
					</defs>
					<use xlink:href="#SVGID_00000180349532654227668070000000884989204132669592_"  style="overflow:visible;fill:#EEBF00;"/>
					<clipPath id="SVGID_00000152256911956749338770000007732303738718030475_">
						<use xlink:href="#SVGID_00000180349532654227668070000000884989204132669592_"  style="overflow:visible;"/>
					</clipPath>
					<g style="clip-path:url(#SVGID_00000152256911956749338770000007732303738718030475_);enable-background:new    ;">
						<path class="st9" d="M41.8,53.4v3.1c0,0,0,0,0,0L41.8,53.4C41.8,53.5,41.8,53.4,41.8,53.4"/>
						<path class="st9" d="M41.8,53.5v3.1c0,0,0,0,0,0L41.8,53.5C41.8,53.5,41.8,53.5,41.8,53.5"/>
						<path class="st9" d="M41.8,53.5v3.1c0,0,0,0,0,0L41.8,53.5C41.7,53.5,41.7,53.5,41.8,53.5"/>
						<path class="st26" d="M41.7,53.5v3.1c0,0,0,0-0.1,0.1c-0.1,0-0.1,0.1-0.2,0.1v-3.1C41.5,53.6,41.6,53.6,41.7,53.5
							C41.7,53.5,41.7,53.5,41.7,53.5"/>
					</g>
				</g>
				<g>
					<polygon class="st26" points="41.4,53.6 41.4,56.7 39.5,56.8 39.5,53.6 					"/>
				</g>
				<g>
					<defs>
						<path id="SVGID_00000147191524524756022670000007053680707895477904_" d="M39.5,53.6v3.1c-0.1,0-0.2,0-0.2,0
							c-0.1,0-0.1-0.1-0.1-0.1v-3.1c0,0,0,0.1,0.1,0.1C39.3,53.6,39.4,53.6,39.5,53.6z"/>
					</defs>
					<use xlink:href="#SVGID_00000147191524524756022670000007053680707895477904_"  style="overflow:visible;fill:#EEBF00;"/>
					<clipPath id="SVGID_00000062173924577468835460000002875323585563443620_">
						<use xlink:href="#SVGID_00000147191524524756022670000007053680707895477904_"  style="overflow:visible;"/>
					</clipPath>
					<g style="clip-path:url(#SVGID_00000062173924577468835460000002875323585563443620_);">
						<path class="st26" d="M39.5,53.6v3.1c-0.1,0-0.2,0-0.2,0c-0.1,0-0.1-0.1-0.1-0.1v-3.1c0,0,0,0.1,0.1,0.1
							C39.3,53.6,39.4,53.6,39.5,53.6"/>
					</g>
				</g>
				<g>
					<defs>
						<path id="SVGID_00000087393581133177012490000009575297224650319500_" d="M36.1,54.3v3.1c0,0,0,0,0,0c0,0,0,0,0,0.1L36.1,54.3
							C36.1,54.3,36.1,54.3,36.1,54.3C36.1,54.3,36.1,54.3,36.1,54.3z"/>
					</defs>
					<use xlink:href="#SVGID_00000087393581133177012490000009575297224650319500_"  style="overflow:visible;fill:#CEA705;"/>
					<clipPath id="SVGID_00000062157400029841784460000000977574590549337534_">
						<use xlink:href="#SVGID_00000087393581133177012490000009575297224650319500_"  style="overflow:visible;"/>
					</clipPath>
					<g style="clip-path:url(#SVGID_00000062157400029841784460000000977574590549337534_);enable-background:new    ;">
						<polyline class="st27" points="36.1,54.3 36.1,57.4 36.1,57.4 36.1,57.4 36.1,54.3 36.1,54.3 36.1,54.3 						"/>
						<polyline class="st27" points="36.1,54.3 36.1,57.4 36.1,57.4 36.1,54.3 36.1,54.3 						"/>
						<polyline class="st27" points="36.1,54.3 36.1,57.4 36.1,57.4 36.1,54.3 36.1,54.3 						"/>
						<path class="st27" d="M36.1,54.3v3.1c0,0,0,0,0,0L36.1,54.3C36.1,54.3,36.1,54.3,36.1,54.3"/>
					</g>
				</g>
				<g class="st6">
					<defs>
						<polygon id="SVGID_00000006672550440296981880000009585405202369202097_" class="st6" points="38.1,57.5 38.1,54.4 38.1,54.4 
							38.1,57.5 						"/>
					</defs>
					<clipPath id="SVGID_00000043454371000650201240000017757643279403010946_">
						<use xlink:href="#SVGID_00000006672550440296981880000009585405202369202097_"  style="overflow:visible;"/>
					</clipPath>
					<g style="clip-path:url(#SVGID_00000043454371000650201240000017757643279403010946_);enable-background:new    ;">
						<polyline class="st15" points="38.1,54.4 38.1,57.5 38.1,57.5 38.1,54.4 38.1,54.4 						"/>
					</g>
				</g>
				<g class="st6">
					<defs>
						<path id="SVGID_00000101809582305417177500000017799914246415178926_" class="st6" d="M36,54.4v3.1c0,0-0.1,0-0.1,0v-3.1
							C36,54.4,36,54.4,36,54.4z"/>
					</defs>
					<clipPath id="SVGID_00000111909357961554273920000010560260737075908766_">
						<use xlink:href="#SVGID_00000101809582305417177500000017799914246415178926_"  style="overflow:visible;"/>
					</clipPath>
					<g style="clip-path:url(#SVGID_00000111909357961554273920000010560260737075908766_);">
						<path class="st27" d="M36,54.4v3.1c0,0-0.1,0-0.1,0v-3.1C36,54.4,36,54.4,36,54.4"/>
					</g>
				</g>
				<g>
					<defs>
						<path id="SVGID_00000160150875053044099070000000026297631631167160_" d="M42.1,54.3v3.1c0,0,0,0.1-0.1,0.1v-3.1
							C42.1,54.4,42.1,54.3,42.1,54.3z"/>
					</defs>
					<use xlink:href="#SVGID_00000160150875053044099070000000026297631631167160_"  style="overflow:visible;fill:#CEA705;"/>
					<clipPath id="SVGID_00000113311976539927448320000017231002204868743562_">
						<use xlink:href="#SVGID_00000160150875053044099070000000026297631631167160_"  style="overflow:visible;"/>
					</clipPath>
					<g style="clip-path:url(#SVGID_00000113311976539927448320000017231002204868743562_);enable-background:new    ;">
						<path class="st27" d="M42.1,54.3v3.1c0,0,0,0,0,0L42.1,54.3C42.1,54.3,42.1,54.3,42.1,54.3"/>
						<path class="st27" d="M42.1,54.3v3.1c0,0,0,0,0,0L42.1,54.3C42.1,54.3,42.1,54.3,42.1,54.3"/>
						<path class="st27" d="M42.1,54.3v3.1c0,0,0,0,0,0L42.1,54.3C42.1,54.4,42.1,54.3,42.1,54.3"/>
						<path class="st27" d="M42.1,54.4v3.1c0,0,0,0-0.1,0L42.1,54.4C42,54.4,42.1,54.4,42.1,54.4"/>
					</g>
				</g>
				<g class="st6">
					<defs>
						<path id="SVGID_00000155857525895281784870000017231353185025132958_" class="st6" d="M19.1,52.8v-3.1c0,0.4,0.1,0.9,0.4,1.4
							c0.4,0.7,1.3,1.5,2.2,1.9c1.5,0.7,2.9,1.1,5.1,1.3c1.4,0.1,3.1,0.2,4.7,0.2c1,0,2.1,0,3.1,0c0.2,0,0.4,0,0.5,0
							c0.2,0,0.5,0,0.7,0v3.1c-0.2,0-0.5,0-0.7,0c-0.2,0-0.4,0-0.5,0c-1,0-2.1,0-3.1,0c-1.6,0-3.3,0-4.7-0.2
							c-2.2-0.2-3.7-0.6-5.1-1.3c-0.9-0.4-1.8-1.2-2.2-1.9C19.3,53.7,19.1,53.2,19.1,52.8z"/>
					</defs>
					<clipPath id="SVGID_00000158740287061975846870000016050684882301925812_">
						<use xlink:href="#SVGID_00000155857525895281784870000017231353185025132958_"  style="overflow:visible;"/>
					</clipPath>
					<g style="clip-path:url(#SVGID_00000158740287061975846870000016050684882301925812_);">
						<path class="st27" d="M35.9,54.4v3.1c-0.2,0-0.5,0-0.7,0c-0.2,0-0.4,0-0.5,0c-1,0-2.1,0-3.1,0c-1.6,0-3.3,0-4.7-0.2
							c-2.2-0.2-3.7-0.6-5.1-1.3c-0.9-0.4-1.8-1.2-2.2-1.9c-0.3-0.5-0.4-0.9-0.4-1.4v-3.1c0,0.4,0.1,0.9,0.4,1.4
							c0.4,0.7,1.3,1.5,2.2,1.9c1.5,0.7,2.9,1.1,5.1,1.3c1.4,0.1,3.1,0.2,4.7,0.2c1,0,2.1,0,3.1,0c0.2,0,0.4,0,0.5,0
							C35.4,54.4,35.7,54.4,35.9,54.4"/>
					</g>
				</g>
				<g>
					<polygon class="st27" points="42,54.4 42,57.5 41.9,57.6 41.9,54.5 					"/>
				</g>
				<g>
					<defs>
						<path id="SVGID_00000119797969544406349900000010015517134971562926_" d="M43.1,55.2v3.1c0,0,0,0.1-0.1,0.1v-3.1
							C43.1,55.2,43.1,55.2,43.1,55.2z"/>
					</defs>
					<use xlink:href="#SVGID_00000119797969544406349900000010015517134971562926_"  style="overflow:visible;fill:#E5BA03;"/>
					<clipPath id="SVGID_00000183931776314404529530000010315870382312046480_">
						<use xlink:href="#SVGID_00000119797969544406349900000010015517134971562926_"  style="overflow:visible;"/>
					</clipPath>
					<g style="clip-path:url(#SVGID_00000183931776314404529530000010315870382312046480_);enable-background:new    ;">
						<path class="st26" d="M43.1,55.2v3.1c0,0,0,0,0,0L43.1,55.2C43.1,55.2,43.1,55.2,43.1,55.2"/>
						<path class="st26" d="M43.1,55.2v3.1c0,0,0,0,0,0L43.1,55.2C43.1,55.2,43.1,55.2,43.1,55.2"/>
						<path class="st26" d="M43.1,55.2v3.1c0,0,0,0,0,0L43.1,55.2C43.1,55.2,43.1,55.2,43.1,55.2"/>
						<path class="st26" d="M43.1,55.2v3.1c0,0,0,0-0.1,0.1L43.1,55.2C43.1,55.3,43.1,55.2,43.1,55.2"/>
					</g>
				</g>
				<g>
					<defs>
						<path id="SVGID_00000122680132897819040840000007751147920220421050_" d="M40.3,58.5v-3.1c0-0.1,0-0.1,0.1-0.1
							c0.1,0,0.2-0.1,0.3-0.1c0.1,0,0.2,0,0.3,0.1v3.1c-0.1,0-0.2-0.1-0.3-0.1c-0.1,0-0.2,0-0.3,0.1C40.3,58.4,40.3,58.5,40.3,58.5z
							"/>
					</defs>
					<use xlink:href="#SVGID_00000122680132897819040840000007751147920220421050_"  style="overflow:visible;fill:#CEA705;"/>
					<clipPath id="SVGID_00000075884161896703488370000012848214999449366153_">
						<use xlink:href="#SVGID_00000122680132897819040840000007751147920220421050_"  style="overflow:visible;"/>
					</clipPath>
					<g style="clip-path:url(#SVGID_00000075884161896703488370000012848214999449366153_);enable-background:new    ;">
						<path class="st27" d="M41,55.3v3.1c-0.1,0-0.2-0.1-0.3-0.1c-0.1,0-0.2,0-0.3,0.1c0,0-0.1,0.1-0.1,0.1v-3.1c0,0,0-0.1,0.1-0.1
							c0.1,0,0.2-0.1,0.3-0.1C40.8,55.2,40.9,55.2,41,55.3"/>
						<path class="st27" d="M40.3,55.4v3.1c0,0,0,0,0,0L40.3,55.4C40.3,55.4,40.3,55.4,40.3,55.4"/>
						<path class="st27" d="M40.3,55.4v3.1c0,0,0,0,0,0L40.3,55.4C40.3,55.4,40.3,55.4,40.3,55.4"/>
						<path class="st27" d="M40.3,55.4v3.1c0,0,0,0,0,0L40.3,55.4C40.3,55.4,40.3,55.4,40.3,55.4"/>
					</g>
				</g>
				<g>
					<polygon class="st27" points="42.1,55.8 42.1,58.9 41,58.4 41,55.3 					"/>
				</g>
				<g>
					<polygon class="st26" points="43.1,55.3 43.1,58.4 42.1,58.9 42.1,55.8 					"/>
				</g>
				<g>
					<polygon class="st27" points="38.2,56 38.2,59.2 38.1,57.5 38.1,54.4 					"/>
				</g>
				<g>
					<defs>
						<path id="SVGID_00000112613290625380830790000014684424697770694558_" d="M37.2,55.9l0,3.1c0,0,0,0.1-0.1,0.1
							c-0.1,0-0.1,0.1-0.2,0.1c-0.9,0-2.5,0.1-4.3,0.1c-2,0-4.2,0-6-0.2c-1.7-0.2-2.8-0.3-3.9-0.6c-1.3-0.3-2.3-0.7-3.3-1.1
							c-1.5-0.7-2.7-1.7-3.3-2.7c-0.3-0.6-0.5-1.2-0.5-1.8l0-3.1c0,0.6,0.2,1.2,0.5,1.8c0.6,1.1,1.7,2,3.3,2.7
							c1,0.5,2.1,0.8,3.3,1.1c1,0.2,2.2,0.4,3.9,0.6c1.8,0.2,4,0.2,6,0.2c1.8,0,3.4,0,4.3-0.1c0.1,0,0.2,0,0.2-0.1
							C37.2,56,37.2,56,37.2,55.9z"/>
					</defs>
					<use xlink:href="#SVGID_00000112613290625380830790000014684424697770694558_"  style="overflow:visible;fill:#FECE00;"/>
					<clipPath id="SVGID_00000136413892972325730160000004523664259894946191_">
						<use xlink:href="#SVGID_00000112613290625380830790000014684424697770694558_"  style="overflow:visible;"/>
					</clipPath>
					<g style="clip-path:url(#SVGID_00000136413892972325730160000004523664259894946191_);enable-background:new    ;">
						<path class="st4" d="M37.2,55.9V59c0,0,0,0,0,0L37.2,55.9C37.2,55.9,37.2,55.9,37.2,55.9"/>
						<path class="st4" d="M37.2,55.9V59c0,0,0,0,0,0L37.2,55.9C37.2,55.9,37.2,55.9,37.2,55.9"/>
						<path class="st4" d="M37.2,56v3.1c0,0,0,0,0,0L37.2,56C37.2,56,37.2,56,37.2,56"/>
						<path class="st26" d="M37.2,56v3.1c0,0,0,0-0.1,0.1c-0.1,0-0.1,0.1-0.2,0.1c-0.9,0-2.5,0.1-4.3,0.1c-2,0-4.2,0-6-0.2
							c-1.7-0.2-2.8-0.3-3.9-0.6c-1.3-0.3-2.3-0.7-3.3-1.1c-1.5-0.7-2.7-1.7-3.3-2.7c-0.3-0.6-0.5-1.2-0.5-1.8v-3.1
							c0,0.6,0.2,1.2,0.5,1.8c0.6,1.1,1.7,2,3.3,2.7c1,0.5,2.1,0.8,3.3,1.1c1,0.2,2.2,0.4,3.9,0.6c1.8,0.2,4,0.2,6,0.2
							c1.8,0,3.4,0,4.3-0.1C37,56.1,37.1,56.1,37.2,56C37.2,56,37.2,56,37.2,56"/>
					</g>
				</g>
				<g>
					<polygon class="st26" points="38.9,56.1 38.9,59.2 38.8,59.3 38.8,56.2 					"/>
				</g>
				<g>
					<defs>
						<path id="SVGID_00000042727813589948379570000009702281118986113187_" d="M38.8,56.2v3.1c-0.1,0-0.1,0-0.2,0v-3.1
							C38.7,56.2,38.7,56.2,38.8,56.2z"/>
					</defs>
					<use xlink:href="#SVGID_00000042727813589948379570000009702281118986113187_"  style="overflow:visible;fill:#FECE00;"/>
					<clipPath id="SVGID_00000161591865160488268220000017650380209837443976_">
						<use xlink:href="#SVGID_00000042727813589948379570000009702281118986113187_"  style="overflow:visible;"/>
					</clipPath>
					<g style="clip-path:url(#SVGID_00000161591865160488268220000017650380209837443976_);">
						<path class="st26" d="M38.8,56.2v3.1c-0.1,0-0.1,0-0.2,0v-3.1C38.7,56.2,38.7,56.2,38.8,56.2"/>
					</g>
				</g>
				<g>
					<defs>
						<path id="SVGID_00000000184006527113890840000012378102097673385135_" d="M38.6,56.2v3.1c-0.2,0-0.3-0.1-0.3-0.2V56
							C38.2,56.1,38.4,56.2,38.6,56.2z"/>
					</defs>
					<use xlink:href="#SVGID_00000000184006527113890840000012378102097673385135_"  style="overflow:visible;fill:#FECE00;"/>
					<clipPath id="SVGID_00000029035520492089991040000012392377663367868040_">
						<use xlink:href="#SVGID_00000000184006527113890840000012378102097673385135_"  style="overflow:visible;"/>
					</clipPath>
					<g style="clip-path:url(#SVGID_00000029035520492089991040000012392377663367868040_);">
						<path class="st26" d="M38.6,56.2v3.1c-0.2,0-0.3-0.1-0.3-0.2V56C38.2,56.1,38.4,56.2,38.6,56.2"/>
					</g>
				</g>
				<g>
					<polygon class="st26" points="41.5,56.1 41.5,59.2 40.6,59.7 40.6,56.6 					"/>
				</g>
				<g>
					<polygon class="st26" points="40.1,56.6 40.1,59.7 38.9,59.2 38.9,56.1 					"/>
				</g>
				<g class="st6">
					<defs>
						<path id="SVGID_00000078740813647725333230000010910599602651874197_" class="st6" d="M40.6,56.6v3.1c-0.1,0-0.2,0.1-0.2,0.1
							c-0.1,0-0.2,0-0.2,0v-3.1c0.1,0,0.1,0,0.2,0C40.4,56.7,40.5,56.7,40.6,56.6z"/>
					</defs>
					<clipPath id="SVGID_00000052796788053241514370000007350147825970687398_">
						<use xlink:href="#SVGID_00000078740813647725333230000010910599602651874197_"  style="overflow:visible;"/>
					</clipPath>
					<g style="clip-path:url(#SVGID_00000052796788053241514370000007350147825970687398_);">
						<path class="st26" d="M40.6,56.6v3.1c-0.1,0-0.2,0.1-0.2,0.1c-0.1,0-0.2,0-0.2,0v-3.1c0.1,0,0.1,0,0.2,0
							C40.4,56.7,40.5,56.7,40.6,56.6"/>
					</g>
				</g>
			</g>
			<g>
				<g>
					<path class="st5" d="M28.6,44.8c0.7,0,1.4,0,2.1,0.1c1.3,0.1,2.9,0.5,3.9,1c1.5,0.7,2.3,1.4,2.9,2.5c0.6,1.2,0.8,2.6,0.8,4
						c0,0.1,0,0.2,0,0.3c0,0.1,0,0.2,0,0.4c0,0,0,0,0,0.1c0,0-0.1,0-0.1,0c-0.1,0-0.2,0-0.2-0.1c-0.8-2.1-2.7-3.8-6-5.4
						c-1.4-0.7-3.2-1.2-5.1-1.4C25.2,46,23.7,46,23,46c-0.1,0-0.1,0-0.2-0.1c0,0,0-0.1,0-0.1c1-0.4,2.3-0.7,3.5-0.9
						C27.1,44.9,27.8,44.8,28.6,44.8z"/>
				</g>
				<g>
					<path class="st5" d="M20.9,47C20.9,47,20.9,47,20.9,47c0.1,0,0.2,0,0.2,0.1c0.1,0.4,0.2,1.1,0.7,1.9c0.6,1,1.7,1.8,3.1,2.5
						c3.4,1.6,6.9,2.5,11,2.7c0.1,0,0.2,0,0.1,0.1c0,0,0,0,0,0.1c0,0-0.1,0-0.1,0c-0.2,0-0.5,0-0.7,0c-0.2,0-0.4,0-0.5,0
						c-1,0-2.1,0-3.1,0c-1.6,0-3.3,0-4.7-0.2c-2.2-0.2-3.7-0.6-5.1-1.3c-0.9-0.4-1.8-1.2-2.2-1.9c-0.4-0.8-0.5-1.5-0.2-2.2
						c0.2-0.6,0.8-1.3,1.5-1.8C20.8,47,20.9,47,20.9,47z"/>
				</g>
				<g>
					<path class="st5" d="M28.7,43.1c0.9,0,1.8,0,2.7,0.1c2.1,0.2,4,0.7,5.6,1.5c1,0.5,1.8,1,2.4,1.6c0.5,0.5,1,1.1,1.4,1.9
						c0.4,0.7,0.6,1.7,0.8,2.8c0.1,1,0.2,1.9,0.2,2.4c0,0,0,0.1-0.1,0.1c-0.1,0-0.1,0.1-0.2,0.1l-2,0c-0.1,0-0.2,0-0.2,0
						c-0.1,0-0.1-0.1-0.1-0.1c0-0.9-0.2-3.7-0.8-5c-0.3-0.7-0.7-1.2-1.2-1.7c-0.5-0.5-1.1-0.9-1.9-1.2c-1.2-0.6-2.7-1-4.4-1.1
						c-0.7-0.1-1.5-0.1-2.2-0.1c-2.8,0-5.5,0.6-7.5,1.7c-2.6,1.4-3.5,3.3-2.4,5.1c0.5,0.8,1.3,1.6,2.5,2.1c0.8,0.4,1.6,0.6,2.5,0.9
						c0.9,0.2,2,0.4,3.3,0.5c1.2,0.1,3.1,0.1,4.9,0.1c2,0,3.9,0,4.8-0.1c0.1,0,0.2,0,0.2,0c0.1,0,0.1,0.1,0.1,0.1l0.1,1
						c0,0,0,0.1-0.1,0.1c-0.1,0-0.1,0.1-0.2,0.1c-0.9,0-2.5,0.1-4.3,0.1c-2,0-4.2,0-6-0.2c-1.7-0.2-2.8-0.3-3.9-0.6
						c-1.3-0.3-2.3-0.7-3.3-1.1c-1.5-0.7-2.7-1.7-3.3-2.7c-0.6-1.1-0.7-2.2-0.2-3.3c0.5-1.1,1.6-2.2,3.2-3.1
						c1.6-0.9,3.6-1.5,5.8-1.9C26.2,43.1,27.4,43.1,28.7,43.1z"/>
				</g>
				<g>
					<path class="st5" d="M41.7,54.1c0.2,0,0.3,0.1,0.3,0.2c0,0,0,0.1-0.1,0.1l-0.1,0.1L43,55c0.1,0.1,0.1,0.2,0,0.2l-0.9,0.5
						L41,55.3c-0.1,0-0.2-0.1-0.3-0.1c-0.1,0-0.2,0-0.3,0.1c-0.2,0.1-0.1,0.2,0,0.3l1.1,0.5l-0.9,0.5c-0.1,0-0.2,0.1-0.2,0.1
						c-0.1,0-0.2,0-0.2,0l-1.2-0.6l-0.1,0.1c-0.1,0-0.1,0-0.2,0c-0.2,0-0.3-0.1-0.3-0.2l-0.1-1.7c0,0,0-0.1,0.1-0.1
						c0.1,0,0.1-0.1,0.2-0.1L41.7,54.1C41.7,54.1,41.7,54.1,41.7,54.1z"/>
				</g>
			</g>
		</g>
	</g>
</g>
</svg>
