<?xml version="1.0" encoding="utf-8"?>
<!-- Generator: Adobe Illustrator 25.4.1, SVG Export Plug-In . SVG Version: 6.00 Build 0)  -->
<svg version="1.1" id="Capa_1" xmlns="http://www.w3.org/2000/svg" xmlns:xlink="http://www.w3.org/1999/xlink" x="0px" y="0px"
	 viewBox="0 0 60 50" style="enable-background:new 0 0 60 50;" xml:space="preserve">
<style type="text/css">
	.st0{fill:#FFC107;}
	.st1{fill:#FFD54F;}
	.st2{fill:#FFEFAD;}
	.st3{fill:#FECE00;}
	.st4{fill:#FFE577;}
	.st5{enable-background:new    ;}
	.st6{clip-path:url(#SVGID_00000047777502990467612390000003819621512486546817_);enable-background:new    ;}
	.st7{clip-path:url(#SVGID_00000163067443853281617720000004618081294447188385_);enable-background:new    ;}
	.st8{fill:#EEBF00;}
	.st9{clip-path:url(#SVGID_00000005228134213257815930000017636930724745663933_);}
	.st10{clip-path:url(#SVGID_00000070119635591108229250000017739388133942225327_);enable-background:new    ;}
	.st11{clip-path:url(#SVGID_00000084498179402157902880000001280402638448157623_);}
	.st12{clip-path:url(#SVGID_00000111175424995523581970000002860360806674528689_);enable-background:new    ;}
	.st13{clip-path:url(#SVGID_00000029045873753723353660000007023432181215730855_);enable-background:new    ;}
	.st14{fill:#85773E;}
	.st15{clip-path:url(#SVGID_00000125569527502411452780000008317864444791806852_);}
	.st16{clip-path:url(#SVGID_00000163061708575420946290000017897263354314161305_);enable-background:new    ;}
	.st17{clip-path:url(#SVGID_00000070081494582949491970000000757761579946495105_);}
	.st18{clip-path:url(#SVGID_00000111169930344699723840000007602417326593771692_);enable-background:new    ;}
	.st19{clip-path:url(#SVGID_00000156584409192374444070000016017955698942877575_);enable-background:new    ;}
	.st20{clip-path:url(#SVGID_00000116947033768257867740000015537738175300182411_);enable-background:new    ;}
	.st21{clip-path:url(#SVGID_00000090974373764907188950000003349226085690489767_);enable-background:new    ;}
	.st22{clip-path:url(#SVGID_00000038376321534058334450000015441965774417646245_);enable-background:new    ;}
	.st23{clip-path:url(#SVGID_00000031185867611826630540000014208229631467019941_);}
	.st24{fill:#E5BA03;}
	.st25{fill:none;}
	.st26{fill:#CEA705;}
</style>
<g>
	<g>
		<g>
			<path class="st0" d="M0.4,27.4v8.8c0,7.5,13.3,13.5,29.7,13.5s29.7-6,29.7-13.5v-8.8H0.4z"/>
			<ellipse class="st1" cx="30.2" cy="29.1" rx="28" ry="11.8"/>
			<g>
				<path class="st2" d="M49,37.8v8.8c2.1-0.8,3.9-1.7,5.4-2.7v-8.4h-0.6C52.4,36.4,50.8,37.2,49,37.8z"/>
				<path class="st2" d="M38.2,40.4v8.8c1.9-0.2,3.7-0.6,5.4-1v-8.8C41.9,39.9,40.1,40.2,38.2,40.4z"/>
			</g>
			<path class="st3" d="M14.3,18.2c8.7-5,22.9-5,31.6,0c4.3,2.5,6.5,5.8,6.5,9l0,3c0-3.3-2.2-6.5-6.5-9c-8.7-5-22.9-5-31.6,0
				c-4.4,2.5-6.6,5.8-6.6,9.2l0-3C7.7,24.1,9.9,20.7,14.3,18.2z"/>
			<path class="st4" d="M45.8,35.4c8.8-4.7,8.8-12.2,0.1-16.9c-8.7-4.7-22.9-4.7-31.7,0c-8.8,4.7-8.8,12.2-0.1,16.9
				C22.8,40.1,37,40.1,45.8,35.4 M51.1,15.8C62.7,22,62.6,32,51,38.2c-11.6,6.2-30.5,6.2-42,0C-2.6,32-2.6,22,9.1,15.8
				C20.7,9.6,39.6,9.6,51.1,15.8z"/>
			<g>
				<g class="st5">
					<g>
						<defs>
							<path id="SVGID_1_" d="M36.9,29.9v3c0,0,0,0,0,0.1c0,0-0.1,0-0.1,0v-3C36.8,30,36.9,30,36.9,29.9
								C36.9,30,36.9,29.9,36.9,29.9z"/>
						</defs>
						<use xlink:href="#SVGID_1_"  style="overflow:visible;fill:#FECE00;"/>
						<clipPath id="SVGID_00000078731779098794798500000012456316237336922796_">
							<use xlink:href="#SVGID_1_"  style="overflow:visible;"/>
						</clipPath>
						<g style="clip-path:url(#SVGID_00000078731779098794798500000012456316237336922796_);enable-background:new    ;">
							<polyline class="st3" points="36.9,29.9 36.9,32.9 36.9,32.9 36.9,29.9 36.9,29.9 							"/>
							<polyline class="st3" points="36.9,29.9 36.9,32.9 36.9,32.9 36.9,29.9 36.9,29.9 							"/>
							<polyline class="st3" points="36.9,29.9 36.9,32.9 36.9,33 36.9,29.9 36.9,29.9 							"/>
							<path class="st3" d="M36.9,29.9v3c0,0,0,0,0,0c0,0-0.1,0-0.1,0v-3C36.8,30,36.9,30,36.9,29.9C36.9,30,36.9,30,36.9,29.9"/>
						</g>
					</g>
					<g class="st5">
						<defs>
							<path id="SVGID_00000162350048023525889140000011445773718732958399_" class="st5" d="M37.7,30.3v3c0-0.9-0.2-3.5-0.8-4.8
								c-0.3-0.6-0.7-1.2-1.2-1.6c-0.5-0.4-1.1-0.8-1.8-1.2c-1.1-0.5-2.6-0.9-4.2-1.1c-0.7-0.1-1.4-0.1-2.1-0.1
								c-2.7,0-5.3,0.6-7.3,1.7c-1.8,1-2.8,2.2-2.8,3.5v-3c0-1.3,0.9-2.5,2.8-3.5c2-1.1,4.6-1.7,7.3-1.7c0.7,0,1.4,0,2.1,0.1
								c1.6,0.2,3.1,0.6,4.2,1.1c0.7,0.4,1.3,0.7,1.8,1.2c0.5,0.5,0.9,1,1.2,1.6C37.5,26.8,37.7,29.4,37.7,30.3z"/>
						</defs>
						<clipPath id="SVGID_00000026880288655298547840000005926804908324198061_">
							<use xlink:href="#SVGID_00000162350048023525889140000011445773718732958399_"  style="overflow:visible;"/>
						</clipPath>
						<g style="clip-path:url(#SVGID_00000026880288655298547840000005926804908324198061_);enable-background:new    ;">
							<path class="st8" d="M37.7,30.3v3c0-0.9-0.2-3.5-0.8-4.8c-0.3-0.6-0.7-1.2-1.2-1.6c-0.5-0.4-1.1-0.8-1.8-1.2
								c-1.1-0.5-2.6-0.9-4.2-1.1c-0.7-0.1-1.4-0.1-2.1-0.1c-2.7,0-5.3,0.6-7.3,1.7c-1.1,0.6-1.9,1.3-2.3,2v-3
								c0.4-0.7,1.2-1.4,2.3-2c2-1.1,4.6-1.7,7.3-1.7c0.7,0,1.4,0,2.1,0.1c1.6,0.2,3.1,0.6,4.2,1.1c0.7,0.4,1.3,0.7,1.8,1.2
								c0.5,0.5,0.9,1,1.2,1.6C37.5,26.8,37.7,29.4,37.7,30.3"/>
							<path class="st8" d="M18,25.2v3c-0.1,0.2-0.2,0.4-0.3,0.6v-3C17.8,25.5,17.9,25.4,18,25.2"/>
							<path class="st8" d="M17.7,25.7v3c-0.1,0.2-0.1,0.3-0.1,0.5v-3C17.6,26.1,17.6,25.9,17.7,25.7"/>
							<path class="st8" d="M17.6,26.2v3c0,0.1,0,0.3,0,0.4v-3C17.5,26.5,17.5,26.4,17.6,26.2"/>
						</g>
					</g>
					<g class="st5">
						<defs>
							<path id="SVGID_00000052809344793586362970000015420484185669095594_" class="st5" d="M21.9,26v-3c0,0,0,0,0,0
								c0,0,0.1,0.1,0.2,0.1c0.7,0,2.1,0,3.7,0.2c1.9,0.3,3.6,0.7,5,1.4c3.3,1.6,5.1,3.2,5.8,5.3c0,0,0.1,0.1,0.2,0.1v3
								c-0.1,0-0.2,0-0.2-0.1c-0.7-2-2.6-3.7-5.8-5.3c-1.4-0.7-3.1-1.1-5-1.4c-1.6-0.2-3-0.2-3.7-0.2C22,26.1,22,26.1,21.9,26
								C22,26,21.9,26,21.9,26z"/>
						</defs>
						<clipPath id="SVGID_00000095340893692528685470000001201565959506235067_">
							<use xlink:href="#SVGID_00000052809344793586362970000015420484185669095594_"  style="overflow:visible;"/>
						</clipPath>
						<g style="clip-path:url(#SVGID_00000095340893692528685470000001201565959506235067_);">
							<path class="st3" d="M36.8,30v3c-0.1,0-0.2,0-0.2-0.1c-0.7-2-2.6-3.7-5.8-5.3c-1.4-0.7-3.1-1.1-5-1.4c-1.6-0.2-3-0.2-3.7-0.2
								c-0.1,0-0.1,0-0.2-0.1c0,0,0,0,0,0v-3c0,0,0,0,0,0c0,0,0.1,0.1,0.2,0.1c0.7,0,2.1,0,3.7,0.2c1.9,0.3,3.6,0.7,5,1.4
								c3.3,1.6,5.1,3.2,5.8,5.3C36.6,30,36.7,30,36.8,30"/>
						</g>
					</g>
					<g>
						<defs>
							<path id="SVGID_00000014604546773501704200000015978279110243065745_" d="M40.2,30.3v3c0,0,0,0.1-0.1,0.1
								c-0.1,0-0.1,0.1-0.2,0.1v-3c0.1,0,0.2,0,0.2-0.1C40.2,30.4,40.2,30.3,40.2,30.3z"/>
						</defs>
						<use xlink:href="#SVGID_00000014604546773501704200000015978279110243065745_"  style="overflow:visible;fill:#EEBF00;"/>
						<clipPath id="SVGID_00000070837078294487444230000015840230497172084390_">
							<use xlink:href="#SVGID_00000014604546773501704200000015978279110243065745_"  style="overflow:visible;"/>
						</clipPath>
						<g style="clip-path:url(#SVGID_00000070837078294487444230000015840230497172084390_);enable-background:new    ;">
							<path class="st8" d="M40.2,30.3v3c0,0,0,0,0,0L40.2,30.3C40.2,30.3,40.2,30.3,40.2,30.3"/>
							<path class="st8" d="M40.2,30.3v3c0,0,0,0,0,0L40.2,30.3C40.2,30.3,40.2,30.3,40.2,30.3"/>
							<path class="st8" d="M40.2,30.3v3c0,0,0,0,0,0L40.2,30.3C40.2,30.3,40.2,30.3,40.2,30.3"/>
							<path class="st8" d="M40.2,30.3v3c0,0,0,0-0.1,0.1c-0.1,0-0.1,0.1-0.2,0.1v-3C40,30.5,40.1,30.4,40.2,30.3
								C40.2,30.4,40.2,30.4,40.2,30.3"/>
						</g>
					</g>
					<g>
						<polygon class="st8" points="39.9,30.5 39.9,33.5 38,33.5 38,30.5 						"/>
					</g>
					<g>
						<defs>
							<path id="SVGID_00000001624112545738772840000017528130914086337411_" d="M38,30.5v3c-0.1,0-0.2,0-0.2,0
								c-0.1,0-0.1-0.1-0.1-0.1v-3c0,0,0,0.1,0.1,0.1C37.9,30.5,37.9,30.5,38,30.5z"/>
						</defs>
						<use xlink:href="#SVGID_00000001624112545738772840000017528130914086337411_"  style="overflow:visible;fill:#EEBF00;"/>
						<clipPath id="SVGID_00000083056465309243870220000017416239743423402157_">
							<use xlink:href="#SVGID_00000001624112545738772840000017528130914086337411_"  style="overflow:visible;"/>
						</clipPath>
						<g style="clip-path:url(#SVGID_00000083056465309243870220000017416239743423402157_);">
							<path class="st8" d="M38,30.5v3c-0.1,0-0.2,0-0.2,0c-0.1,0-0.1-0.1-0.1-0.1v-3c0,0,0,0.1,0.1,0.1
								C37.9,30.5,37.9,30.5,38,30.5"/>
						</g>
					</g>
					<g>
						<defs>
							<path id="SVGID_00000033342591387735245770000007816402636842795415_" d="M34.8,31.1l0,3c0,0,0,0,0,0c0,0,0,0,0,0.1
								L34.8,31.1C34.7,31.2,34.8,31.1,34.8,31.1C34.8,31.1,34.8,31.1,34.8,31.1z"/>
						</defs>
						<use xlink:href="#SVGID_00000033342591387735245770000007816402636842795415_"  style="overflow:visible;fill:#EEBF00;"/>
						<clipPath id="SVGID_00000119076956470982202790000007170432021622946985_">
							<use xlink:href="#SVGID_00000033342591387735245770000007816402636842795415_"  style="overflow:visible;"/>
						</clipPath>
						<g style="clip-path:url(#SVGID_00000119076956470982202790000007170432021622946985_);enable-background:new    ;">
							<polyline class="st8" points="34.8,31.1 34.8,34.1 34.8,34.1 34.8,34.1 34.8,31.1 34.8,31.1 34.8,31.1 							"/>
							<polyline class="st8" points="34.8,31.1 34.8,34.1 34.8,34.1 34.8,31.1 34.8,31.1 							"/>
							<polyline class="st8" points="34.8,31.1 34.8,34.1 34.7,34.1 34.7,31.1 34.8,31.1 							"/>
							<path class="st8" d="M34.7,31.1v3c0,0,0,0,0,0L34.7,31.1C34.7,31.2,34.7,31.1,34.7,31.1"/>
						</g>
					</g>
					<g class="st5">
						<defs>
							<polygon id="SVGID_00000137105858443144836250000013559725063780454317_" class="st5" points="36.7,34.2 36.7,31.2 
								36.7,31.2 36.7,34.2 							"/>
						</defs>
						<clipPath id="SVGID_00000119838377118874435050000011843210151980237976_">
							<use xlink:href="#SVGID_00000137105858443144836250000013559725063780454317_"  style="overflow:visible;"/>
						</clipPath>
						<g style="clip-path:url(#SVGID_00000119838377118874435050000011843210151980237976_);enable-background:new    ;">
							<polyline class="st14" points="36.7,31.2 36.7,34.2 36.7,34.2 36.7,31.2 36.7,31.2 							"/>
						</g>
					</g>
					<g class="st5">
						<defs>
							<path id="SVGID_00000073689170233377874470000016745724241094237604_" class="st5" d="M34.7,31.2v3c0,0-0.1,0-0.1,0v-3
								C34.6,31.2,34.7,31.2,34.7,31.2z"/>
						</defs>
						<clipPath id="SVGID_00000114757291826131484310000001514124899560246697_">
							<use xlink:href="#SVGID_00000073689170233377874470000016745724241094237604_"  style="overflow:visible;"/>
						</clipPath>
						<g style="clip-path:url(#SVGID_00000114757291826131484310000001514124899560246697_);">
							<path class="st8" d="M34.7,31.2v3c0,0-0.1,0-0.1,0v-3C34.6,31.2,34.7,31.2,34.7,31.2"/>
						</g>
					</g>
					<g>
						<defs>
							<path id="SVGID_00000147206200333572105190000015622335340130829977_" d="M40.6,31.1v3c0,0,0,0.1-0.1,0.1L40.6,31.1
								C40.5,31.2,40.6,31.2,40.6,31.1z"/>
						</defs>
						<use xlink:href="#SVGID_00000147206200333572105190000015622335340130829977_"  style="overflow:visible;fill:#EEBF00;"/>
						<clipPath id="SVGID_00000031167314529364816930000016615493574837528465_">
							<use xlink:href="#SVGID_00000147206200333572105190000015622335340130829977_"  style="overflow:visible;"/>
						</clipPath>
						<g style="clip-path:url(#SVGID_00000031167314529364816930000016615493574837528465_);enable-background:new    ;">
							<path class="st8" d="M40.6,31.1v3c0,0,0,0,0,0L40.6,31.1C40.6,31.1,40.6,31.1,40.6,31.1"/>
							<path class="st8" d="M40.6,31.1v3c0,0,0,0,0,0L40.6,31.1C40.6,31.2,40.6,31.1,40.6,31.1"/>
							<path class="st8" d="M40.6,31.2v3c0,0,0,0,0,0L40.6,31.2C40.6,31.2,40.6,31.2,40.6,31.2"/>
							<path class="st8" d="M40.5,31.2v3c0,0,0,0-0.1,0L40.5,31.2C40.5,31.2,40.5,31.2,40.5,31.2"/>
						</g>
					</g>
					<g class="st5">
						<defs>
							<path id="SVGID_00000118377552856024569640000006089912228141329825_" class="st5" d="M18.4,29.6v-3c0,0.4,0.1,0.9,0.4,1.3
								c0.3,0.7,1.2,1.4,2.1,1.8c1.4,0.7,2.9,1,5,1.3c1.4,0.1,3,0.2,4.6,0.2c1,0,2,0,3,0c0.2,0,0.4,0,0.5,0c0.2,0,0.5,0,0.7,0v3
								c-0.2,0-0.5,0-0.7,0c-0.2,0-0.4,0-0.5,0c-1,0-2,0-3,0c-1.6,0-3.2,0-4.6-0.2c-2.1-0.2-3.5-0.6-5-1.3c-0.9-0.4-1.8-1.2-2.1-1.8
								C18.5,30.5,18.4,30.1,18.4,29.6z"/>
						</defs>
						<clipPath id="SVGID_00000053542977238694739320000000387758970739485102_">
							<use xlink:href="#SVGID_00000118377552856024569640000006089912228141329825_"  style="overflow:visible;"/>
						</clipPath>
						<g style="clip-path:url(#SVGID_00000053542977238694739320000000387758970739485102_);">
							<path class="st8" d="M34.6,31.2v3c-0.2,0-0.5,0-0.7,0c-0.2,0-0.4,0-0.5,0c-1,0-2,0-3,0c-1.6,0-3.2,0-4.6-0.2
								c-2.1-0.2-3.5-0.6-5-1.3c-0.9-0.4-1.8-1.2-2.1-1.8c-0.3-0.5-0.4-0.9-0.4-1.3v-3c0,0.4,0.1,0.9,0.4,1.3
								c0.3,0.7,1.2,1.4,2.1,1.8c1.4,0.7,2.9,1,5,1.3c1.4,0.1,3,0.2,4.6,0.2c1,0,2,0,3,0c0.2,0,0.4,0,0.5,0
								C34.1,31.2,34.4,31.2,34.6,31.2"/>
						</g>
					</g>
					<g>
						<polygon class="st8" points="40.5,31.2 40.5,34.2 40.4,34.3 40.4,31.3 						"/>
					</g>
					<g>
						<defs>
							<path id="SVGID_00000063625043635685138820000015715397482894327201_" d="M41.6,32l0,3c0,0,0,0.1-0.1,0.1v-3
								C41.6,32,41.6,32,41.6,32z"/>
						</defs>
						<use xlink:href="#SVGID_00000063625043635685138820000015715397482894327201_"  style="overflow:visible;fill:#FECE00;"/>
						<clipPath id="SVGID_00000181769344661411777860000004207898463606331574_">
							<use xlink:href="#SVGID_00000063625043635685138820000015715397482894327201_"  style="overflow:visible;"/>
						</clipPath>
						<g style="clip-path:url(#SVGID_00000181769344661411777860000004207898463606331574_);enable-background:new    ;">
							<path class="st3" d="M41.6,32v3c0,0,0,0,0,0L41.6,32C41.6,32,41.6,32,41.6,32"/>
							<path class="st3" d="M41.6,32v3c0,0,0,0,0,0L41.6,32C41.6,32,41.6,32,41.6,32"/>
							<path class="st3" d="M41.6,32v3c0,0,0,0,0,0L41.6,32C41.6,32,41.6,32,41.6,32"/>
							<path class="st3" d="M41.6,32v3c0,0,0,0-0.1,0.1L41.6,32C41.5,32,41.6,32,41.6,32"/>
						</g>
					</g>
					<g>
						<defs>
							<path id="SVGID_00000031925979989592454180000015362105995193158591_" d="M38.8,35.2v-3c0-0.1,0-0.1,0.1-0.1
								c0.1,0,0.2-0.1,0.3-0.1c0.1,0,0.2,0,0.3,0.1v3c-0.1,0-0.2-0.1-0.3-0.1c-0.1,0-0.2,0-0.3,0.1C38.9,35.1,38.8,35.2,38.8,35.2z"
								/>
						</defs>
						<use xlink:href="#SVGID_00000031925979989592454180000015362105995193158591_"  style="overflow:visible;fill:#EEBF00;"/>
						<clipPath id="SVGID_00000053520767546518995140000011306871436525534114_">
							<use xlink:href="#SVGID_00000031925979989592454180000015362105995193158591_"  style="overflow:visible;"/>
						</clipPath>
						<g style="clip-path:url(#SVGID_00000053520767546518995140000011306871436525534114_);enable-background:new    ;">
							<path class="st8" d="M39.5,32.1v3c-0.1,0-0.2-0.1-0.3-0.1c-0.1,0-0.2,0-0.3,0.1c0,0-0.1,0.1-0.1,0.1v-3c0,0,0-0.1,0.1-0.1
								c0.1,0,0.2-0.1,0.3-0.1C39.3,32,39.4,32,39.5,32.1"/>
							<path class="st8" d="M38.8,32.2v3c0,0,0,0,0,0L38.8,32.2C38.8,32.2,38.8,32.2,38.8,32.2"/>
							<path class="st8" d="M38.8,32.2v3c0,0,0,0,0,0L38.8,32.2C38.8,32.2,38.8,32.2,38.8,32.2"/>
							<path class="st8" d="M38.8,32.2v3c0,0,0,0,0,0L38.8,32.2C38.8,32.2,38.8,32.2,38.8,32.2"/>
						</g>
					</g>
					<g>
						<polygon class="st8" points="40.6,32.6 40.6,35.6 39.5,35.1 39.5,32.1 						"/>
					</g>
					<g>
						<polygon class="st3" points="41.5,32.1 41.5,35.1 40.6,35.6 40.6,32.6 						"/>
					</g>
					<g>
						<polygon class="st8" points="36.8,32.8 36.8,35.8 36.7,34.2 36.7,31.2 						"/>
					</g>
					<g>
						<defs>
							<path id="SVGID_00000155125010064265133780000007640265406240967331_" d="M35.9,32.7l0,3c0,0,0,0.1-0.1,0.1
								c-0.1,0-0.1,0-0.2,0.1c-0.9,0-2.4,0.1-4.2,0.1c-1.9,0-4.1,0-5.8-0.2c-1.6-0.2-2.8-0.3-3.7-0.5c-1.2-0.3-2.3-0.6-3.2-1.1
								c-1.5-0.7-2.6-1.6-3.2-2.6c-0.3-0.6-0.5-1.2-0.5-1.8l0-3c0,0.6,0.2,1.2,0.5,1.8c0.6,1,1.7,1.9,3.2,2.6c0.9,0.5,2,0.8,3.2,1.1
								c1,0.2,2.1,0.4,3.7,0.5c1.7,0.2,3.8,0.2,5.8,0.2c1.7,0,3.3,0,4.2-0.1c0.1,0,0.2,0,0.2-0.1C35.8,32.8,35.9,32.7,35.9,32.7z"/>
						</defs>
						<use xlink:href="#SVGID_00000155125010064265133780000007640265406240967331_"  style="overflow:visible;fill:#FECE00;"/>
						<clipPath id="SVGID_00000076596788920159644310000006874349572526550943_">
							<use xlink:href="#SVGID_00000155125010064265133780000007640265406240967331_"  style="overflow:visible;"/>
						</clipPath>
						<g style="clip-path:url(#SVGID_00000076596788920159644310000006874349572526550943_);enable-background:new    ;">
							<path class="st3" d="M35.9,32.7v3c0,0,0,0,0,0L35.9,32.7C35.9,32.7,35.9,32.7,35.9,32.7"/>
							<path class="st3" d="M35.9,32.7v3c0,0,0,0,0,0L35.9,32.7C35.9,32.7,35.9,32.7,35.9,32.7"/>
							<path class="st3" d="M35.9,32.7v3c0,0,0,0,0,0L35.9,32.7C35.9,32.7,35.9,32.7,35.9,32.7"/>
							<path class="st3" d="M35.9,32.7v3c0,0,0,0-0.1,0.1c-0.1,0-0.1,0-0.2,0.1c-0.9,0-2.4,0.1-4.2,0.1c-1.9,0-4.1,0-5.8-0.2
								c-1.6-0.2-2.8-0.3-3.7-0.5c-1.2-0.3-2.3-0.6-3.2-1.1c-1.5-0.7-2.6-1.6-3.2-2.6c-0.3-0.6-0.5-1.2-0.5-1.8v-3
								c0,0.6,0.2,1.2,0.5,1.8c0.6,1,1.7,1.9,3.2,2.6c0.9,0.5,2,0.8,3.2,1.1c1,0.2,2.1,0.4,3.7,0.5c1.7,0.2,3.8,0.2,5.8,0.2
								c1.7,0,3.3,0,4.2-0.1C35.7,32.8,35.7,32.8,35.9,32.7C35.8,32.8,35.8,32.8,35.9,32.7"/>
						</g>
					</g>
					<g>
						<polygon class="st3" points="37.5,32.8 37.5,35.9 37.4,35.9 37.4,32.9 						"/>
					</g>
					<g>
						<defs>
							<path id="SVGID_00000102507667782246214780000001529857408136334268_" d="M37.4,32.9v3c-0.1,0-0.1,0-0.2,0v-3
								C37.3,33,37.3,33,37.4,32.9z"/>
						</defs>
						<use xlink:href="#SVGID_00000102507667782246214780000001529857408136334268_"  style="overflow:visible;fill:#FECE00;"/>
						<clipPath id="SVGID_00000128466204482513720580000013783442820079969665_">
							<use xlink:href="#SVGID_00000102507667782246214780000001529857408136334268_"  style="overflow:visible;"/>
						</clipPath>
						<g style="clip-path:url(#SVGID_00000128466204482513720580000013783442820079969665_);enable-background:new    ;">
							<path class="st3" d="M37.4,32.9v3c-0.1,0-0.1,0-0.2,0v-3C37.3,33,37.3,33,37.4,32.9"/>
						</g>
					</g>
					<g>
						<defs>
							<path id="SVGID_00000027603508612770072330000010750984290560189587_" d="M37.2,33v3c-0.2,0-0.3-0.1-0.3-0.2v-3
								C36.9,32.9,37,33,37.2,33z"/>
						</defs>
						<use xlink:href="#SVGID_00000027603508612770072330000010750984290560189587_"  style="overflow:visible;fill:#FECE00;"/>
						<clipPath id="SVGID_00000110458165633712394170000015502639989341660332_">
							<use xlink:href="#SVGID_00000027603508612770072330000010750984290560189587_"  style="overflow:visible;"/>
						</clipPath>
						<g style="clip-path:url(#SVGID_00000110458165633712394170000015502639989341660332_);enable-background:new    ;">
							<path class="st3" d="M37.2,33v3c-0.2,0-0.3-0.1-0.3-0.2v-3C36.9,32.9,37,33,37.2,33"/>
						</g>
					</g>
					<g>
						<polygon class="st3" points="40,32.9 40,35.9 39.1,36.4 39.1,33.4 						"/>
					</g>
					<g>
						<polygon class="st3" points="38.7,33.4 38.7,36.4 37.5,35.9 37.5,32.8 						"/>
					</g>
					<g class="st5">
						<defs>
							<path id="SVGID_00000024717829697399828730000014213490959892392105_" class="st5" d="M39.1,33.4v3c-0.1,0-0.1,0.1-0.2,0.1
								c-0.1,0-0.2,0-0.2,0v-3c0.1,0,0.1,0,0.2,0C39,33.4,39,33.4,39.1,33.4z"/>
						</defs>
						<clipPath id="SVGID_00000037652473756331807840000018010606156077116033_">
							<use xlink:href="#SVGID_00000024717829697399828730000014213490959892392105_"  style="overflow:visible;"/>
						</clipPath>
						<g style="clip-path:url(#SVGID_00000037652473756331807840000018010606156077116033_);">
							<path class="st3" d="M39.1,33.4v3c-0.1,0-0.1,0.1-0.2,0.1c-0.1,0-0.2,0-0.2,0v-3c0.1,0,0.1,0,0.2,0
								C39,33.4,39,33.4,39.1,33.4"/>
						</g>
					</g>
				</g>
				<g>
					<g>
						<path class="st4" d="M27.5,21.9c0.6,0,1.3,0,2.1,0.1c1.3,0.1,2.8,0.5,3.7,1c1.4,0.7,2.2,1.4,2.8,2.4c0.6,1.1,0.8,2.5,0.8,3.8
							c0,0.1,0,0.2,0,0.3c0,0.1,0,0.2,0,0.4c0,0,0,0,0,0.1c0,0-0.1,0-0.1,0c-0.1,0-0.2,0-0.2-0.1c-0.7-2-2.6-3.7-5.8-5.3
							c-1.4-0.7-3.1-1.1-5-1.4c-1.6-0.2-3-0.2-3.7-0.2c-0.1,0-0.1,0-0.2-0.1c0,0,0-0.1,0-0.1c0.9-0.4,2.2-0.7,3.4-0.9
							C26.1,22,26.8,21.9,27.5,21.9z"/>
					</g>
					<g>
						<path class="st4" d="M20.1,24C20.1,24,20.1,24,20.1,24c0.1,0,0.2,0,0.2,0.1c0.1,0.3,0.2,1.1,0.7,1.9c0.6,1,1.6,1.8,3,2.4
							c3.3,1.6,6.6,2.4,10.6,2.6c0.1,0,0.1,0,0.1,0.1c0,0,0,0,0,0.1c0,0-0.1,0-0.1,0c-0.2,0-0.5,0-0.7,0c-0.2,0-0.4,0-0.5,0
							c-1,0-2,0-3,0c-1.6,0-3.2,0-4.6-0.2c-2.1-0.2-3.5-0.6-5-1.3c-0.9-0.4-1.8-1.2-2.1-1.8c-0.4-0.8-0.5-1.4-0.2-2.1
							c0.2-0.6,0.8-1.3,1.4-1.8C20,24,20,24,20.1,24z"/>
					</g>
					<g>
						<path class="st4" d="M27.6,20.2c0.9,0,1.8,0,2.6,0.1c2,0.2,3.9,0.7,5.4,1.4c0.9,0.5,1.7,1,2.3,1.6c0.5,0.5,0.9,1.1,1.3,1.9
							c0.3,0.7,0.6,1.6,0.8,2.7c0.1,1,0.2,1.9,0.2,2.3c0,0,0,0.1-0.1,0.1c-0.1,0-0.1,0.1-0.2,0.1l-1.9,0c-0.1,0-0.2,0-0.2,0
							c-0.1,0-0.1-0.1-0.1-0.1c0-0.8-0.2-3.5-0.8-4.8c-0.3-0.6-0.7-1.2-1.2-1.6c-0.5-0.4-1.1-0.8-1.8-1.2c-1.1-0.5-2.6-0.9-4.2-1.1
							c-0.7-0.1-1.4-0.1-2.1-0.1c-2.7,0-5.3,0.6-7.3,1.7c-2.5,1.4-3.3,3.2-2.4,4.9c0.5,0.8,1.3,1.5,2.4,2.1c0.7,0.4,1.5,0.6,2.4,0.8
							c0.9,0.2,2,0.4,3.2,0.5c1.2,0.1,3,0.1,4.8,0.1c1.9,0,3.8,0,4.6-0.1c0.1,0,0.2,0,0.2,0c0.1,0,0.1,0.1,0.1,0.1l0.1,1
							c0,0,0,0.1-0.1,0.1c-0.1,0-0.1,0-0.2,0.1c-0.9,0-2.4,0.1-4.2,0.1c-1.9,0-4.1,0-5.8-0.2c-1.6-0.2-2.8-0.3-3.7-0.5
							c-1.2-0.3-2.3-0.6-3.2-1.1c-1.5-0.7-2.6-1.6-3.2-2.6c-0.6-1-0.6-2.1-0.2-3.2c0.5-1.1,1.5-2.1,3.1-3c1.6-0.9,3.5-1.5,5.6-1.8
							C25.2,20.3,26.4,20.2,27.6,20.2z"/>
					</g>
					<g>
						<path class="st4" d="M40.2,31c0.2,0,0.3,0.1,0.3,0.2c0,0,0,0.1-0.1,0.1l-0.1,0.1l1.1,0.5c0.1,0.1,0.1,0.2,0,0.2l-0.9,0.5
							l-1.1-0.5c-0.1,0-0.2-0.1-0.3-0.1c-0.1,0-0.2,0-0.3,0.1c-0.2,0.1-0.1,0.2,0,0.3l1.1,0.5l-0.9,0.5c-0.1,0-0.1,0.1-0.2,0.1
							c-0.1,0-0.2,0-0.2,0l-1.1-0.5l-0.1,0.1c-0.1,0-0.1,0-0.2,0c-0.2,0-0.3-0.1-0.3-0.2l-0.1-1.6c0,0,0-0.1,0.1-0.1
							c0.1,0,0.1-0.1,0.2-0.1L40.2,31C40.2,31,40.2,31,40.2,31z"/>
					</g>
				</g>
			</g>
		</g>
	</g>
	<g>
		<path class="st0" d="M0.4,16.6v8.8c0,7.5,13.3,13.5,29.7,13.5s29.7-6,29.7-13.5v-8.8H0.4z"/>
		<ellipse class="st1" cx="30.2" cy="18.3" rx="28" ry="11.8"/>
		<ellipse class="st3" cx="30.2" cy="18.3" rx="28" ry="11.8"/>
		<g>
			<path class="st2" d="M49,27v8.8c2.1-0.8,3.9-1.7,5.4-2.7v-8.4h-0.6C52.4,25.6,50.8,26.3,49,27z"/>
			<path class="st2" d="M38.2,29.6v8.8c1.9-0.2,3.7-0.6,5.4-1v-8.8C41.9,29,40.1,29.3,38.2,29.6z"/>
		</g>
		<path class="st8" d="M14.3,7.4c8.7-5,22.9-5,31.6,0c4.3,2.5,6.5,5.8,6.5,9l0,3c0-3.3-2.2-6.5-6.5-9c-8.7-5-22.9-5-31.6,0
			c-4.4,2.5-6.6,5.8-6.6,9.2l0-3C7.7,13.2,9.9,9.9,14.3,7.4z"/>
		<path class="st4" d="M45.8,24.6c8.8-4.7,8.8-12.2,0.1-16.9c-8.7-4.7-22.9-4.7-31.7,0C5.5,12.4,5.4,20,14.1,24.6
			C22.8,29.3,37,29.3,45.8,24.6 M51.1,5c11.6,6.2,11.5,16.2-0.1,22.4c-11.6,6.2-30.5,6.2-42,0C-2.6,21.2-2.6,11.2,9.1,5
			C20.7-1.2,39.6-1.2,51.1,5z"/>
		<g>
			<g>
				<g>
					<path class="st3" d="M36.9,19.1v3c0,0,0,0,0,0.1c0,0-0.1,0-0.1,0v-3C36.8,19.2,36.9,19.2,36.9,19.1
						C36.9,19.1,36.9,19.1,36.9,19.1z"/>
					<g class="st5">
						<polyline class="st3" points="36.9,19.1 36.9,22.1 36.9,22.1 36.9,19.1 36.9,19.1 						"/>
						<polyline class="st3" points="36.9,19.1 36.9,22.1 36.9,22.1 36.9,19.1 36.9,19.1 						"/>
						<polyline class="st3" points="36.9,19.1 36.9,22.1 36.9,22.1 36.9,19.1 36.9,19.1 						"/>
						<path class="st24" d="M36.9,19.1v3c0,0,0,0,0,0c0,0-0.1,0-0.1,0v-3C36.8,19.2,36.9,19.2,36.9,19.1
							C36.9,19.1,36.9,19.1,36.9,19.1"/>
					</g>
				</g>
				<g class="st5">
					<path class="st25" d="M37.7,19.5v3c0-0.9-0.2-3.5-0.8-4.8c-0.3-0.6-0.7-1.2-1.2-1.6c-0.5-0.4-1.1-0.8-1.8-1.2
						c-1.1-0.5-2.6-0.9-4.2-1.1c-0.7-0.1-1.4-0.1-2.1-0.1c-2.7,0-5.3,0.6-7.3,1.7c-1.8,1-2.8,2.2-2.8,3.5v-3c0-1.3,0.9-2.5,2.8-3.5
						c2-1.1,4.6-1.7,7.3-1.7c0.7,0,1.4,0,2.1,0.1c1.6,0.2,3.1,0.6,4.2,1.1c0.7,0.4,1.3,0.7,1.8,1.2c0.5,0.5,0.9,1,1.2,1.6
						C37.5,15.9,37.7,18.6,37.7,19.5z"/>
					<g class="st5">
						<path class="st26" d="M37.7,19.5v3c0-0.9-0.2-3.5-0.8-4.8c-0.3-0.6-0.7-1.2-1.2-1.6c-0.5-0.4-1.1-0.8-1.8-1.2
							c-1.1-0.5-2.6-0.9-4.2-1.1c-0.7-0.1-1.4-0.1-2.1-0.1c-2.7,0-5.3,0.6-7.3,1.7c-1.1,0.6-1.9,1.3-2.3,2v-3c0.4-0.7,1.2-1.4,2.3-2
							c2-1.1,4.6-1.7,7.3-1.7c0.7,0,1.4,0,2.1,0.1c1.6,0.2,3.1,0.6,4.2,1.1c0.7,0.4,1.3,0.7,1.8,1.2c0.5,0.5,0.9,1,1.2,1.6
							C37.5,15.9,37.7,18.6,37.7,19.5"/>
						<path class="st26" d="M18,14.3v3c-0.1,0.2-0.2,0.4-0.3,0.6v-3C17.8,14.7,17.9,14.5,18,14.3"/>
						<path class="st26" d="M17.7,14.9v3c-0.1,0.2-0.1,0.3-0.1,0.5v-3C17.6,15.2,17.6,15.1,17.7,14.9"/>
						<path class="st26" d="M17.6,15.4v3c0,0.1,0,0.3,0,0.4v-3C17.5,15.7,17.5,15.5,17.6,15.4"/>
					</g>
				</g>
				<g class="st5">
					<path class="st25" d="M21.9,15.2v-3c0,0,0,0,0,0c0,0,0.1,0.1,0.2,0.1c0.7,0,2.1,0,3.7,0.2c1.9,0.3,3.6,0.7,5,1.4
						c3.3,1.6,5.1,3.2,5.8,5.3c0,0,0.1,0.1,0.2,0.1v3c-0.1,0-0.2,0-0.2-0.1c-0.7-2-2.6-3.7-5.8-5.3c-1.4-0.7-3.1-1.1-5-1.4
						c-1.6-0.2-3-0.2-3.7-0.2C22,15.3,22,15.2,21.9,15.2C22,15.2,21.9,15.2,21.9,15.2z"/>
					<path class="st24" d="M36.8,19.2v3c-0.1,0-0.2,0-0.2-0.1c-0.7-2-2.6-3.7-5.8-5.3c-1.4-0.7-3.1-1.1-5-1.4
						c-1.6-0.2-3-0.2-3.7-0.2c-0.1,0-0.1,0-0.2-0.1c0,0,0,0,0,0v-3c0,0,0,0,0,0c0,0,0.1,0.1,0.2,0.1c0.7,0,2.1,0,3.7,0.2
						c1.9,0.3,3.6,0.7,5,1.4c3.3,1.6,5.1,3.2,5.8,5.3C36.6,19.1,36.7,19.2,36.8,19.2"/>
				</g>
				<g>
					<path class="st8" d="M40.2,19.5v3c0,0,0,0.1-0.1,0.1c-0.1,0-0.1,0.1-0.2,0.1v-3c0.1,0,0.2,0,0.2-0.1
						C40.2,19.5,40.2,19.5,40.2,19.5z"/>
					<g class="st5">
						<path class="st8" d="M40.2,19.5v3c0,0,0,0,0,0L40.2,19.5C40.2,19.5,40.2,19.5,40.2,19.5"/>
						<path class="st8" d="M40.2,19.5v3c0,0,0,0,0,0L40.2,19.5C40.2,19.5,40.2,19.5,40.2,19.5"/>
						<path class="st8" d="M40.2,19.5v3c0,0,0,0,0,0L40.2,19.5C40.2,19.5,40.2,19.5,40.2,19.5"/>
						<path class="st24" d="M40.2,19.5v3c0,0,0,0-0.1,0.1c-0.1,0-0.1,0.1-0.2,0.1v-3C40,19.6,40.1,19.6,40.2,19.5
							C40.2,19.6,40.2,19.5,40.2,19.5"/>
					</g>
				</g>
				<polygon class="st24" points="39.9,19.6 39.9,22.6 38,22.7 38,19.7 				"/>
				<g>
					<path class="st8" d="M38,19.7v3c-0.1,0-0.2,0-0.2,0c-0.1,0-0.1-0.1-0.1-0.1v-3c0,0,0,0.1,0.1,0.1C37.9,19.6,37.9,19.7,38,19.7z
						"/>
					<path class="st24" d="M38,19.7v3c-0.1,0-0.2,0-0.2,0c-0.1,0-0.1-0.1-0.1-0.1v-3c0,0,0,0.1,0.1,0.1C37.9,19.6,37.9,19.7,38,19.7
						"/>
				</g>
				<g>
					<path class="st26" d="M34.8,20.3l0,3c0,0,0,0,0,0c0,0,0,0,0,0.1L34.8,20.3C34.7,20.3,34.8,20.3,34.8,20.3
						C34.8,20.3,34.8,20.3,34.8,20.3z"/>
					<g class="st5">
						<polyline class="st26" points="34.8,20.3 34.8,23.3 34.8,23.3 34.8,23.3 34.8,20.3 34.8,20.3 34.8,20.3 						"/>
						<polyline class="st26" points="34.8,20.3 34.8,23.3 34.8,23.3 34.8,20.3 34.8,20.3 						"/>
						<polyline class="st26" points="34.8,20.3 34.8,23.3 34.7,23.3 34.7,20.3 34.8,20.3 						"/>
						<path class="st26" d="M34.7,20.3v3c0,0,0,0,0,0L34.7,20.3C34.7,20.3,34.7,20.3,34.7,20.3"/>
					</g>
				</g>
				<g class="st5">
					<polygon class="st25" points="36.7,23.3 36.7,20.3 36.7,20.3 36.7,23.3 					"/>
					<polyline class="st14" points="36.7,20.3 36.7,23.3 36.7,23.3 36.7,20.3 36.7,20.3 					"/>
				</g>
				<g class="st5">
					<path class="st25" d="M34.7,20.3v3c0,0-0.1,0-0.1,0v-3C34.6,20.4,34.7,20.4,34.7,20.3z"/>
					<path class="st26" d="M34.7,20.3v3c0,0-0.1,0-0.1,0v-3C34.6,20.4,34.7,20.4,34.7,20.3"/>
				</g>
				<g>
					<path class="st26" d="M40.6,20.3v3c0,0,0,0.1-0.1,0.1L40.6,20.3C40.5,20.4,40.6,20.3,40.6,20.3z"/>
					<g class="st5">
						<path class="st26" d="M40.6,20.3v3c0,0,0,0,0,0L40.6,20.3C40.6,20.3,40.6,20.3,40.6,20.3"/>
						<path class="st26" d="M40.6,20.3v3c0,0,0,0,0,0L40.6,20.3C40.6,20.3,40.6,20.3,40.6,20.3"/>
						<path class="st26" d="M40.6,20.3v3c0,0,0,0,0,0L40.6,20.3C40.6,20.3,40.6,20.3,40.6,20.3"/>
						<path class="st26" d="M40.5,20.3v3c0,0,0,0-0.1,0L40.5,20.3C40.5,20.4,40.5,20.4,40.5,20.3"/>
					</g>
				</g>
				<g class="st5">
					<path class="st25" d="M18.4,18.8v-3c0,0.4,0.1,0.9,0.4,1.3c0.3,0.7,1.2,1.4,2.1,1.8c1.4,0.7,2.9,1,5,1.3c1.4,0.1,3,0.2,4.6,0.2
						c1,0,2,0,3,0c0.2,0,0.4,0,0.5,0c0.2,0,0.5,0,0.7,0v3c-0.2,0-0.5,0-0.7,0c-0.2,0-0.4,0-0.5,0c-1,0-2,0-3,0c-1.6,0-3.2,0-4.6-0.2
						c-2.1-0.2-3.5-0.6-5-1.3c-0.9-0.4-1.8-1.2-2.1-1.8C18.5,19.7,18.4,19.2,18.4,18.8z"/>
					<path class="st26" d="M34.6,20.4v3c-0.2,0-0.5,0-0.7,0c-0.2,0-0.4,0-0.5,0c-1,0-2,0-3,0c-1.6,0-3.2,0-4.6-0.2
						c-2.1-0.2-3.5-0.6-5-1.3c-0.9-0.4-1.8-1.2-2.1-1.8c-0.3-0.5-0.4-0.9-0.4-1.3v-3c0,0.4,0.1,0.9,0.4,1.3c0.3,0.7,1.2,1.4,2.1,1.8
						c1.4,0.7,2.9,1,5,1.3c1.4,0.1,3,0.2,4.6,0.2c1,0,2,0,3,0c0.2,0,0.4,0,0.5,0C34.1,20.4,34.4,20.4,34.6,20.4"/>
				</g>
				<polygon class="st26" points="40.5,20.4 40.5,23.4 40.4,23.5 40.4,20.5 				"/>
				<g>
					<path class="st24" d="M41.6,21.1l0,3c0,0,0,0.1-0.1,0.1v-3C41.6,21.2,41.6,21.2,41.6,21.1z"/>
					<g class="st5">
						<path class="st24" d="M41.6,21.1v3c0,0,0,0,0,0L41.6,21.1C41.6,21.1,41.6,21.1,41.6,21.1"/>
						<path class="st24" d="M41.6,21.1v3c0,0,0,0,0,0L41.6,21.1C41.6,21.2,41.6,21.1,41.6,21.1"/>
						<path class="st24" d="M41.6,21.2v3c0,0,0,0,0,0L41.6,21.2C41.6,21.2,41.6,21.2,41.6,21.2"/>
						<path class="st24" d="M41.6,21.2v3c0,0,0,0-0.1,0.1L41.6,21.2C41.5,21.2,41.6,21.2,41.6,21.2"/>
					</g>
				</g>
				<g>
					<path class="st26" d="M38.8,24.4v-3c0-0.1,0-0.1,0.1-0.1c0.1,0,0.2-0.1,0.3-0.1c0.1,0,0.2,0,0.3,0.1v3c-0.1,0-0.2-0.1-0.3-0.1
						c-0.1,0-0.2,0-0.3,0.1C38.9,24.3,38.8,24.3,38.8,24.4z"/>
					<g class="st5">
						<path class="st26" d="M39.5,21.2v3c-0.1,0-0.2-0.1-0.3-0.1c-0.1,0-0.2,0-0.3,0.1c0,0-0.1,0.1-0.1,0.1v-3c0,0,0-0.1,0.1-0.1
							c0.1,0,0.2-0.1,0.3-0.1C39.3,21.2,39.4,21.2,39.5,21.2"/>
						<path class="st26" d="M38.8,21.3v3c0,0,0,0,0,0L38.8,21.3C38.8,21.3,38.8,21.3,38.8,21.3"/>
						<path class="st26" d="M38.8,21.3v3c0,0,0,0,0,0L38.8,21.3C38.8,21.4,38.8,21.3,38.8,21.3"/>
						<path class="st26" d="M38.8,21.4v3c0,0,0,0,0,0L38.8,21.4C38.8,21.4,38.8,21.4,38.8,21.4"/>
					</g>
				</g>
				<polygon class="st8" points="40.6,21.7 40.6,24.7 39.5,24.2 39.5,21.2 				"/>
				<polygon class="st26" points="40.6,21.7 40.6,24.7 39.5,24.2 39.5,21.2 				"/>
				<polygon class="st24" points="41.5,21.2 41.5,24.2 40.6,24.7 40.6,21.7 				"/>
				<polygon class="st26" points="36.8,22 36.8,25 36.7,23.3 36.7,20.3 				"/>
				<g>
					<path class="st3" d="M35.9,21.9l0,3c0,0,0,0.1-0.1,0.1c-0.1,0-0.1,0-0.2,0.1c-0.9,0-2.4,0.1-4.2,0.1c-1.9,0-4.1,0-5.8-0.2
						c-1.6-0.2-2.8-0.3-3.7-0.5c-1.2-0.3-2.3-0.6-3.2-1.1c-1.5-0.7-2.6-1.6-3.2-2.6C15.2,20,15,19.4,15,18.8l0-3
						c0,0.6,0.2,1.2,0.5,1.8c0.6,1,1.7,1.9,3.2,2.6c0.9,0.5,2,0.8,3.2,1.1c1,0.2,2.1,0.4,3.7,0.5c1.7,0.2,3.8,0.2,5.8,0.2
						c1.7,0,3.3,0,4.2-0.1c0.1,0,0.2,0,0.2-0.1C35.8,21.9,35.9,21.9,35.9,21.9z"/>
					<g class="st5">
						<path class="st3" d="M35.9,21.9v3c0,0,0,0,0,0L35.9,21.9C35.9,21.9,35.9,21.9,35.9,21.9"/>
						<path class="st3" d="M35.9,21.9v3c0,0,0,0,0,0L35.9,21.9C35.9,21.9,35.9,21.9,35.9,21.9"/>
						<path class="st3" d="M35.9,21.9v3c0,0,0,0,0,0L35.9,21.9C35.9,21.9,35.9,21.9,35.9,21.9"/>
						<path class="st24" d="M35.9,21.9v3c0,0,0,0-0.1,0.1c-0.1,0-0.1,0-0.2,0.1c-0.9,0-2.4,0.1-4.2,0.1c-1.9,0-4.1,0-5.8-0.2
							c-1.6-0.2-2.8-0.3-3.7-0.5c-1.2-0.3-2.3-0.6-3.2-1.1c-1.5-0.7-2.6-1.6-3.2-2.6C15.2,20,15,19.4,15,18.8v-3
							c0,0.6,0.2,1.2,0.5,1.8c0.6,1,1.7,1.9,3.2,2.6c0.9,0.5,2,0.8,3.2,1.1c1,0.2,2.1,0.4,3.7,0.5c1.7,0.2,3.8,0.2,5.8,0.2
							c1.7,0,3.3,0,4.2-0.1C35.7,22,35.7,22,35.9,21.9C35.8,21.9,35.8,21.9,35.9,21.9"/>
					</g>
				</g>
				<polygon class="st24" points="37.5,22 37.5,25 37.4,25.1 37.4,22.1 				"/>
				<g>
					<path class="st3" d="M37.4,22.1v3c-0.1,0-0.1,0-0.2,0v-3C37.3,22.1,37.3,22.1,37.4,22.1z"/>
					<path class="st24" d="M37.4,22.1v3c-0.1,0-0.1,0-0.2,0v-3C37.3,22.1,37.3,22.1,37.4,22.1"/>
				</g>
				<g>
					<path class="st3" d="M37.2,22.1v3c-0.2,0-0.3-0.1-0.3-0.2v-3C36.9,22.1,37,22.1,37.2,22.1z"/>
					<path class="st24" d="M37.2,22.1v3c-0.2,0-0.3-0.1-0.3-0.2v-3C36.9,22.1,37,22.1,37.2,22.1"/>
				</g>
				<polygon class="st24" points="40,22 40,25.1 39.1,25.6 39.1,22.5 				"/>
				<polygon class="st24" points="38.7,22.6 38.7,25.6 37.5,25 37.5,22 				"/>
				<g class="st5">
					<path class="st25" d="M39.1,22.5v3c-0.1,0-0.1,0.1-0.2,0.1c-0.1,0-0.2,0-0.2,0v-3c0.1,0,0.1,0,0.2,0C39,22.6,39,22.6,39.1,22.5
						z"/>
					<path class="st24" d="M39.1,22.5v3c-0.1,0-0.1,0.1-0.2,0.1c-0.1,0-0.2,0-0.2,0v-3c0.1,0,0.1,0,0.2,0C39,22.6,39,22.6,39.1,22.5
						"/>
				</g>
			</g>
			<g>
				<path class="st4" d="M27.5,11.1c0.6,0,1.3,0,2.1,0.1c1.3,0.1,2.8,0.5,3.7,1c1.4,0.7,2.2,1.4,2.8,2.4c0.6,1.1,0.8,2.5,0.8,3.8
					c0,0.1,0,0.2,0,0.3c0,0.1,0,0.2,0,0.4c0,0,0,0,0,0.1c0,0-0.1,0-0.1,0c-0.1,0-0.2,0-0.2-0.1c-0.7-2-2.6-3.7-5.8-5.3
					c-1.4-0.7-3.1-1.1-5-1.4c-1.6-0.2-3-0.2-3.7-0.2c-0.1,0-0.1,0-0.2-0.1c0,0,0-0.1,0-0.1c0.9-0.4,2.2-0.7,3.4-0.9
					C26.1,11.2,26.8,11.1,27.5,11.1z"/>
				<path class="st4" d="M20.1,13.2C20.1,13.2,20.1,13.2,20.1,13.2c0.1,0,0.2,0,0.2,0.1c0.1,0.3,0.2,1.1,0.7,1.9
					c0.6,1,1.6,1.8,3,2.4c3.3,1.6,6.6,2.4,10.6,2.6c0.1,0,0.1,0,0.1,0.1c0,0,0,0,0,0.1c0,0-0.1,0-0.1,0c-0.2,0-0.5,0-0.7,0
					c-0.2,0-0.4,0-0.5,0c-1,0-2,0-3,0c-1.6,0-3.2,0-4.6-0.2c-2.1-0.2-3.5-0.6-5-1.3c-0.9-0.4-1.8-1.2-2.1-1.8
					c-0.4-0.8-0.5-1.4-0.2-2.1c0.2-0.6,0.8-1.3,1.4-1.8C20,13.2,20,13.2,20.1,13.2z"/>
				<path class="st4" d="M27.6,9.4c0.9,0,1.8,0,2.6,0.1c2,0.2,3.9,0.7,5.4,1.4c0.9,0.5,1.7,1,2.3,1.6c0.5,0.5,0.9,1.1,1.3,1.9
					c0.3,0.7,0.6,1.6,0.8,2.7c0.1,1,0.2,1.9,0.2,2.3c0,0,0,0.1-0.1,0.1c-0.1,0-0.1,0.1-0.2,0.1l-1.9,0c-0.1,0-0.2,0-0.2,0
					c-0.1,0-0.1-0.1-0.1-0.1c0-0.8-0.2-3.5-0.8-4.8c-0.3-0.6-0.7-1.2-1.2-1.6c-0.5-0.4-1.1-0.8-1.8-1.2c-1.1-0.5-2.6-0.9-4.2-1.1
					c-0.7-0.1-1.4-0.1-2.1-0.1c-2.7,0-5.3,0.6-7.3,1.7c-2.5,1.4-3.3,3.2-2.4,4.9c0.5,0.8,1.3,1.5,2.4,2.1c0.7,0.4,1.5,0.6,2.4,0.8
					c0.9,0.2,2,0.4,3.2,0.5c1.2,0.1,3,0.1,4.8,0.1c1.9,0,3.8,0,4.6-0.1c0.1,0,0.2,0,0.2,0c0.1,0,0.1,0.1,0.1,0.1l0.1,1
					c0,0,0,0.1-0.1,0.1c-0.1,0-0.1,0-0.2,0.1c-0.9,0-2.4,0.1-4.2,0.1c-1.9,0-4.1,0-5.8-0.2c-1.6-0.2-2.8-0.3-3.7-0.5
					c-1.2-0.3-2.3-0.6-3.2-1.1c-1.5-0.7-2.6-1.6-3.2-2.6c-0.6-1-0.6-2.1-0.2-3.2c0.5-1.1,1.5-2.1,3.1-3C20,10.6,21.9,10,24,9.7
					C25.2,9.5,26.4,9.4,27.6,9.4z"/>
				<path class="st4" d="M40.2,20.1c0.2,0,0.3,0.1,0.3,0.2c0,0,0,0.1-0.1,0.1l-0.1,0.1l1.1,0.5c0.1,0.1,0.1,0.2,0,0.2l-0.9,0.5
					l-1.1-0.5c-0.1,0-0.2-0.1-0.3-0.1c-0.1,0-0.2,0-0.3,0.1c-0.2,0.1-0.1,0.2,0,0.3L40,22l-0.9,0.5c-0.1,0-0.1,0.1-0.2,0.1
					c-0.1,0-0.2,0-0.2,0L37.5,22l-0.1,0.1c-0.1,0-0.1,0-0.2,0c-0.2,0-0.3-0.1-0.3-0.2l-0.1-1.6c0,0,0-0.1,0.1-0.1
					c0.1,0,0.1-0.1,0.2-0.1L40.2,20.1C40.2,20.1,40.2,20.1,40.2,20.1z"/>
			</g>
		</g>
	</g>
</g>
</svg>
