<?xml version="1.0" encoding="utf-8"?>
<!-- Generator: Adobe Illustrator 24.0.1, SVG Export Plug-In . SVG Version: 6.00 Build 0)  -->
<svg version="1.1" id="Capa_1" xmlns="http://www.w3.org/2000/svg" xmlns:xlink="http://www.w3.org/1999/xlink" x="0px" y="0px"
	 viewBox="0 0 167 171" style="enable-background:new 0 0 167 171;" xml:space="preserve">
<style type="text/css">
	.st0{fill:#3BD4AE;}
	.st1{fill:#243746;}
	.st2{fill:#F5B335;}
	.st3{fill:#F1F2F2;}
</style>
<g>
	<g>
		<g>
			<path class="st0" d="M92.2,162.2c-27.1,0-51.7-12.8-64.2-33.4c-0.4-0.6-0.4-1.4,0-2c0.4-0.6,1-1,1.7-1h30.1
				c43.3,0,78.7-30.4,79-67.8c0-0.8,0.5-1.5,1.1-1.8c0.3-0.1,0.6-0.2,0.9-0.2c0.5,0,0.9,0.2,1.3,0.4c14.4,11.7,22.3,27.5,22.3,44.4
				c0,13.2-5,26.2-14.3,36.7l12.1,12.1c2.1,2.1,2.8,5.3,1.6,8.1c-1.2,2.8-3.8,4.6-6.8,4.6H92.2z"/>
		</g>
		<g>
			<path class="st1" d="M140.8,58c13.3,10.8,21.6,26,21.6,42.8c0,13.4-5.3,26.3-15,36.8l13.4,13.4c1.6,1.5,2,3.8,1.2,5.9
				c-0.8,2-2.8,3.3-5,3.3H92.2c-27.2,0-50.9-13.2-62.5-32.4h30.1C104.3,127.8,140.5,96.5,140.8,58 M140.8,54c-0.6,0-1.2,0.1-1.7,0.4
				c-1.4,0.7-2.3,2-2.3,3.6c-0.3,36.3-34.8,65.9-77,65.9H29.7c-1.4,0-2.8,0.8-3.5,2c-0.7,1.3-0.7,2.8,0.1,4
				c12.8,21.2,38.1,34.3,65.9,34.3H157c3.8,0,7.2-2.3,8.7-5.8c1.5-3.6,0.7-7.6-2.1-10.3l-10.8-10.8c8.8-10.6,13.5-23.5,13.5-36.6
				c0-17.3-8.4-34-23.1-45.9C142.6,54.3,141.7,54,140.8,54L140.8,54z"/>
		</g>
	</g>
	<g>
		<path class="st2" d="M72.7,8.4C33.9,8.4,2.5,35,2.5,67.8c0,13.4,5.3,26.3,15,36.8L4,118c-1.6,1.6-2,3.9-1.2,5.9
			c0.8,2,2.8,3.3,5,3.3h64.8c38.7,0,70.2-26.6,70.2-59.4S111.4,8.4,72.7,8.4z"/>
		<path class="st1" d="M72.7,129.2H7.9c-3,0-5.7-1.8-6.8-4.6c-1.2-2.7-0.5-5.9,1.6-8.1l12.1-12.1C5.4,93.8,0.5,81.1,0.5,67.8
			c0-33.9,32.4-61.4,72.2-61.4c39.8,0,72.2,27.5,72.2,61.4S112.5,129.2,72.7,129.2z M72.7,10.4c-37.6,0-68.2,25.8-68.2,57.4
			c0,13,5,25.2,14.5,35.4l1.3,1.4L5.5,119.4c-1,1-1.3,2.5-0.8,3.7c0.5,1.3,1.8,2.1,3.2,2.1h64.8c37.6,0,68.2-25.8,68.2-57.4
			C140.9,36.1,110.3,10.4,72.7,10.4z"/>
	</g>
	<g>
		<g>
			<path class="st3" d="M105.1,51.6H40.3c-3,0-5.4,2.4-5.4,5.4c0,3,2.4,5.4,5.4,5.4h64.8c3,0,5.4-2.4,5.4-5.4
				C110.5,54,108,51.6,105.1,51.6z"/>
		</g>
		<g>
			<path class="st3" d="M83.5,73.2H40.3c-3,0-5.4,2.4-5.4,5.4c0,3,2.4,5.4,5.4,5.4h43.2c3,0,5.4-2.4,5.4-5.4
				C88.9,75.6,86.4,73.2,83.5,73.2z"/>
		</g>
	</g>
</g>
</svg>
