<?xml version="1.0" encoding="utf-8"?>
<!-- Generator: Adobe Illustrator 24.0.1, SVG Export Plug-In . SVG Version: 6.00 Build 0)  -->
<svg version="1.1" id="Capa_1" xmlns="http://www.w3.org/2000/svg" xmlns:xlink="http://www.w3.org/1999/xlink" x="0px" y="0px"
	 viewBox="0 0 40 40" style="enable-background:new 0 0 40 40;" xml:space="preserve">
<style type="text/css">
	.st0{fill:#243746;}
</style>
<g>
	<g>
		<g>
			<path class="st0" d="M39.3,16.3c-0.1-0.5-0.5-0.9-1.1-1c-0.5-0.1-1,0.2-1.3,0.7c-0.4,0.9-1.3,1.5-2.2,1.5c-1.1,0-2-0.7-2.3-1.8
				c-0.2-0.6-0.8-1-1.5-0.8c-0.4,0.1-0.8,0.1-1.1,0.1c-2.7,0-4.9-2.2-4.9-4.9c0-0.4,0.1-0.7,0.1-1.1c0.1-0.6-0.2-1.3-0.8-1.5
				c-1-0.3-1.8-1.2-1.8-2.3c0-1,0.6-1.9,1.5-2.2c0.5-0.2,0.8-0.7,0.7-1.3c-0.1-0.5-0.5-1-1-1.1c-1.2-0.2-2.4-0.4-3.7-0.4
				C9,0.3,0.2,9.1,0.2,20c0,10.9,8.9,19.7,19.8,19.8c10.9,0,19.7-8.9,19.8-19.8C39.7,18.7,39.5,17.5,39.3,16.3z M32.1,32.2
				c-3.1,3.1-7.4,5.1-12.2,5.1s-9.1-1.9-12.2-5.1C4.6,29.1,2.6,24.8,2.6,20s1.9-9.1,5.1-12.2c3.1-3.1,7.4-5.1,12.2-5.1
				c0.2,0,0.4,0,0.7,0c-0.4,0.7-0.7,1.5-0.7,2.4c0,1.8,1,3.4,2.5,4.3c0,0.2,0,0.4,0,0.7c0,4.1,3.3,7.4,7.4,7.4c0.2,0,0.5,0,0.7,0
				c0.8,1.5,2.4,2.5,4.3,2.5c0.9,0,1.7-0.2,2.4-0.7c0,0.2,0,0.4,0,0.7C37.2,24.8,35.3,29.1,32.1,32.2z"/>
			<circle class="st0" cx="15" cy="10.1" r="2.5"/>
			<circle class="st0" cx="10" cy="20" r="2.5"/>
			<circle class="st0" cx="22.4" cy="29.9" r="2.5"/>
			<circle class="st0" cx="21.1" cy="21.2" r="1.2"/>
			<circle class="st0" cx="31" cy="26.2" r="1.2"/>
			<circle class="st0" cx="13.7" cy="28.6" r="1.2"/>
		</g>
	</g>
</g>
</svg>
