<?xml version="1.0" encoding="utf-8"?>
<!-- Generator: Adobe Illustrator 24.0.1, SVG Export Plug-In . SVG Version: 6.00 Build 0)  -->
<svg version="1.1" id="Capa_1" xmlns="http://www.w3.org/2000/svg" xmlns:xlink="http://www.w3.org/1999/xlink" x="0px" y="0px"
	 viewBox="0 0 169 171" style="enable-background:new 0 0 169 171;" xml:space="preserve">
<style type="text/css">
	.st0{fill:#243746;}
	.st1{fill:#F1F2F2;}
	.st2{fill:#3BD4AE;}
	.st3{fill:#F5B335;}
	.st4{fill:#F1F2F2;stroke:#F1F2F2;stroke-width:4;stroke-linejoin:round;stroke-miterlimit:10;}
	.st5{fill:#F5B335;stroke:#243746;stroke-width:4;stroke-linejoin:round;stroke-miterlimit:10;}
</style>
<g>
	<g>
		<path class="st0" d="M3.6,119.4c-1.1,0-2-0.9-2-2V15.5c0-2.9,2.4-5.3,5.3-5.3h154.5c2.9,0,5.3,2.4,5.3,5.3v101.9c0,1.1-0.9,2-2,2
			H3.6z"/>
		<path class="st0" d="M161.4,12.2c1.8,0,3.3,1.5,3.3,3.3v101.9H3.6V15.5c0-1.8,1.5-3.3,3.3-3.3H161.4 M161.4,8.2H6.9
			c-3.9,0-7.3,3.3-7.3,7.3v101.9c0,2.2,1.8,4,4,4h161.1c2.2,0,4-1.8,4-4V15.5C168.7,11.5,165.4,8.2,161.4,8.2L161.4,8.2z"/>
	</g>
	<g>
		<g>
			<path class="st1" d="M61.2,158.9c-0.6,0-1.1-0.3-1.5-0.7s-0.6-1-0.5-1.6l3.3-23.2c0.1-1,1-1.7,2-1.7h39.3c1,0,1.8,0.7,2,1.7
				l3.3,23.2c0.1,0.6-0.1,1.2-0.5,1.6s-0.9,0.7-1.5,0.7H61.2z"/>
			<path class="st0" d="M103.8,133.8l3.3,23.2H61.2l3.3-23.2H103.8 M103.8,129.8H64.5c-2,0-3.7,1.5-4,3.4l-3.3,23.2
				c-0.2,1.1,0.2,2.3,0.9,3.2c0.8,0.9,1.9,1.4,3,1.4H107c1.2,0,2.3-0.5,3-1.4c0.8-0.9,1.1-2,0.9-3.2l-3.3-23.2
				C107.5,131.2,105.8,129.8,103.8,129.8L103.8,129.8z"/>
		</g>
		<g>
			<path class="st1" d="M6.9,135.8c-2.9,0-5.3-2.4-5.3-5.3v-13.1c0-1.1,0.9-2,2-2h161.1c1.1,0,2,0.9,2,2v13.1c0,2.9-2.4,5.3-5.3,5.3
				H6.9z"/>
			<path class="st0" d="M164.7,117.4v13.1c0,1.8-1.5,3.3-3.3,3.3H6.9c-1.8,0-3.3-1.5-3.3-3.3v-13.1H164.7 M164.7,113.4H3.6
				c-2.2,0-4,1.8-4,4v13.1c0,3.9,3.3,7.3,7.3,7.3h154.5c3.9,0,7.3-3.3,7.3-7.3v-13.1C168.7,115.2,166.9,113.4,164.7,113.4
				L164.7,113.4z"/>
		</g>
		<g>
			<path class="st1" d="M49.7,162.2c-1.1,0-2-0.9-2-2v-3.3c0-1.1,0.9-2,2-2h69c1.1,0,2,0.9,2,2v3.3c0,1.1-0.9,2-2,2H49.7z"/>
			<path class="st0" d="M118.6,156.9v3.3h-69v-3.3H118.6 M118.6,152.9h-69c-2.2,0-4,1.8-4,4v3.3c0,2.2,1.8,4,4,4h69c2.2,0,4-1.8,4-4
				v-3.3C122.6,154.7,120.8,152.9,118.6,152.9L118.6,152.9z"/>
		</g>
	</g>
	<g>
		<path class="st2" d="M10.1,112.9c-1.1,0-2-0.9-2-2V18.7c0-1.1,0.9-2,2-2h148c1.1,0,2,0.9,2,2v92.1c0,1.1-0.9,2-2,2H10.1z"/>
		<path class="st0" d="M158.1,18.7v92.1h-148V18.7H158.1 M158.1,14.7h-148c-2.2,0-4,1.8-4,4v92.1c0,2.2,1.8,4,4,4h148
			c2.2,0,4-1.8,4-4V18.7C162.1,16.5,160.4,14.7,158.1,14.7L158.1,14.7z"/>
	</g>
	<g>
		<g>
			<path class="st3" d="M49.7,91.9c-1.1,0-2-0.9-2-2v-44c0-1.1,0.9-2,2-2h69c1.1,0,2,0.9,2,2v44c0,1.1-0.9,2-2,2H49.7z"/>
			<path class="st0" d="M118.6,45.9v44h-69v-44H118.6 M118.6,41.9h-69c-2.2,0-4,1.8-4,4v44c0,2.2,1.8,4,4,4h69c2.2,0,4-1.8,4-4v-44
				C122.6,43.7,120.8,41.9,118.6,41.9L118.6,41.9z"/>
		</g>
		<g>
			<path class="st0" d="M49.7,47.8c-1.1,0-2-0.9-2-2v-6.3c0-1.1,0.9-2,2-2h69c1.1,0,2,0.9,2,2v6.3c0,1.1-0.9,2-2,2H49.7z"/>
			<path class="st0" d="M118.6,39.5v6.3h-69v-6.3H118.6 M118.6,35.5h-69c-2.2,0-4,1.8-4,4v6.3c0,2.2,1.8,4,4,4h69c2.2,0,4-1.8,4-4
				v-6.3C122.6,37.3,120.8,35.5,118.6,35.5L118.6,35.5z"/>
		</g>
		<g>
			<path class="st4" d="M108.3,58.4H59.9v3.1h48.5V58.4L108.3,58.4z"/>
			<path class="st4" d="M108.3,67.8H59.9v3.1h48.5V67.8L108.3,67.8z"/>
		</g>
		<rect x="75.3" y="77.4" class="st5" width="17.7" height="3.1"/>
	</g>
</g>
</svg>
