<?xml version="1.0" encoding="utf-8"?>
<!-- Generator: Adobe Illustrator 24.0.1, SVG Export Plug-In . SVG Version: 6.00 Build 0)  -->
<svg version="1.1" id="Capa_1" xmlns="http://www.w3.org/2000/svg" xmlns:xlink="http://www.w3.org/1999/xlink" x="0px" y="0px"
	 viewBox="0 0 40 40" style="enable-background:new 0 0 40 40;" xml:space="preserve">
<style type="text/css">
	.st0{fill:#FFFFFF;}
</style>
<path class="st0" d="M20,37.6c-0.6,0-1.1-0.2-1.5-0.6c-1.6-1.4-3.1-2.7-4.5-3.9l0,0c-4-3.4-7.4-6.3-9.8-9.2
	c-2.7-3.2-3.9-6.3-3.9-9.6C0.2,11,1.3,8,3.3,5.8c2-2.2,4.9-3.4,7.9-3.4c2.3,0,4.4,0.7,6.2,2.1c0.9,0.7,1.8,1.6,2.5,2.6
	c0.7-1,1.6-1.9,2.5-2.6c1.8-1.4,3.9-2.1,6.2-2.1c3.1,0,5.9,1.2,7.9,3.4c2,2.2,3.1,5.2,3.1,8.5c0,3.3-1.2,6.4-3.9,9.6
	c-2.4,2.9-5.8,5.8-9.8,9.2c-1.4,1.2-2.9,2.5-4.5,3.9C21.1,37.4,20.6,37.6,20,37.6z M11.3,4.7c-2.4,0-4.6,1-6.2,2.7
	c-1.6,1.8-2.5,4.2-2.5,6.9c0,2.8,1,5.3,3.4,8.2c2.3,2.7,5.6,5.6,9.6,8.9l0,0c1.4,1.2,2.9,2.5,4.5,3.9c1.6-1.4,3.2-2.7,4.5-3.9
	c3.9-3.3,7.3-6.2,9.5-8.9c2.3-2.8,3.4-5.4,3.4-8.2c0-2.7-0.9-5.1-2.5-6.9c-1.6-1.7-3.8-2.7-6.2-2.7c-1.8,0-3.4,0.6-4.8,1.7
	c-1.3,1-2.2,2.2-2.7,3.1c-0.3,0.4-0.7,0.7-1.3,0.7s-1-0.3-1.3-0.7c-0.5-0.9-1.4-2.1-2.7-3.1C14.6,5.3,13,4.7,11.3,4.7z"/>
</svg>
