<?xml version="1.0" encoding="utf-8"?>
<!-- Generator: Adobe Illustrator 24.0.1, SVG Export Plug-In . SVG Version: 6.00 Build 0)  -->
<svg version="1.1" id="Capa_1" xmlns="http://www.w3.org/2000/svg" xmlns:xlink="http://www.w3.org/1999/xlink" x="0px" y="0px"
	 viewBox="0 0 167 171" style="enable-background:new 0 0 167 171;" xml:space="preserve">
<style type="text/css">
	.st0{fill:#3BD4AE;}
	.st1{fill:#243746;}
	.st2{fill:#F1F2F2;}
	.st3{fill:#F5B335;}
</style>
<g>
	<g>
		<g>
			<path class="st0" d="M88.3,159c-3.5,0-6.4-2.7-6.6-6.2c-0.1-1.8,0.4-3.5,1.6-4.8c1.2-1.3,2.8-2.2,4.5-2.3
				c28.2-2.1,50.9-23.3,55-50.9c-0.1,0-0.2,0-0.3,0c-1.8,0-3.4-0.7-4.7-1.9c-1.3-1.3-1.9-2.9-1.9-4.7s0.7-3.4,1.9-4.7l4.2-4.2
				c3.5-3.5,3.5-3.5,3.8-3.7c1.2-0.9,2.6-1.5,4.1-1.5c1,0,2,0.2,2.8,0.6c1.3,0.6,1.6,0.8,9.6,8.7c1.9,1.9,2.5,4.7,1.4,7.2
				c-1,2.5-3.4,4.1-6.1,4.1c-0.4,0-0.9,0-1.4-0.1c-2,16.2-9.4,31.4-21,43c-12.4,12.4-28.9,19.9-46.4,21.2
				C88.7,159,88.5,159,88.3,159z"/>
			<path class="st1" d="M150,76.1c0.7,0,1.4,0.2,2,0.4c1,0.5,1.2,0.5,9,8.3v0c2.9,2.9,0.8,7.9-3.3,7.9c-1,0-2.3-0.3-3.2-1
				c-2.9,34.4-30.4,62.5-65.9,65.1c-0.1,0-0.2,0-0.3,0c-2.4,0-4.4-1.9-4.6-4.3c-0.2-2.6,1.7-4.8,4.3-5c30.8-2.3,54.4-26.6,57.3-55.7
				c-0.8,0.6-1.7,0.8-2.7,0.8c-1.2,0-2.4-0.5-3.3-1.4c-1.8-1.8-1.8-4.7,0-6.6c7.7-7.7,7.5-7.5,7.8-7.8C148,76.5,149,76.1,150,76.1
				 M150,72.1c-1.9,0-3.9,0.7-5.4,1.9c-0.4,0.3-0.4,0.3-4,3.9l-4.2,4.2c-1.6,1.6-2.5,3.8-2.5,6.1c0,2.3,0.9,4.5,2.5,6.1
				c1.1,1.1,2.5,1.9,4.1,2.3c-2.2,11.5-7.9,22.2-16.3,30.5c-9.8,9.7-22.8,15.6-36.6,16.6c-2.3,0.2-4.4,1.2-5.9,3
				c-1.5,1.7-2.2,4-2.1,6.3c0.3,4.5,4.1,8,8.6,8c0.2,0,0.4,0,0.6,0c18-1.3,34.9-9.1,47.7-21.8c11.5-11.5,19-26.4,21.4-42.3
				c3.4-0.1,6.4-2.2,7.7-5.3c1.3-3.2,0.6-6.9-1.9-9.4c-8-8-8.5-8.3-10.1-9.1C152.6,72.4,151.3,72.1,150,72.1L150,72.1z"/>
		</g>
		<g>
			<path class="st0" d="M16.8,97.3c-1.6,0-3.2-0.6-4.4-1.6c-0.9-0.6-2.6-2.3-8.1-7.7c-2.6-2.6-2.6-6.8,0-9.4c1.2-1.2,3-1.9,4.9-1.9
				c0.4,0,0.9,0,1.3,0.1c2-16.2,9.4-31.4,21-43c12.4-12.4,28.9-20,46.4-21.2c0.2,0,0.3,0,0.5,0c3.5,0,6.4,2.7,6.6,6.2
				c0.3,3.7-2.5,6.8-6.1,7.1C50.7,27.8,28,49,23.9,76.6c0.1,0,0.2,0,0.3,0c1.8,0,3.4,0.7,4.7,1.9c1.3,1.3,1.9,2.9,1.9,4.7
				s-0.7,3.4-1.9,4.7l-7.4,7.4C20.2,96.6,18.5,97.3,16.8,97.3z"/>
			<path class="st1" d="M78.5,14.5c2.4,0,4.4,1.9,4.6,4.3c0.2,2.6-1.7,4.8-4.3,5C48,26,24.4,50.3,21.5,79.5c0.8-0.6,1.7-0.8,2.7-0.8
				c1.2,0,2.4,0.5,3.3,1.4c1.8,1.8,1.8,4.7,0,6.6l-7.4,7.4c-0.9,0.9-2.1,1.4-3.3,1.4c-1.1,0-2.3-0.4-3.2-1.3
				c-0.3-0.2,0.8,1.2-7.8-7.5c-1.8-1.8-1.8-4.7,0-6.6c0.9-0.9,2.2-1.4,3.4-1.4c1.1,0,2.2,0.3,3,1c2.9-34.3,30.4-62.5,65.9-65.1
				C78.2,14.5,78.3,14.5,78.5,14.5 M78.5,10.5c-0.2,0-0.4,0-0.6,0c-18,1.3-34.9,9.1-47.7,21.8c-11.5,11.5-19,26.4-21.3,42.3
				c-2.2,0.1-4.3,1-5.8,2.5c-1.6,1.6-2.5,3.8-2.5,6.1c0,2.3,0.9,4.5,2.5,6.1c5.2,5.2,7.2,7.2,8.4,8c1.6,1.3,3.5,2,5.5,2
				c2.3,0,4.5-0.9,6.1-2.5l7.4-7.4c1.6-1.6,2.5-3.8,2.5-6.1c0-2.3-0.9-4.5-2.5-6.1c-1.1-1.1-2.5-1.9-4.1-2.3
				c2.2-11.5,7.9-22.2,16.3-30.5c9.8-9.7,22.8-15.6,36.6-16.6c4.8-0.3,8.3-4.5,8-9.2C86.7,14,83,10.5,78.5,10.5L78.5,10.5z"/>
		</g>
	</g>
	<g>
		<g>
			<path class="st2" d="M117.2,80L85.1,48c-1.2-1.2-3.1-1.2-4.3,0L48.7,80c-1.2,1.2-1.2,3.1,0,4.3c1.2,1.2,3.1,1.2,4.3,0l29.9-29.9
				l0,0L57.5,79.9V115h15.6h19.6h0h15.6V79.9l4.5,4.5c0.6,0.6,1.4,0.9,2.2,0.9h0v0c0.8,0,1.6-0.3,2.2-0.9
				C118.4,83.2,118.4,81.2,117.2,80z"/>
			<path class="st1" d="M108.3,119H57.5c-2.2,0-4-1.8-4-4V88.7c-2.6,1-5.6,0.5-7.7-1.6c-2.7-2.7-2.7-7.2,0-9.9l32.1-32.1
				c2.8-2.8,7.2-2.8,10,0L120,77.2c2.8,2.8,2.8,7.2,0,10c-1.3,1.3-3.1,2.1-5,2.1c0,0,0,0,0,0c-0.9,0-1.8-0.2-2.7-0.5V115
				C112.3,117.2,110.6,119,108.3,119z M61.5,111h42.8V79.9c0-1.6,1-3.1,2.5-3.7c0.2-0.1,0.4-0.2,0.7-0.2L86.8,55.4
				c-0.2,0.7-0.5,1.4-1.1,1.9v0L61.5,81.5V111z M115.7,81.5L115.7,81.5C115.7,81.5,115.7,81.5,115.7,81.5z"/>
		</g>
		<g>
			<path class="st2" d="M108.3,115V79.9L82.9,54.5L57.5,79.9V115H108.3z"/>
			<g>
				<path class="st3" d="M115,87.3c-1.3,0-2.6-0.5-3.6-1.5L82.9,57.3L54.5,85.8c-1,1-2.2,1.5-3.6,1.5c-1.4,0-2.6-0.5-3.6-1.5
					c-1.9-2-1.9-5.2,0-7.1l32.1-32.1c1-1,2.2-1.5,3.6-1.5c1.4,0,2.6,0.5,3.6,1.5l32.1,32.1c2,2,2,5.2,0,7.2
					c-0.7,0.7-1.7,1.5-3.3,1.5L115,87.3z"/>
				<path class="st1" d="M82.9,47.1c0.8,0,1.6,0.3,2.2,0.9L117.2,80c1.2,1.2,1.2,3.1,0,4.3c-0.6,0.6-1.1,0.9-1.9,0.9c0,0,0,0,0,0
					l-0.3,0c0,0,0,0,0,0h0h0c0,0,0,0,0,0c-0.8,0-1.6-0.3-2.2-0.9L82.9,54.5L53.1,84.4c-0.6,0.6-1.4,0.9-2.2,0.9
					c-0.8,0-1.6-0.3-2.2-0.9c-1.2-1.2-1.2-3.1,0-4.3L80.8,48C81.4,47.4,82.2,47.1,82.9,47.1 M82.9,43.1c-1.9,0-3.7,0.7-5,2.1
					L45.9,77.2c-2.7,2.8-2.7,7.2,0,10c1.3,1.4,3.1,2.1,5,2.1c1.9,0,3.6-0.7,5-2l27.1-27.1L110,87.2c1.3,1.3,3.1,2.1,5,2.1l0.3,0
					c2.4,0,3.9-1.2,4.8-2.1c1.3-1.3,2.1-3.1,2.1-5c0-1.9-0.7-3.7-2.1-5L87.9,45.1C86.6,43.8,84.8,43.1,82.9,43.1L82.9,43.1z"/>
			</g>
			<g>
				<path class="st3" d="M71.1,117V82.2c0-1.7,1.4-3,3-3h17.5c1.7,0,3,1.4,3,3V117H71.1z"/>
				<path class="st1" d="M91.7,81.2c0.6,0,1,0.5,1,1V115h-0.3H73.1V82.2c0-0.6,0.5-1,1-1H91.7 M91.7,77.2H74.2c-2.8,0-5,2.3-5,5V115
					v4h4h19.3h0.3h4v-4V82.2C96.8,79.4,94.5,77.2,91.7,77.2L91.7,77.2z"/>
			</g>
			<circle class="st1" cx="88.6" cy="95.7" r="2.1"/>
		</g>
	</g>
</g>
</svg>
