<?xml version="1.0" encoding="utf-8"?>
<!-- Generator: Adobe Illustrator 24.0.1, SVG Export Plug-In . SVG Version: 6.00 Build 0)  -->
<svg version="1.1" id="Capa_1" xmlns="http://www.w3.org/2000/svg" xmlns:xlink="http://www.w3.org/1999/xlink" x="0px" y="0px"
	 viewBox="0 0 171 171" style="enable-background:new 0 0 171 171;" xml:space="preserve">
<style type="text/css">
	.st0{fill:#F1F2F2;}
	.st1{fill:#243746;}
	.st2{clip-path:url(#SVGID_2_);}
	.st3{fill:#3BD4AE;}
	.st4{fill:#F5B335;}
</style>
<g>
	<g>
		<path class="st0" d="M85.5,168.4c-25.5,0-49.2-11.5-65.1-31.5C-5.7,103.9-3,56.5,26.8,26.7C42.5,11,63.3,2.4,85.5,2.4
			c18.6,0,36.9,6.4,51.5,17.9c24.9,19.7,36.5,52.5,29.4,83.4c-7,31-31.6,55.5-62.6,62.6C97.9,167.7,91.7,168.4,85.5,168.4
			C85.5,168.4,85.5,168.4,85.5,168.4z"/>
		<path class="st1" d="M85.5,4.4c17.7,0,35.5,5.8,50.3,17.5c24.5,19.3,35.6,51,28.7,81.4c-6.9,30.4-30.6,54.2-61.1,61.1
			c-6,1.4-12,2-17.9,2c-24.4,0-48-11.1-63.5-30.7C-3.5,103.4-0.9,57.2,28.2,28.1C43.9,12.4,64.7,4.4,85.5,4.4 M85.5,0.4
			c-22.7,0-44.1,8.8-60.1,24.9c-30.5,30.5-33.3,79-6.5,112.8c8,10.1,18.3,18.3,29.8,23.9c11.4,5.5,24.2,8.4,36.8,8.4
			c6.3,0,12.6-0.7,18.8-2.1c15.7-3.6,29.9-11.4,41.3-22.8c11.4-11.4,19.2-25.6,22.8-41.3c3.6-15.7,2.6-31.9-2.7-47.1
			c-5.3-15.1-14.8-28.4-27.4-38.4C123.3,6.9,104.6,0.4,85.5,0.4L85.5,0.4z"/>
	</g>
	<g>
		<defs>
			<path id="SVGID_1_" d="M135.8,21.9C103.5-3.6,57.3-1,28.2,28.1S-3.5,103.4,22,135.7c19.3,24.5,51,35.6,81.4,28.7
				c30.4-6.9,54.2-30.6,61.1-61.1C171.4,72.9,160.2,41.3,135.8,21.9z"/>
		</defs>
		<clipPath id="SVGID_2_">
			<use xlink:href="#SVGID_1_"  style="overflow:visible;"/>
		</clipPath>
		<g class="st2">
			<path class="st3" d="M164.5,89.9c-1.4-4.4-4-8.4-7.6-11.3c-3.1-2.3-6.6-4.1-10.5-5.2c-1.6-0.4-3.2-0.6-4.8-0.6
				c-1.9,0-3.6,0.3-5.4,0.6c-2,0.3-4,0.7-6.4,0.7c-1.8,0-3.7-0.2-5.6-0.6l-0.4-0.1c-7.1-1.6-13.8-3-17.6-9.2
				c-5.5-8.8-2.8-20.4,3.3-25c2.3-1.8,4.5-2,6.5-2c0.4,0,0.9,0,1.3,0c0.4,0,0.9,0,1.3,0c1.5,0,3.1-0.1,5.2-1.1
				c4.5-2.3,8-6.2,9.9-10.9l0,0l0.1-0.3c0.4-0.9,0.7-1.8,0.9-2.7l0.8-3.1l2.4,2c19.5,15.8,30.6,39.3,30.6,64.4
				c0,1.3-0.1,2.6-0.1,3.8l-0.5,11.4L164.5,89.9z"/>
			<path class="st1" d="M136.6,22.6C155.5,38,166.5,61,166.5,85.4c0,1.3-0.1,2.6-0.1,3.9c-1.5-4.8-4.4-9.1-8.3-12.3
				c-3.3-2.5-7.1-4.4-11.2-5.6c-2-0.5-3.7-0.7-5.3-0.7c-4.2,0-7.4,1.3-11.8,1.3c-1.5,0-3.2-0.2-5.2-0.6l-0.4-0.1c0,0,0,0,0,0
				c-6.9-1.5-13-2.9-16.4-8.3c-4.8-7.7-2.6-18.3,2.8-22.3c1.8-1.4,3.5-1.6,5.3-1.6c0.9,0,1.7,0.1,2.7,0.1c1.7,0,3.7-0.2,6-1.2
				c5.1-2.6,9-7,11.1-12.3c0,0,0,0,0,0C136.1,24.6,136.4,23.6,136.6,22.6 M134.3,15.5l-1.5,6.1c-0.2,0.8-0.5,1.6-0.8,2.4l-0.3,0.7
				l0,0c-1.7,4.1-4.8,7.5-8.8,9.5c-1.6,0.7-2.9,0.9-4.3,0.9c-0.4,0-0.9,0-1.3,0c-0.5,0-0.9,0-1.4,0c-2.2,0-4.8,0.3-7.7,2.4
				c-6.8,5.1-10,17.7-3.8,27.7c3.4,5.4,8.6,7.6,14.2,9l0,0.1l4.7,1l0.4,0.1c2,0.4,4,0.7,6,0.7c2.6,0,4.8-0.4,6.8-0.7
				c1.7-0.3,3.4-0.6,5.1-0.6c1.4,0,2.8,0.2,4.3,0.6c3.5,1,6.8,2.7,9.7,4.9c3.3,2.7,5.6,6.3,6.9,10.3l6.7,21.5l1.1-22.5l0-0.2
				c0.1-1.3,0.1-2.6,0.1-3.9c0-25.7-11.4-49.7-31.3-65.9L134.3,15.5L134.3,15.5z"/>
		</g>
		<g class="st2">
			<path class="st3" d="M85.5,168.4c-3.3,0-6.6-0.2-9.9-0.6l-0.8-0.1l-0.5-0.6c-0.7-0.8-1.3-1.6-1.8-2.6c-2.7-5-2.7-10.9,0-15.9
				c2-3.3,4.5-4.4,6.7-5.3c1.8-0.8,3.3-1.4,4.6-3.3c3.6-5,2.4-14.3-2.6-19.8c-0.1-0.1-0.3-0.4-0.6-0.6c-2.4-2.6-5.7-4.1-9.1-4.3
				c-2.6,0.2-5.1,1-7.3,2.5l-0.1,0.1l-0.1,0.1c-2.8,1.4-12.6,5.9-21.1,5.9c-0.8,0-1.6,0-2.4-0.1c-8.8-1-14.6-7.8-18.1-11.9
				c-8.3-9.7-9.9-20.4-11.6-31.7c-1.9-10.1-2-20.3-0.2-30.5v-0.3l0.2-0.4C24.6,21.2,52.2,3.4,83.1,2.5l3.4-0.1l-1.5,3
				C80,15.1,78.1,25,79.1,29.1c1.1,4.5,3.5,7.5,5.8,10.3c2.8,3.4,5.6,6.9,5.5,12.6C90,62.4,79.5,70.1,75.5,73
				c-6.3,4.7-11.9,6.5-16.4,8c-4.8,1.6-7.1,2.4-8,4.9c-1,4.5,0.9,9.2,4.8,11.8c1,0.6,2,0.9,3.3,0.9c1.3,0,2.7-0.3,4.3-0.6
				c2.3-0.4,5.2-1,8.7-1c1.7,0,3.4,0.1,5.1,0.4c5.9,0.8,11.9,1.7,15.3,6.4c1.4,2,2.1,4.5,2,6.9c0,1.1-0.1,2.2-0.2,3.4
				c-0.2,3.5-0.5,7.4,1.2,12.6c0.7,2,2.3,6.8,4,7c0.1,0,0.1,0,0.1,0c0.8,0,2.2-2,3.5-3.9c1.9-2.8,4.6-6.6,8.8-9.7
				c6.1-4,13-6.1,20.2-6.1c1.2,0,2.4,0.1,3.5,0.2c6.3,0.3,13.6,3.3,21.6,8.7l1.5,1l-0.9,1.6C143.6,151.9,115.8,168.4,85.5,168.4
				C85.5,168.4,85.5,168.4,85.5,168.4z"/>
			<path class="st1" d="M83.2,4.5c-5.1,10.1-7.1,20.5-6,25.1c2.5,10.5,11.5,13.2,11.2,22.3c-0.3,9.4-9.9,16.6-14,19.6
				c-12.5,9.3-22.8,7-25.1,14c-1.2,5.4,1,10.9,5.6,14c1.5,0.9,2.9,1.2,4.4,1.2c3.4,0,7.2-1.6,13.1-1.6c1.5,0,3.1,0.1,4.8,0.3
				c5.7,0.8,11.1,1.6,14,5.6c1.2,1.7,1.7,3.7,1.6,5.7c0,4.2-1.3,9.2,1.2,16.6c1.1,3.3,2.7,8,5.6,8.4c0.1,0,0.3,0,0.4,0
				c3.8,0,5.6-8.2,13.6-14c5.7-3.8,12.3-5.7,19-5.7c1.1,0,2.2,0.1,3.3,0.2c7.7,0.4,15.6,4.9,20.7,8.3
				c-14.2,25.9-41.4,41.9-70.9,41.9c0,0,0,0,0,0c-3.2,0-6.4-0.2-9.6-0.6c-0.6-0.7-1.1-1.4-1.5-2.2c-2.3-4.4-2.3-9.6,0-14
				c3.1-5.2,7.8-3.6,11.2-8.4c4.2-5.9,2.7-16.2-2.8-22.3c-0.1-0.2-0.4-0.4-0.7-0.7c-2.8-2.9-6.5-4.6-10.5-4.9
				c-3,0.2-5.9,1.1-8.4,2.8c-1.7,0.8-11.7,5.7-20.2,5.7c-0.7,0-1.4,0-2.1-0.1c-8-0.9-13.3-7.1-16.8-11.2
				c-7.9-9.2-9.5-19.5-11.2-30.7c-1.9-9.9-1.9-20.1-0.1-30v0C26,22.8,53.1,5.3,83.2,4.5 M89.8,0.3l-6.7,0.2
				C51.4,1.4,23.1,19.6,9.2,48l-0.4,0.8v0.6C6.9,59.8,7,70.2,8.9,80.5c1.8,11.6,3.4,22.5,12.1,32.6c3.6,4.3,9.7,11.5,19.4,12.5
				c0.8,0.1,1.7,0.1,2.6,0.1c8.6,0,18.2-4.3,22-6.1l0.2-0.1l0.2-0.1c1.8-1.2,4-1.9,6.2-2.1c2.9,0.2,5.6,1.5,7.6,3.6l0,0l0,0
				c0.2,0.2,0.4,0.4,0.5,0.5c4.4,4.8,5.5,13.1,2.5,17.4c-1,1.4-2.1,1.9-3.8,2.6c-2.2,0.9-5.3,2.2-7.6,6.1l0,0.1l0,0.1
				c-3,5.6-3,12.2,0,17.8c0.6,1.1,1.3,2,2,2.9l1,1.2l1.5,0.2c3.3,0.4,6.7,0.6,10.1,0.6c31,0,59.5-16.9,74.5-44l1.8-3.2l-3-2
				c-8.3-5.6-15.9-8.6-22.6-9c-1.2-0.1-2.4-0.2-3.6-0.2c-7.6,0-14.9,2.2-21.2,6.4l-0.1,0l-0.1,0.1c-4.6,3.3-7.3,7.3-9.3,10.2
				c-0.6,0.9-1.3,1.9-1.9,2.6c-0.9-1.3-1.8-4.2-2.2-5.2c-1.6-4.9-1.4-8.4-1.1-11.8c0.1-1.2,0.2-2.3,0.2-3.5c0.1-2.8-0.7-5.7-2.3-8
				l0,0l0,0c-3.9-5.4-10.4-6.3-16.6-7.2C75.9,95.1,74,95,72.3,95c-3.8,0-6.7,0.6-9.1,1c-1.6,0.3-2.9,0.6-4,0.6
				c-0.9,0-1.5-0.2-2.2-0.6c-3.1-2.1-4.6-5.9-3.9-9.5c0.6-1.5,2.3-2.2,6.7-3.6c4.4-1.4,10.4-3.4,16.9-8.3C80.9,71.6,92,63.4,92.3,52
				c0.2-6.4-3-10.4-5.9-13.9c-2.3-2.8-4.4-5.4-5.4-9.5c-0.7-3,0.6-12.2,5.7-22.3L89.8,0.3L89.8,0.3z"/>
		</g>
	</g>
	<g>
		<path class="st1" d="M47,26.5c0,3.9-3.2,7.1-7.1,7.1s-7.1-3.2-7.1-7.1s3.2-7.1,7.1-7.1S47,22.6,47,26.5z"/>
		<g>
			<path class="st4" d="M40.5,61.7c-0.9,0-1.7-0.4-2.3-1.1c-2.7-3.1-11.8-14-16.5-24.5c-1.2-2.6-1.8-5.5-1.8-8.4
				c0-11.4,9.3-20.6,20.6-20.6c11.4,0,20.6,9.3,20.6,20.6c0,3-0.6,5.8-1.8,8.4c-4.8,10.4-13.9,21.4-16.5,24.5
				C42.2,61.4,41.4,61.7,40.5,61.7z M46,32v-4.8c0-0.7,0.4-1.4,1-1.7l-6.6-6.6l-6.6,6.6c0.1,0.1,0.3,0.2,0.4,0.3
				c0.4,0.4,0.6,0.9,0.6,1.4l0,4.8l2.1,0l0-3.3c0-2,1.6-3.6,3.5-3.6c0,0,0,0,0,0c2,0,3.5,1.6,3.5,3.6l0,3.3L46,32z"/>
			<path class="st1" d="M40.5,9.1c10.3,0,18.6,8.4,18.6,18.6c0,2.7-0.5,5.2-1.6,7.6c-4.7,10.2-13.6,21-16.2,24
				c-0.2,0.2-0.5,0.4-0.8,0.4c-0.3,0-0.6-0.1-0.8-0.4c-2.6-3.1-11.6-13.8-16.2-24c-1.1-2.4-1.6-4.9-1.6-7.6
				C21.9,17.5,30.2,9.1,40.5,9.1 M32,27.1l0.8,0l0,5.7c0,0.6,0.5,1.2,1.2,1.2l4.9,0l0-5.3c0-0.9,0.7-1.6,1.5-1.6c0,0,0,0,0,0
				c0.9,0,1.5,0.7,1.5,1.6l0,5.3l4.9,0c0.6,0,1.2-0.5,1.2-1.2v-5.7l0.8,0c0,0,0,0,0,0c0.3,0,0.5-0.1,0.7-0.3c0.5-0.5,0.5-1.2,0-1.7
				l-8.3-8.3c-0.2-0.2-0.5-0.3-0.8-0.3s-0.6,0.1-0.8,0.3l-8.3,8.3c-0.5,0.5-0.5,1.2,0,1.7C31.5,27,31.7,27.1,32,27.1 M40.5,5.1
				C28,5.1,17.9,15.3,17.9,27.8c0,3.3,0.7,6.4,2,9.3C24.7,47.7,34,58.8,36.7,62c1,1.1,2.4,1.8,3.8,1.8c1.5,0,2.9-0.6,3.8-1.7
				c2.7-3.2,11.9-14.3,16.8-25c1.3-2.9,2-6,2-9.3C63.1,15.3,53,5.1,40.5,5.1L40.5,5.1z M38.6,23.4l1.8-1.8l1.8,1.8
				c-0.6-0.2-1.2-0.3-1.8-0.3C39.8,23.1,39.2,23.2,38.6,23.4L38.6,23.4z"/>
		</g>
	</g>
	<g>
		<path class="st1" d="M131,99.4c0,3.9-3.2,7.1-7.1,7.1s-7.1-3.2-7.1-7.1s3.2-7.1,7.1-7.1S131,95.5,131,99.4z"/>
		<g>
			<path class="st4" d="M124.5,134.6c-0.9,0-1.7-0.4-2.3-1.1c-2.7-3.1-11.8-14-16.5-24.5c-1.2-2.6-1.8-5.5-1.8-8.4
				c0-11.4,9.3-20.6,20.6-20.6c11.4,0,20.6,9.3,20.6,20.6c0,3-0.6,5.8-1.8,8.4c-4.8,10.4-13.9,21.4-16.5,24.5
				C126.3,134.3,125.4,134.6,124.5,134.6z M130,104.9V100c0-0.7,0.4-1.4,1-1.7l-6.6-6.6l-6.6,6.6c0.1,0.1,0.3,0.2,0.4,0.3
				c0.4,0.4,0.6,0.9,0.6,1.4l0,4.8l2.1,0l0-3.3c0-1,0.4-1.9,1-2.5c0.7-0.7,1.5-1,2.5-1c2,0,3.5,1.6,3.5,3.6l0,3.3L130,104.9z"/>
			<path class="st1" d="M124.5,82c10.3,0,18.6,8.4,18.6,18.6c0,2.7-0.5,5.2-1.6,7.6c-4.7,10.2-13.6,21-16.2,24
				c-0.2,0.2-0.5,0.4-0.8,0.4c-0.3,0-0.6-0.1-0.8-0.4c-2.6-3.1-11.6-13.8-16.2-24c-1.1-2.4-1.6-4.9-1.6-7.6
				C105.9,90.4,114.2,82,124.5,82 M116,100l0.8,0l0,5.7c0,0.6,0.5,1.2,1.2,1.2l4.9,0l0-5.3c0-0.9,0.7-1.6,1.5-1.6c0,0,0,0,0,0
				c0.9,0,1.5,0.7,1.5,1.6l0,5.3l4.9,0c0.6,0,1.2-0.5,1.2-1.2V100l0.8,0c0,0,0,0,0,0c0.3,0,0.5-0.1,0.7-0.3c0.5-0.5,0.5-1.2,0-1.7
				l-8.3-8.3c-0.2-0.2-0.5-0.3-0.8-0.3s-0.6,0.1-0.8,0.3l-8.3,8.3c-0.5,0.5-0.5,1.2,0,1.7C115.5,99.9,115.7,100,116,100 M124.5,78
				c-12.5,0-22.6,10.2-22.6,22.6c0,3.3,0.7,6.4,2,9.3c4.9,10.7,14.1,21.8,16.8,25c1,1.1,2.4,1.8,3.8,1.8c1.5,0,2.9-0.6,3.8-1.7
				c2.7-3.2,11.9-14.3,16.8-25c1.3-2.9,2-6,2-9.3C147.2,88.2,137,78,124.5,78L124.5,78z M122.7,96.3l1.8-1.8l1.8,1.8
				c-0.6-0.2-1.2-0.3-1.8-0.3C123.8,96,123.2,96.1,122.7,96.3L122.7,96.3z"/>
		</g>
	</g>
</g>
</svg>
