<?xml version="1.0" encoding="utf-8"?>
<!-- Generator: Adobe Illustrator 24.0.1, SVG Export Plug-In . SVG Version: 6.00 Build 0)  -->
<svg version="1.1" id="Capa_1" xmlns="http://www.w3.org/2000/svg" xmlns:xlink="http://www.w3.org/1999/xlink" x="0px" y="0px"
	 viewBox="0 0 70 70" style="enable-background:new 0 0 70 70;" xml:space="preserve">
<style type="text/css">
	.st0{fill:#F5B335;}
	.st1{fill:#3BD4AE;}
</style>
<g>
	<g>
		<g>
			<path class="st0" d="M31.5,8.4c-2.7,0.4-5.8,1.5-8.2,3.1c-2.7,1.7-4.7,3.9-6.7,6.9C15.1,21,14,24.9,14,27.7c0,4.5,1.1,8,3.7,12.2
				c2.8,4.6,7.2,9.1,11.5,13.2c0.3,0.3,0.6,0.6,0.9,0.8c0.4,0.4,0.8,0.7,1.2,1.1c0.1,0.1,0.2,0.1,0.3,0.1c0.1,0,0.2,0,0.2-0.1
				c0.1-0.1,0.2-0.3,0.1-0.5c-5.6-7.5-8.2-15.8-8.2-26c0-4.4,1.1-8.6,3.3-12.6c1.8-3.4,4-5.8,5.1-7C32,8.9,32,8.8,31.9,8.6
				C31.8,8.5,31.7,8.4,31.5,8.4z"/>
			<path class="st0" d="M53.4,18.5c-1.9-3.1-4-5.2-6.7-6.9c-2.4-1.6-5.5-2.7-8.2-3.1c-0.2,0-0.3,0.1-0.4,0.2
				c-0.1,0.1-0.1,0.3,0.1,0.4c1.1,1.2,3.2,3.6,5.1,7c2.2,4,3.3,8.2,3.3,12.6c0,10.3-2.6,18.6-8.2,26c-0.1,0.2-0.1,0.4,0.1,0.5
				c0.1,0.1,0.2,0.1,0.2,0.1c0.1,0,0.2,0,0.3-0.1c0.4-0.4,0.8-0.8,1.2-1.1c0.3-0.3,0.6-0.6,0.9-0.8c4.3-4.2,8.7-8.7,11.5-13.2
				c2.6-4.2,3.7-7.8,3.7-12.2C56.2,24.9,55,21,53.4,18.5z"/>
		</g>
		<g>
			<path class="st0" d="M40.8,63.9l-5.2-5.2c-0.1-0.1-0.3-0.2-0.5-0.2c-0.2,0-0.4,0.1-0.5,0.2l-5.2,5.2c-0.3,0.3-0.3,0.8,0,1
				c0.1,0.1,0.3,0.2,0.5,0.2l0.5,0l0,3.6c0,0.4,0.3,0.7,0.7,0.7l3.1,0l0-3.3c0-0.5,0.4-1,1-1c0,0,0,0,0,0c0.5,0,1,0.4,1,1l0,3.3
				l3.1,0c0.4,0,0.7-0.3,0.7-0.7v-3.6l0.5,0c0.2,0,0.3-0.1,0.5-0.2C41.1,64.7,41.1,64.2,40.8,63.9z"/>
		</g>
	</g>
	<path class="st1" d="M60,14.4C57.5,10.2,54,6.8,49.9,4.4c-4.4-2.6-9.4-3.9-14.8-3.9c0,0,0,0,0,0c0,0,0,0,0,0s0,0,0,0
		c-5.4,0-10.3,1.3-14.8,3.9c-4.1,2.4-7.7,5.9-10.2,10.1c-2.5,4.1-3.8,8.8-3.8,13.5c0,3,0.5,5.9,1.5,8.8c0.8,2.4,2.1,4.8,4.1,8
		c4.1,6.3,12,14.1,15.2,17.2c0.1,0.1,0.3,0.2,0.5,0.2c0.2,0,0.4-0.1,0.5-0.2l3.1-3.1c0.1-0.1,0.2-0.3,0.2-0.5c0-0.2-0.1-0.4-0.2-0.5
		c-2.8-2.6-11.5-11.2-14.7-16.1c-1.6-2.5-2.7-4.8-3.5-7c-0.7-2.2-1.1-4.4-1.1-6.7c0-3.6,1-7.2,3-10.5c4.3-7.1,11.6-11.1,20-11.2
		c8.4,0,15.7,4.1,20,11.2c2,3.3,3,6.9,3,10.5c0,2.3-0.3,4.5-1.1,6.7c-0.7,2.2-1.9,4.5-3.5,7c-3.2,4.9-11.9,13.6-14.7,16.1
		c-0.1,0.1-0.2,0.3-0.2,0.5c0,0.2,0.1,0.4,0.2,0.5l3.1,3.1c0.1,0.1,0.3,0.2,0.5,0.2c0.2,0,0.4-0.1,0.5-0.2c1.5-1.4,4.3-4.2,7.3-7.4
		c3.5-3.8,6.1-7.1,7.9-9.8c2-3.2,3.3-5.6,4.1-8c1-2.9,1.5-5.8,1.5-8.8C63.8,23.2,62.5,18.5,60,14.4z"/>
</g>
</svg>
