<?xml version="1.0" encoding="utf-8"?>
<!-- Generator: Adobe Illustrator 25.3.1, SVG Export Plug-In . SVG Version: 6.00 Build 0)  -->
<svg version="1.1" id="Capa_1" xmlns="http://www.w3.org/2000/svg" xmlns:xlink="http://www.w3.org/1999/xlink" x="0px" y="0px"
	 viewBox="0 0 49 35.4" style="enable-background:new 0 0 49 35.4;" xml:space="preserve">
<style type="text/css">
	.st0{fill:#3BD4AE;}
</style>
<g>
	<path class="st0" d="M15.2,18.3h-3.7c-3.2,0-5.7,2.6-5.7,5.7v1.8c0,0.3,0.3,0.6,0.6,0.6h13.9h0c0.3,0,0.6-0.3,0.6-0.6V24
		C20.9,20.9,18.3,18.3,15.2,18.3 M19.6,25.2H7V24c0-2.5,2-4.5,4.5-4.5h3.7c2.5,0,4.5,2,4.5,4.5V25.2z"/>
	<path class="st0" d="M42.7,23.9H25.8c-0.3,0-0.6,0.3-0.6,0.6c0,0.3,0.2,0.6,0.6,0.7h16.8c0.3,0,0.6-0.3,0.6-0.6
		C43.3,24.2,43,23.9,42.7,23.9"/>
	<path class="st0" d="M16.3,16.2L16.3,16.2C16.3,16.2,16.3,16.2,16.3,16.2c1.7-1.7,1.7-4.4,0-6c-0.8-0.8-1.9-1.2-3-1.2
		c-1.1,0-2.2,0.4-3,1.2l0,0c0,0,0,0,0,0c-1.7,1.7-1.6,4.3,0,6C12,17.8,14.6,17.8,16.3,16.2 M11.2,11.1L11.2,11.1
		c1.2-1.2,3.1-1.1,4.2,0l0,0c1.2,1.2,1.2,3,0,4.2l0,0c-1.2,1.1-3,1.1-4.2,0C10.1,14.1,10.1,12.2,11.2,11.1"/>
	<path class="st0" d="M44.6,0.2H4.4c-2.3,0-4.2,1.9-4.2,4.2V31c0,2.3,1.9,4.2,4.2,4.2h40.2c2.3,0,4.2-1.9,4.2-4.2V4.4
		C48.8,2.1,46.9,0.2,44.6,0.2 M47.6,31c0,1.6-1.3,2.9-2.9,2.9H4.4c-1.6,0-2.9-1.3-2.9-2.9V4.4c0-1.6,1.3-2.9,2.9-2.9h40.2
		c1.6,0,2.9,1.3,2.9,2.9V31z"/>
	<path class="st0" d="M42.7,10.3H25.8c-0.3,0-0.6,0.3-0.6,0.6c0,0.3,0.2,0.6,0.6,0.7h16.8c0.3,0,0.6-0.3,0.6-0.6
		C43.3,10.6,43,10.3,42.7,10.3"/>
	<path class="st0" d="M42.7,17.1H25.8c-0.3,0-0.6,0.3-0.6,0.6c0,0.3,0.2,0.6,0.6,0.7h16.8c0.3,0,0.6-0.3,0.6-0.6
		C43.3,17.4,43,17.1,42.7,17.1"/>
	<path class="st0" d="M42.7,13.7H25.8c-0.3,0-0.6,0.3-0.6,0.6c0,0.3,0.2,0.6,0.6,0.7h16.8c0.3,0,0.6-0.3,0.6-0.6
		C43.3,14,43,13.7,42.7,13.7"/>
	<path class="st0" d="M42.7,20.5H25.8c-0.3,0-0.6,0.3-0.6,0.6c0,0.3,0.2,0.6,0.6,0.7h16.8c0.3,0,0.6-0.3,0.6-0.6
		C43.3,20.8,43,20.5,42.7,20.5"/>
</g>
</svg>
