<?xml version="1.0" encoding="utf-8"?>
<!-- Generator: Adobe Illustrator 24.0.1, SVG Export Plug-In . SVG Version: 6.00 Build 0)  -->
<svg version="1.1" id="Capa_1" xmlns="http://www.w3.org/2000/svg" xmlns:xlink="http://www.w3.org/1999/xlink" x="0px" y="0px"
	 viewBox="0 0 169 171" style="enable-background:new 0 0 169 171;" xml:space="preserve">
<style type="text/css">
	.st0{fill:#243746;}
	.st1{fill-rule:evenodd;clip-rule:evenodd;fill:#243746;}
	.st2{fill-rule:evenodd;clip-rule:evenodd;fill:#F5B335;}
	.st3{fill-rule:evenodd;clip-rule:evenodd;fill:#F1F2F2;}
	.st4{fill-rule:evenodd;clip-rule:evenodd;fill:#3BD4AE;}
	.st5{fill:#F1F2F2;}
</style>
<g>
	<g>
		<path class="st0" d="M66.2,76.5c-1.3,0-2.4-1.1-2.4-2.4V56.9c0-1.3,1.1-2.4,2.4-2.4s2.4,1.1,2.4,2.4v17.3
			C68.6,75.5,67.5,76.5,66.2,76.5z M56.7,76.5c-1.3,0-2.4-1.1-2.4-2.4V56.9c0-1.3,1.1-2.4,2.4-2.4s2.4,1.1,2.4,2.4v17.3
			C59.1,75.5,58,76.5,56.7,76.5z"/>
	</g>
	<g>
		<g>
			<path class="st1" d="M55.5,95.5c-2.5,0-4.5-2-4.5-4.5V79.7c0-2.5,2-4.5,4.5-4.5h11.9c2.5,0,4.5,2,4.5,4.5V91c0,2.5-2,4.5-4.5,4.5
				H55.5z"/>
			<g>
				<path class="st0" d="M67.4,77.2c1.4,0,2.5,1.1,2.5,2.5V91c0,1.4-1.1,2.5-2.5,2.5H55.5c-1.4,0-2.5-1.1-2.5-2.5V79.7
					c0-1.4,1.1-2.5,2.5-2.5H67.4 M67.4,73.2H55.5c-3.6,0-6.5,2.9-6.5,6.5V91c0,3.6,2.9,6.5,6.5,6.5h11.9c3.6,0,6.5-2.9,6.5-6.5V79.7
					C73.9,76.1,71,73.2,67.4,73.2L67.4,73.2z"/>
			</g>
		</g>
		<g>
			<path class="st2" d="M6,168.4c-2,0-2.9-1-3.2-1.7c-0.3-0.6-0.7-1.9,0.5-3.6L37,116.5c0.9-1.2,1.9-1.9,3.1-1.9
				c1.2,0,2.2,0.6,3.1,1.9L60,139.8l20.6,28.6H6z"/>
			<path class="st0" d="M40.1,116.6c0.5,0,1,0.4,1.5,1l13.8,19.1l3,4.2l18.3,25.4H40.1H6c-1.5,0-2-0.8-1.1-2.1L21.8,141l3-4.2l0,0
				l13.8-19.1C39.1,117,39.6,116.6,40.1,116.6 M40.1,112.6c-1.3,0-3.1,0.5-4.7,2.7l-13.8,19.1l-3,4.2L1.7,162
				c-1.9,2.6-1.1,4.8-0.7,5.6c0.4,0.8,1.8,2.8,5,2.8h34h36.6h7.8l-4.6-6.3l-18.3-25.4l-3-4.2l-13.8-19.1
				C43.2,113.1,41.3,112.6,40.1,112.6L40.1,112.6z"/>
		</g>
		<path class="st2" d="M55.3,136.8l3,4.2l18.3,25.4H40.1H6c-1.5,0-2-0.8-1.1-2.1L21.8,141l3-4.2l15.6-8.3L55.3,136.8z"/>
		<g>
			<path class="st2" d="M46.9,168.4c-1.5,0-2.6-0.6-3.1-1.7c-0.5-1.1-0.4-2.4,0.5-3.5l57.6-80c1.1-1.5,2.3-1.8,3.1-1.8
				c0.8,0,2,0.3,3.1,1.8l28.8,40l28.8,40c1.2,1.7,0.9,3,0.6,3.6c-0.3,0.6-1.2,1.6-3.2,1.6H46.9z"/>
			<path class="st0" d="M104.9,83.3c0.5,0,1,0.3,1.5,1l20.1,27.9l8.7,12.1l28.8,40c0.9,1.3,0.5,2.1-1,2.1h-58h-58
				c-1.4,0-1.9-0.9-1-2.1l28.8-40l8.7-12.1l20.1-27.9C103.9,83.7,104.4,83.3,104.9,83.3 M104.9,79.3c-1,0-3.1,0.3-4.7,2.7
				l-20.1,27.9L71.4,122l-28.8,40c-1.3,1.8-1.5,3.9-0.6,5.6c0.9,1.7,2.7,2.8,4.9,2.8h58h58c3.3,0,4.6-1.9,5-2.7
				c0.4-0.8,1.2-3-0.7-5.7l-28.8-40l-8.7-12.1L109.6,82C108,79.7,106,79.3,104.9,79.3L104.9,79.3z"/>
		</g>
		<path class="st2" d="M126.5,112.3l8.7,12.1l28.8,40c0.9,1.3,0.5,2.1-1,2.1h-58h-58c-1.4,0-1.9-0.9-1-2.1l28.8-40l8.7-12.1l21.8-8
			L126.5,112.3z"/>
		<path class="st3" d="M41.5,117.7c-1-1.4-1.9-1.4-3,0l-13.8,19.1c0.5,0.2,1,0.3,1.5,0.3c2.3,0,4.6-2.6,6.9-2.6
			c2.3,0,4.6,2.6,6.9,2.6c2.3,0,4.6-2.6,6.9-2.6c2.3,0,4.6,2.6,6.9,2.6c0.5,0,1-0.1,1.5-0.3L41.5,117.7z"/>
		<path class="st3" d="M106.4,84.3c-0.9-1.3-2-1.4-3,0l-20.1,27.9c1.4,0.8,2.8,1.6,4.2,1.6c2.9,0,5.8-3.3,8.7-3.3
			c2.9,0,5.8,3.3,8.7,3.3c2.9,0,5.8-3.3,8.7-3.3c2.9,0,5.8,3.3,8.7,3.3c1.4,0,2.8-0.8,4.2-1.6L106.4,84.3z"/>
		<g>
			<path class="st4" d="M54.3,62.6c-0.5,0-1-0.2-1.4-0.6c-8.2-8.3-14.7-15.3-17.4-23.6c0,0,0-0.1,0-0.1c-0.9-2.8-1.4-5.6-1.4-8.5
				c0-2.9,0.5-5.8,1.4-8.5C39.1,10,49.5,2.4,61.4,2.4c11.9,0,22.4,7.6,26.1,18.9c0.9,2.7,1.4,5.6,1.4,8.5c0,2.9-0.4,5.7-1.4,8.5
				c0,0,0,0.1,0,0.1C84.7,46.7,78.2,53.7,70,62c-0.4,0.4-0.9,0.6-1.4,0.6H54.3z"/>
			<path class="st0" d="M61.4,4.4c11.3,0,20.9,7.4,24.2,17.5l0,0c0.8,2.5,1.3,5.1,1.3,7.9c0,2.8-0.4,5.4-1.3,7.9h0
				c-2.6,7.9-9,14.8-17,22.9H54.3c-8-8.1-14.4-15-17-22.9h0c-0.8-2.5-1.3-5.1-1.3-7.9c0-2.8,0.4-5.4,1.3-7.9
				C40.6,11.8,50.1,4.4,61.4,4.4 M61.4,0.4c-12.8,0-24,8.2-28,20.3c-1,2.9-1.5,6-1.5,9.2c0,3.2,0.5,6.2,1.5,9.2c0,0.1,0,0.1,0.1,0.2
				c2.9,8.6,9.5,15.8,17.9,24.3c0.8,0.8,1.8,1.2,2.8,1.2h14.3c1.1,0,2.1-0.4,2.8-1.2c8.4-8.5,15-15.6,17.9-24.3c0-0.1,0-0.1,0.1-0.2
				c1-3,1.5-6,1.5-9.2c0-3.1-0.5-6.2-1.5-9.2C85.5,8.6,74.2,0.4,61.4,0.4L61.4,0.4z"/>
		</g>
		<path class="st3" d="M86.9,29.8c0-2.8-0.4-5.4-1.3-7.9l0,0H37.3c0,0-1.3,5.1-1.3,7.9c0,2.8,0.4,5.4,1.3,7.9h0h48.3h0
			C86.4,35.2,86.9,32.6,86.9,29.8z"/>
	</g>
	<g>
		<path class="st5" d="M52.9,81.6c-2.4,0-4.4-2-4.4-4.4c0-2.4,2-4.4,4.4-4.4H70c2.4,0,4.4,2,4.4,4.4c0,2.4-2,4.4-4.4,4.4H52.9z"/>
		<path class="st0" d="M70,74.8c1.3,0,2.4,1.1,2.4,2.4c0,1.3-1.1,2.4-2.4,2.4H52.9c-1.3,0-2.4-1.1-2.4-2.4c0-1.3,1.1-2.4,2.4-2.4H70
			 M70,70.8H52.9c-3.5,0-6.4,2.9-6.4,6.4c0,3.5,2.9,6.4,6.4,6.4H70c3.5,0,6.4-2.9,6.4-6.4C76.4,73.7,73.5,70.8,70,70.8L70,70.8z"/>
	</g>
</g>
</svg>
