<?xml version="1.0" encoding="utf-8"?>
<!-- Generator: Adobe Illustrator 25.3.1, SVG Export Plug-In . SVG Version: 6.00 Build 0)  -->
<svg version="1.1" id="Capa_1" xmlns="http://www.w3.org/2000/svg" xmlns:xlink="http://www.w3.org/1999/xlink" x="0px" y="0px"
	 viewBox="0 0 51.3 51.3" style="enable-background:new 0 0 51.3 51.3;" xml:space="preserve">
<style type="text/css">
	.st0{fill:none;stroke:#758592;stroke-miterlimit:10;}
	.st1{fill:#758592;}
</style>
<g>
	<circle class="st0" cx="25.7" cy="25.7" r="25"/>
	<path class="st1" d="M24.1,14.3c-1.1,0.2-2.4,0.6-3.5,1.3c-1.1,0.7-2,1.6-2.8,3c-0.7,1.1-1.2,2.7-1.2,3.9c0,1.9,0.4,3.4,1.6,5.2
		c1.2,1.9,3,3.9,4.9,5.6c0.1,0.1,0.2,0.2,0.4,0.4c0.2,0.2,0.3,0.3,0.5,0.5h0.1h0.1c0.1-0.1,0.1-0.1,0-0.2c-2.4-3.2-3.5-6.7-3.5-11.1
		c0-1.9,0.5-3.7,1.4-5.4c0.8-1.4,1.7-2.5,2.2-3c0-0.1,0.1-0.1,0-0.2C24.2,14.4,24.2,14.3,24.1,14.3"/>
	<path class="st1" d="M33.4,18.6c-0.8-1.3-1.7-2.2-2.8-3c-1-0.7-2.3-1.2-3.5-1.3c-0.1,0-0.1,0-0.2,0.1c0,0.1,0,0.1,0,0.2
		c0.4,0.5,1.4,1.5,2.2,3c0.9,1.7,1.4,3.5,1.4,5.4c0,4.4-1.1,7.9-3.5,11.1c-0.1,0.1,0,0.2,0,0.2h0.1h0.1c0.2-0.2,0.3-0.3,0.5-0.5
		c0.1-0.1,0.3-0.2,0.4-0.4c1.8-1.8,3.7-3.7,4.9-5.6c1.1-1.8,1.6-3.3,1.6-5.2C34.6,21.3,34.1,19.7,33.4,18.6"/>
	<path class="st1" d="M28,37.9l-2.2-2.2c-0.1-0.1-0.1-0.1-0.2-0.1s-0.2,0-0.2,0.1l-2.2,2.2c-0.1,0.1-0.1,0.3,0,0.4
		c0.1,0.1,0.1,0.1,0.2,0.1h0.2v1.5c0,0.2,0.1,0.3,0.3,0.3h1.3v-1.4c0-0.2,0.2-0.4,0.4-0.4c0.2,0,0.4,0.2,0.4,0.4v1.4h1.3
		c0.2,0,0.3-0.1,0.3-0.3v-1.5h0.2c0.1,0,0.1,0,0.2-0.1C28.2,38.3,28.2,38.1,28,37.9"/>
	<path class="st1" d="M36.2,16.9c-1.1-1.8-2.6-3.3-4.3-4.3c-1.9-1.1-4-1.6-6.3-1.6s-4.4,0.6-6.3,1.6c-1.8,1-3.3,2.5-4.3,4.3
		c-1.1,1.7-1.6,3.7-1.6,5.7c0,1.3,0.2,2.5,0.6,3.7c0.3,1,0.9,2.1,1.7,3.4c1.7,2.7,5.1,6,6.5,7.3c0.1,0.1,0.1,0.1,0.2,0.1
		s0.2,0,0.2-0.1l1.3-1.3c0.1-0.1,0.1-0.1,0.1-0.2c0-0.1,0-0.2-0.1-0.2c-1.2-1.1-4.9-4.8-6.2-6.9c-0.7-1.1-1.2-2-1.5-3
		c-0.3-0.9-0.5-1.9-0.5-2.8c0-1.5,0.4-3.1,1.3-4.5c1.8-3,4.9-4.7,8.5-4.7s6.7,1.7,8.5,4.7c0.8,1.4,1.3,2.9,1.3,4.5
		c0,1-0.1,1.9-0.5,2.8c-0.3,0.9-0.8,1.9-1.5,3c-1.4,2.1-5,5.8-6.2,6.9C27,35.4,27,35.4,27,35.5c0,0.1,0,0.2,0.1,0.2l1.3,1.3
		c0.1,0.1,0.1,0.1,0.2,0.1s0.2,0,0.2-0.1c0.6-0.6,1.8-1.8,3.1-3.2c1.5-1.6,2.6-3,3.3-4.2c0.9-1.3,1.4-2.4,1.7-3.4
		c0.4-1.2,0.6-2.5,0.6-3.7C37.8,20.6,37.3,18.6,36.2,16.9"/>
</g>
</svg>
