<?xml version="1.0" encoding="utf-8"?>
<!-- Generator: Adobe Illustrator 24.0.1, SVG Export Plug-In . SVG Version: 6.00 Build 0)  -->
<svg version="1.1" id="Capa_1" xmlns="http://www.w3.org/2000/svg" xmlns:xlink="http://www.w3.org/1999/xlink" x="0px" y="0px"
	 viewBox="0 0 181 61" style="enable-background:new 0 0 181 61;" xml:space="preserve">
<style type="text/css">
	.st0{fill:#F5B335;}
	.st1{fill:#3BD4AE;}
	.st2{fill:#FFFFFF;}
</style>
<g>
	<g>
		<g>
			<g>
				<g>
					<path class="st0" d="M22.7,7.5c-2.3,0.3-5,1.3-7.1,2.7c-2.3,1.5-4.1,3.3-5.8,6c-1.4,2.2-2.4,5.5-2.4,8c0,3.9,0.9,6.9,3.2,10.6
						c2.4,4,6.2,7.8,9.9,11.5c0.2,0.2,0.5,0.5,0.8,0.7c0.3,0.3,0.7,0.6,1,1c0.1,0.1,0.1,0.1,0.2,0.1s0.2,0,0.2-0.1
						c0.1-0.1,0.1-0.3,0-0.4C18,41,15.8,33.9,15.8,25c0-3.8,0.9-7.5,2.8-10.9c1.6-2.9,3.5-5,4.4-6c0.1-0.1,0.1-0.2,0-0.4
						C23,7.5,22.8,7.5,22.7,7.5z"/>
					<path class="st0" d="M41.6,16.2c-1.7-2.7-3.4-4.5-5.8-6c-2.1-1.4-4.7-2.3-7.1-2.7c-0.1,0-0.3,0-0.3,0.2c-0.1,0.1,0,0.3,0,0.4
						c0.9,1,2.8,3.1,4.4,6c1.9,3.5,2.8,7.1,2.8,10.9c0,8.9-2.2,16.1-7.1,22.6c-0.1,0.1-0.1,0.3,0,0.4c0.1,0.1,0.1,0.1,0.2,0.1
						s0.2,0,0.2-0.1c0.3-0.3,0.7-0.6,1-1c0.3-0.2,0.5-0.5,0.8-0.7c3.7-3.6,7.5-7.5,9.9-11.5c2.2-3.7,3.2-6.7,3.2-10.6
						C44,21.7,43,18.4,41.6,16.2z"/>
				</g>
				<g>
					<path class="st0" d="M30.7,55.5L26.2,51c-0.1-0.1-0.3-0.2-0.5-0.2s-0.3,0.1-0.5,0.2l-4.5,4.5c-0.2,0.3-0.2,0.7,0,0.9
						c0.1,0.1,0.2,0.2,0.4,0.2h0.4v3.1c0,0.4,0.3,0.6,0.6,0.6h2.7v-2.9c0-0.5,0.4-0.9,0.8-0.9l0,0c0.5,0,0.8,0.4,0.8,0.8v2.9h2.7
						c0.4,0,0.6-0.3,0.6-0.6v-3.1h0.4c0.2,0,0.3-0.1,0.4-0.2C31,56.2,31,55.8,30.7,55.5z"/>
				</g>
			</g>
			<path class="st1" d="M47.4,12.7C45.2,9,42.1,6,38.6,3.9c-3.8-2.2-8.1-3.3-12.8-3.3l0,0l0,0l0,0c-4.6,0-8.9,1.1-12.8,3.3
				C9.4,6,6.4,9,4.2,12.7C2,16.2,0.9,20.2,0.9,24.3c0,2.6,0.4,5.1,1.3,7.6c0.7,2,1.8,4.2,3.5,6.9c3.5,5.5,10.4,12.3,13.2,14.9
				c0.1,0.1,0.3,0.2,0.4,0.2c0.2,0,0.3-0.1,0.5-0.2l2.7-2.7c0.1-0.1,0.2-0.3,0.2-0.5s-0.1-0.3-0.2-0.5c-2.4-2.2-9.9-9.7-12.7-14
				c-1.4-2.1-2.4-4.1-3-6s-0.9-3.8-0.9-5.8c0-3.1,0.9-6.3,2.6-9.1c3.7-6.1,10-9.7,17.3-9.7s13.6,3.5,17.3,9.7c1.7,2.8,2.6,6,2.6,9.1
				c0,2-0.3,3.9-0.9,5.8c-0.6,1.9-1.6,3.9-3,6C39,40.3,31.5,47.7,29.1,50c-0.1,0.1-0.2,0.3-0.2,0.5s0.1,0.3,0.2,0.5l2.7,2.7
				c0.1,0.1,0.3,0.2,0.5,0.2s0.3-0.1,0.4-0.2c1.3-1.2,3.8-3.6,6.4-6.4c3-3.3,5.3-6.1,6.8-8.5c1.8-2.8,2.9-4.9,3.5-6.9
				c0.9-2.5,1.3-5,1.3-7.6C50.7,20.2,49.5,16.2,47.4,12.7z"/>
		</g>
		<g>
			<g>
				<path class="st2" d="M72.9,13.1c0,2.6-1.9,5.4-5.5,5.4h-6.7V0.7h4.9c3.2,0,5.2,2.3,5.2,4.7c0,1.9-1.2,3.1-1.7,3.1
					C70.7,8.5,72.9,10.2,72.9,13.1z M64.2,4.2v3.5h1.4c0.8,0,1.7-0.7,1.7-1.8c0-1-0.8-1.7-1.6-1.7H64.2z M69.4,12.8
					c0-1-0.7-2.1-2.4-2.1h-2.8V15H67C68.2,15,69.4,14.2,69.4,12.8z"/>
				<path class="st2" d="M74.1,9.6c0-5.1,4.2-9.3,9.2-9.3s9.3,4.2,9.3,9.3s-4.2,9.2-9.3,9.2C78.3,18.8,74.1,14.7,74.1,9.6z M89,9.6
					C89,6.5,86.5,4,83.3,4c-3.1,0-5.6,2.5-5.6,5.6s2.5,5.6,5.6,5.6C86.5,15.2,89,12.7,89,9.6z"/>
				<path class="st2" d="M167.5,13.1c0,2.6-1.9,5.4-5.5,5.4h-6.7V0.7h4.9c3.2,0,5.2,2.3,5.2,4.7c0,1.9-1.2,3.1-1.7,3.1
					C165.2,8.5,167.5,10.2,167.5,13.1z M158.8,4.2v3.5h1.4c0.8,0,1.7-0.7,1.7-1.8c0-1-0.8-1.7-1.6-1.7H158.8z M164,12.8
					c0-1-0.7-2.1-2.4-2.1h-2.8V15h2.8C162.7,15,164,14.2,164,12.8z"/>
				<path class="st2" d="M173,4.2v3.5h6.1v3.6H173V15h7.1v3.6h-10.7V0.7h10.7v3.5H173z"/>
				<path class="st2" d="M82.7,36.3C82.7,29.5,88.2,24,95,24s12.3,5.5,12.3,12.3c0,6.7-5.5,12.2-12.3,12.2
					C88.2,48.6,82.7,43.1,82.7,36.3z M102.5,36.3c0-4.1-3.4-7.5-7.5-7.5s-7.5,3.4-7.5,7.5s3.4,7.5,7.5,7.5S102.5,40.4,102.5,36.3z"
					/>
				<path class="st2" d="M180.2,36.3c0,7.3-4.7,11.8-12.3,11.8H161V24.5h6.9C175.6,24.5,180.2,29,180.2,36.3z M175.4,36.3
					c0-4.4-2.8-7.1-7.5-7.1h-2.1v14.2h2.2C172.6,43.4,175.4,40.7,175.4,36.3z"/>
				<path class="st2" d="M103.5,11.4c1.9-0.7,3.3-2.7,3.3-5c0-3.2-2.7-5.8-6-5.8h-0.7v3.5h0.7c1.2,0,2.3,1,2.3,2.2s-1.1,2.2-2.3,2.2
					h-2.3V4V0.7h-3.6v17.8h3.6v-8.4l5.7,8.4h4.4L103.5,11.4z"/>
				<polygon class="st2" points="147.4,23.9 147.2,23.9 135.9,48.1 141.1,48.1 142.6,44.8 150.3,44.8 148.5,40.8 144.4,40.8 
					147.3,34.5 153.5,48.1 158.7,48.1 				"/>
				<g>
					<polygon class="st2" points="110.7,23.9 110.4,23.9 110.4,48.1 115.1,48.1 115.1,37.8 122,47.7 122,47.7 124.9,43.5 					"/>
				</g>
				<polygon class="st2" points="133.3,23.9 122.9,38.2 125.8,42.2 128.8,37.8 128.8,48.1 133.6,48.1 133.6,23.9 				"/>
				<g>
					<polygon class="st2" points="74.9,24.4 74.9,35.5 79.6,40.1 79.6,24.4 					"/>
					<polygon class="st2" points="60.6,24 60.6,48.2 65.4,48.2 65.4,34.9 79.4,48.6 79.6,48.6 79.6,42.3 60.8,24 					"/>
				</g>
				<g>
					<polygon class="st2" points="110.2,0.4 110.2,18.5 113.8,18.5 113.8,8.6 124.4,18.8 124.5,18.8 124.5,14.1 110.4,0.4 					"/>
					<polygon class="st2" points="120.9,0.7 120.9,8.5 124.5,11.9 124.5,0.7 					"/>
				</g>
			</g>
			<g>
				<path class="st2" d="M146.3,15v3.5h-13.2v-0.6c6.4-5.8,9.4-8.9,9.4-10.8c0-1.7-1.3-2.8-2.5-2.8c-1.6,0-3,1.4-3,3l-3.2-0.8
					c0-3.2,2.8-5.8,6.1-5.8c3.4,0,6.1,2.9,6.1,6.2c0,2.9-2.9,6.3-5.4,8.1C140.6,15,146.3,15,146.3,15z"/>
			</g>
		</g>
	</g>
	<g>
		<polygon class="st2" points="60.2,60.8 65.7,60.8 65.7,59.1 61.9,59.1 61.9,57.9 65.3,57.9 65.3,56.3 61.9,56.3 61.9,55.2 
			65.7,55.2 65.7,53.5 60.2,53.5 		"/>
		<polygon class="st2" points="70.2,53.5 68.5,53.5 68.5,60.8 73.6,60.8 73.6,59.1 70.2,59.1 		"/>
		<path class="st2" d="M84.2,53.5L81,60.8h1.9l0.6-1.4h2.9l0.6,1.4h1.9l-3.2-7.3H84.2z M84.2,57.7l0.7-1.6l0.7,1.6H84.2z"/>
		<path class="st2" d="M97.1,56c0-1.4-1.2-2.5-2.8-2.5h-3.1v7.3H93v-2.3h0.9l1.6,2.3h2l-1.8-2.6C96.6,57.8,97.1,57,97.1,56z
			 M93,55.2h1.2c0.4,0,1.2,0.1,1.2,0.8s-0.9,0.8-1.2,0.8H93V55.2z"/>
		<polygon class="st2" points="99.6,55.2 101.7,55.2 101.7,60.8 103.4,60.8 103.4,55.2 105.5,55.2 105.5,53.5 99.6,53.5 		"/>
		<polygon class="st2" points="108.3,60.8 113.9,60.8 113.9,59.1 110.1,59.1 110.1,57.9 113.5,57.9 113.5,56.3 110.1,56.3 
			110.1,55.2 113.9,55.2 113.9,53.5 108.3,53.5 		"/>
		<path class="st2" d="M124.8,53.5h-2.6v7.3h2.6c2.3,0,3.9-1.5,3.9-3.7C128.8,55,127.1,53.5,124.8,53.5z M124.8,59.2h-0.9v-4h0.9
			c1.3,0,2.2,0.8,2.2,2S126.2,59.2,124.8,59.2z"/>
		<polygon class="st2" points="131.7,60.8 137.3,60.8 137.3,59.1 133.5,59.1 133.5,57.9 136.9,57.9 136.9,56.3 133.5,56.3 
			133.5,55.2 137.3,55.2 137.3,53.5 131.7,53.5 		"/>
		<polygon class="st2" points="148.7,58.2 146.7,53.5 144.8,53.5 148,60.8 149.4,60.8 152.7,53.5 150.8,53.5 		"/>
		<rect x="155.1" y="53.5" class="st2" width="1.7" height="7.3"/>
		<polygon class="st2" points="163.1,58.2 161.1,53.5 159.2,53.5 162.4,60.8 163.9,60.8 167.1,53.5 165.2,53.5 		"/>
		<rect x="169.5" y="53.5" class="st2" width="1.7" height="7.3"/>
		<path class="st2" d="M178.8,58.2c0.9-0.4,1.4-1.2,1.4-2.2c0-1.4-1.2-2.5-2.8-2.5h-3.1v7.3h1.7v-2.3h0.9l1.6,2.3h2L178.8,58.2z
			 M176,55.2h1.2c0.4,0,1.2,0.1,1.2,0.8s-0.9,0.8-1.2,0.8H176V55.2z"/>
	</g>
</g>
</svg>
