<?xml version="1.0" encoding="utf-8"?>
<!-- Generator: Adobe Illustrator 25.4.1, SVG Export Plug-In . SVG Version: 6.00 Build 0)  -->
<svg version="1.1" id="Capa_1" xmlns="http://www.w3.org/2000/svg" xmlns:xlink="http://www.w3.org/1999/xlink" x="0px" y="0px"
	 viewBox="0 0 40 40" style="enable-background:new 0 0 40 40;" xml:space="preserve">
<style type="text/css">
	.st0{fill:#FFE577;}
	.st1{fill:#FFC107;}
</style>
<g>
	<circle class="st0" cx="20" cy="20" r="19.9"/>
	<circle class="st1" cx="20" cy="20" r="16.6"/>
	<g>
		<g>
			<g>
				<path class="st0" d="M19,12.3c-0.8,0.1-1.7,0.4-2.4,0.9c-0.8,0.5-1.4,1.1-1.9,2c-0.5,0.7-0.8,1.8-0.8,2.7c0,1.3,0.3,2.3,1.1,3.5
					c0.8,1.3,2.1,2.6,3.3,3.8c0.1,0.1,0.2,0.2,0.3,0.2c0.1,0.1,0.2,0.2,0.3,0.3c0,0,0,0,0.1,0c0,0,0.1,0,0.1,0c0,0,0-0.1,0-0.1
					c-1.6-2.2-2.4-4.6-2.4-7.5c0-1.3,0.3-2.5,0.9-3.6c0.5-1,1.2-1.7,1.5-2c0,0,0-0.1,0-0.1C19.1,12.3,19,12.2,19,12.3z"/>
				<path class="st0" d="M25.3,15.2c-0.6-0.9-1.2-1.5-1.9-2c-0.7-0.5-1.6-0.8-2.4-0.9c0,0-0.1,0-0.1,0.1c0,0,0,0.1,0,0.1
					c0.3,0.3,0.9,1,1.5,2c0.6,1.2,0.9,2.4,0.9,3.6c0,3-0.7,5.4-2.4,7.5c0,0,0,0.1,0,0.1c0,0,0,0,0.1,0c0,0,0.1,0,0.1,0
					c0.1-0.1,0.2-0.2,0.3-0.3c0.1-0.1,0.2-0.2,0.3-0.2c1.2-1.2,2.5-2.5,3.3-3.8c0.8-1.2,1.1-2.2,1.1-3.5
					C26.1,17,25.8,15.9,25.3,15.2z"/>
			</g>
			<g>
				<path class="st0" d="M21.7,28.3l-1.5-1.5c0,0-0.1-0.1-0.2-0.1c-0.1,0-0.1,0-0.2,0.1l-1.5,1.5c-0.1,0.1-0.1,0.2,0,0.3
					c0,0,0.1,0.1,0.1,0.1l0.1,0l0,1c0,0.1,0.1,0.2,0.2,0.2l0.9,0l0-1c0-0.2,0.1-0.3,0.3-0.3c0,0,0,0,0,0c0.2,0,0.3,0.1,0.3,0.3l0,1
					l0.9,0c0.1,0,0.2-0.1,0.2-0.2v-1l0.1,0c0.1,0,0.1,0,0.1-0.1C21.7,28.5,21.7,28.4,21.7,28.3z"/>
			</g>
		</g>
		<path class="st0" d="M27.2,14c-0.7-1.2-1.7-2.2-2.9-2.9C23,10.3,21.6,10,20,10c0,0,0,0,0,0c0,0,0,0,0,0s0,0,0,0
			c-1.6,0-3,0.4-4.3,1.1c-1.2,0.7-2.2,1.7-2.9,2.9c-0.7,1.2-1.1,2.5-1.1,3.9c0,0.9,0.1,1.7,0.4,2.5c0.2,0.7,0.6,1.4,1.2,2.3
			c1.2,1.8,3.5,4.1,4.4,5c0,0,0.1,0.1,0.1,0.1c0.1,0,0.1,0,0.2-0.1l0.9-0.9c0,0,0.1-0.1,0.1-0.2c0-0.1,0-0.1-0.1-0.2
			c-0.8-0.7-3.3-3.2-4.2-4.7c-0.5-0.7-0.8-1.4-1-2c-0.2-0.6-0.3-1.3-0.3-1.9c0-1,0.3-2.1,0.9-3c1.2-2,3.3-3.2,5.8-3.2
			c2.4,0,4.5,1.2,5.8,3.2c0.6,0.9,0.9,2,0.9,3c0,0.7-0.1,1.3-0.3,1.9c-0.2,0.6-0.5,1.3-1,2c-0.9,1.4-3.4,3.9-4.2,4.7
			c0,0-0.1,0.1-0.1,0.2c0,0.1,0,0.1,0.1,0.2l0.9,0.9c0,0,0.1,0.1,0.2,0.1c0.1,0,0.1,0,0.1-0.1c0.4-0.4,1.3-1.2,2.1-2.1
			c1-1.1,1.8-2,2.3-2.8c0.6-0.9,1-1.6,1.2-2.3c0.3-0.8,0.4-1.7,0.4-2.5C28.3,16.5,27.9,15.2,27.2,14z"/>
	</g>
</g>
</svg>
