<?xml version="1.0" encoding="utf-8"?>
<!-- Generator: Adobe Illustrator 25.3.1, SVG Export Plug-In . SVG Version: 6.00 Build 0)  -->
<svg version="1.1" id="Capa_1" xmlns="http://www.w3.org/2000/svg" xmlns:xlink="http://www.w3.org/1999/xlink" x="0px" y="0px"
	 viewBox="0 0 35.1 35.4" style="enable-background:new 0 0 35.1 35.4;" xml:space="preserve">
<style type="text/css">
	.st0{fill:#3BD4AE;}
</style>
<path class="st0" d="M32.1,14.1l0.8,0.5c0.1,0.1,0.2,0.1,0.3,0.1c0,0,0.1,0,0.1,0c0.2,0,0.3-0.1,0.4-0.2l1.3-1.9
	c0.2-0.3,0.1-0.6-0.2-0.8L17.9,0.3c-0.2-0.1-0.5-0.1-0.7,0L0.4,11.8c-0.3,0.2-0.3,0.5-0.2,0.8l1.3,1.9c0.1,0.1,0.2,0.2,0.4,0.2
	c0.2,0,0.3,0,0.4-0.1l0.8-0.5v5.8c-0.3,0.1-0.6,0.4-0.8,0.8c-1,2.4-2.1,5.6-2.1,7c0,2.1,1.2,3.7,2.9,4v2.4H0.2v1.2H35v-1.2h-2.9
	L32.1,14.1z M2.2,13.4l-0.7-1L17.6,1.5l16.1,10.9l-0.6,1L17.9,3.1C17.8,3.1,17.7,3,17.6,3c-0.1,0-0.2,0-0.3,0.1L2.2,13.4z M1.4,27.7
	c0-0.9,0.7-3.3,2-6.5C3.5,21,3.6,21,3.7,21c0.1,0,0.2,0,0.3,0.2c1.3,3.2,2,5.6,2,6.5c0,1.7-1,2.9-2.3,2.9
	C2.3,30.6,1.4,29.4,1.4,27.7 M4.3,31.7c1.7-0.3,2.9-1.9,2.9-4c0-1.4-1.2-4.6-2.1-7c-0.1-0.4-0.4-0.6-0.8-0.8v-6.6l13.3-9l13.3,9
	v11.3l-0.1-0.1c-0.2-0.3-0.7-0.3-1,0l-1.2,1.7c-0.1,0.1-0.1,0.2-0.1,0.3v1.2h-1.2v-1.2c0-0.1,0-0.2-0.1-0.3l-1.2-1.7
	c-0.2-0.3-0.7-0.3-1,0L24,26.2c-0.1,0.1-0.1,0.2-0.1,0.3v1.2h-1.2v-1.2c0-0.1,0-0.2-0.1-0.3l-1.2-1.7c-0.2-0.3-0.7-0.3-1,0l-1.2,1.7
	c-0.1,0.1-0.1,0.2-0.1,0.3v7.5h-3.5v-11c0-0.3-0.3-0.6-0.6-0.6H8.9c-0.3,0-0.6,0.3-0.6,0.6v11H4.3V31.7z M21.6,34.1h-1.2v-7.4
	l0.6-0.9l0.6,0.9V34.1z M22.8,28.8h1.2V30h-1.2V28.8z M22.8,31.2h1.2v2.9h-1.2V31.2z M26.3,34.1h-1.2v-7.4l0.6-0.9l0.6,0.9V34.1z
	 M27.4,28.8h1.2V30h-1.2V28.8z M27.4,31.2h1.2v2.9h-1.2V31.2z M14.7,34.1H9.5V23.6h5.2V34.1z M29.7,34.1v-7.4l0.6-0.9l0.6,0.9v7.4
	H29.7z"/>
<path class="st0" d="M15.8,18.4h3.5c1.3,0,2.3-1,2.3-2.3v-3.5c0-1.3-1-2.3-2.3-2.3h-3.5c-1.3,0-2.3,1-2.3,2.3v3.5
	C13.5,17.4,14.6,18.4,15.8,18.4 M14.7,16.1v-1.2H17v2.3h-1.2C15.2,17.3,14.7,16.7,14.7,16.1 M19.3,17.3h-1.2v-2.3h2.3v1.2
	C20.5,16.7,20,17.3,19.3,17.3 M20.5,12.6v1.2h-2.3v-2.3h1.2C20,11.5,20.5,12,20.5,12.6 M15.8,11.5H17v2.3h-2.3v-1.2
	C14.7,12,15.2,11.5,15.8,11.5"/>
<rect x="12.4" y="28.3" class="st0" width="1.2" height="1.2"/>
</svg>
