<?xml version="1.0" encoding="utf-8"?>
<!-- Generator: Adobe Illustrator 24.0.1, SVG Export Plug-In . SVG Version: 6.00 Build 0)  -->
<svg version="1.1" id="Capa_1" xmlns="http://www.w3.org/2000/svg" xmlns:xlink="http://www.w3.org/1999/xlink" x="0px" y="0px"
	 viewBox="0 0 167 171" style="enable-background:new 0 0 167 171;" xml:space="preserve">
<style type="text/css">
	.st0{fill:#3BD4AE;}
	.st1{fill:#243746;}
	.st2{fill:#FFB125;}
	.st3{fill:#3BD4AE;stroke:#243746;stroke-width:4;stroke-linecap:round;stroke-linejoin:round;stroke-miterlimit:10;}
	.st4{fill:#F5B335;stroke:#243746;stroke-width:4;stroke-miterlimit:10;}
	.st5{fill:#F1F2F2;}
	.st6{fill:#F5B335;}
</style>
<g>
	<g>
		<path class="st0" d="M96.6,168.7c-2.7,0-5-1.9-5.5-4.6l-1.9-10c-5.1,0.7-10.3,1.1-15.6,1.1c-3.9,0-7.7-0.2-11.4-0.6l-1.8,9.5
			c-0.5,2.6-2.8,4.6-5.5,4.6H43.1c-2.7,0-5-1.9-5.5-4.6l-3.4-17.8C16.9,137,7.8,121.5,7.8,101.5c0-32.2,23.3-51.3,65.7-53.7
			c1.4-0.1,2.9-0.1,4.4-0.1c25,0,56.2,12.2,65.7,38.8c0.4,1.1,1.2,2,2.2,2.3l7,2.2c3.7,1.2,6.2,4.6,6.2,8.5v11.6
			c0,3.9-2.5,7.3-6.2,8.5l-11.3,3.6c-0.7,0.2-1.4,0.8-1.8,1.5c-4.8,8.3-12.3,15.2-22.3,20.5l-3.6,18.9c-0.5,2.6-2.8,4.6-5.5,4.6
			H96.6z"/>
		<path class="st1" d="M77.9,49.7c25.8,0,54.9,12.7,63.8,37.5c0.5,1.7,1.8,3,3.5,3.5l7,2.2c2.9,0.9,4.8,3.6,4.8,6.6v11.6
			c0,3-1.9,5.7-4.8,6.6l-11.3,3.6c-1.2,0.4-2.3,1.2-2.9,2.4c-4.9,8.4-12.5,15-21.7,19.8c-0.4,0.2-0.7,0.6-0.7,1l-3.6,19.1
			c-0.3,1.7-1.8,2.9-3.5,2.9H96.6c-1.7,0-3.2-1.2-3.5-2.9l-2-10.6c-0.1-0.7-0.7-1.2-1.4-1.2c-0.1,0-0.1,0-0.2,0
			c-5.2,0.8-10.5,1.2-15.9,1.2c-4,0-7.9-0.2-11.7-0.7c-0.1,0-0.1,0-0.2,0c-0.7,0-1.3,0.5-1.4,1.2l-1.9,10c-0.3,1.7-1.8,2.9-3.5,2.9
			H43.1c-1.7,0-3.2-1.2-3.5-2.9l-3.5-18.1c-0.1-0.4-0.4-0.8-0.7-1C19.8,136.4,9.8,122,9.8,101.5c0-35.6,28.6-49.7,63.8-51.7
			C75,49.7,76.4,49.7,77.9,49.7 M77.9,45.7c-1.5,0-3,0-4.5,0.1C29.8,48.3,5.8,68,5.8,101.5c0,10.6,2.5,20.2,7.6,28.3
			c4.5,7.3,10.9,13.3,19.1,17.8l3.3,16.9c0.7,3.6,3.8,6.2,7.5,6.2h11.8c3.7,0,6.8-2.6,7.5-6.2l1.5-7.7c3.2,0.3,6.5,0.4,9.8,0.4
			c4.7,0,9.4-0.3,14-0.9l1.5,8.2c0.7,3.6,3.8,6.2,7.5,6.2h11.8c3.7,0,6.8-2.6,7.5-6.2l3.4-17.9c9.9-5.3,17.4-12.3,22.2-20.8
			c0.2-0.3,0.4-0.5,0.7-0.6l11.3-3.6c4.5-1.5,7.6-5.6,7.6-10.4V99.6c0-4.8-3-8.9-7.6-10.4l-7-2.2c-0.4-0.1-0.8-0.5-0.9-0.9
			c0,0,0-0.1,0-0.1c-4.5-12.5-14-23-27.4-30.2C106.2,49.2,91.9,45.7,77.9,45.7L77.9,45.7z"/>
	</g>
	<g>
		<g>
			<path class="st0" d="M117.6,83.4c-6,0-11.7-2.6-15.2-6.9c-2.8-3.5-5.7-9.9-3.4-20.8c0.5-2.3,2.1-4.2,4.2-5.2
				c6.5-3,18.2-7.9,24.2-7.9c1.2,0,2.2,0.2,3,0.6c2.3,1.2,3.5,4.9,3.6,10.9c0.1,9-2.5,24-8.8,27.5C123.3,82.8,120.6,83.4,117.6,83.4
				z"/>
			<path class="st1" d="M127.4,44.5c0.9,0,1.6,0.1,2.1,0.4c5,2.6,2.4,30.7-5.2,35c-1.7,0.9-4.1,1.5-6.7,1.5
				c-8.9,0-20.7-6.3-16.7-25.3c0.4-1.7,1.5-3.1,3.1-3.8C109.3,49.9,121.7,44.5,127.4,44.5 M127.4,40.5
				C127.4,40.5,127.4,40.5,127.4,40.5c-6,0-16.9,4.4-25,8.1c-2.7,1.3-4.7,3.7-5.4,6.6c-1.4,6.5-1.8,15.6,3.8,22.5
				c3.9,4.8,10.1,7.6,16.8,7.6c3.3,0,6.4-0.7,8.7-2c7.4-4.2,9.9-20.2,9.8-29.3c-0.1-6.9-1.6-11.1-4.7-12.7
				C130.3,40.8,129,40.5,127.4,40.5L127.4,40.5z"/>
		</g>
	</g>
	<path class="st2" d="M65.5,67"/>
	<path class="st3" d="M115.8,92.7c0,4.5,3.7,8.1,8.1,8.1c4.5,0,8.1-3.7,8.1-8.1"/>
	<g>
		<path class="st4" d="M97.3,33.9c0,17.3-14,31.3-31.3,31.3s-31.3-14-31.3-31.3S48.7,2.7,66,2.7S97.3,16.7,97.3,33.9z"/>
		<path class="st5" d="M87.3,33.9c0,11.8-9.5,21.3-21.3,21.3c-11.8,0-21.3-9.5-21.3-21.3c0-11.8,9.5-21.3,21.3-21.3
			C77.8,12.6,87.3,22.2,87.3,33.9z"/>
		<g>
			<g>
				<g>
					<g>
						<g>
							<g>
								<path class="st6" d="M64.4,24.2c-1,0.1-2.2,0.6-3.1,1.2c-1,0.7-1.8,1.5-2.5,2.6c-0.6,1-1,2.4-1,3.5c0,1.7,0.4,3.1,1.4,4.7
									c1.1,1.7,2.7,3.4,4.4,5c0.1,0.1,0.2,0.2,0.3,0.3c0.1,0.1,0.3,0.3,0.4,0.4c0,0,0.1,0,0.1,0c0,0,0.1,0,0.1,0
									c0.1,0,0.1-0.1,0-0.2c-2.1-2.8-3.1-6-3.1-9.9c0-1.7,0.4-3.3,1.2-4.8c0.7-1.3,1.5-2.2,1.9-2.6c0,0,0-0.1,0-0.2
									C64.5,24.2,64.5,24.1,64.4,24.2z"/>
								<path class="st6" d="M72.7,28c-0.7-1.2-1.5-2-2.5-2.6c-0.9-0.6-2.1-1-3.1-1.2c-0.1,0-0.1,0-0.1,0.1c0,0.1,0,0.1,0,0.2
									c0.4,0.4,1.2,1.4,1.9,2.6c0.8,1.5,1.2,3.1,1.2,4.8c0,3.9-1,7.1-3.1,9.9c0,0.1,0,0.1,0,0.2c0,0,0.1,0,0.1,0c0,0,0.1,0,0.1,0
									c0.1-0.1,0.3-0.3,0.4-0.4c0.1-0.1,0.2-0.2,0.3-0.3c1.6-1.6,3.3-3.3,4.4-5c1-1.6,1.4-3,1.4-4.7C73.8,30.4,73.4,29,72.7,28z"
									/>
							</g>
							<g>
								<path class="st6" d="M67.9,45.3l-2-2c-0.1-0.1-0.1-0.1-0.2-0.1c-0.1,0-0.1,0-0.2,0.1l-2,2c-0.1,0.1-0.1,0.3,0,0.4
									c0.1,0.1,0.1,0.1,0.2,0.1l0.2,0l0,1.4c0,0.2,0.1,0.3,0.3,0.3l1.2,0l0-1.3c0-0.2,0.2-0.4,0.4-0.4c0,0,0,0,0,0
									c0.2,0,0.4,0.2,0.4,0.4l0,1.3l1.2,0c0.2,0,0.3-0.1,0.3-0.3v-1.4l0.2,0c0.1,0,0.1,0,0.2-0.1C68,45.6,68,45.4,67.9,45.3z"/>
							</g>
						</g>
						<path class="st6" d="M75.3,26.4c-1-1.6-2.3-2.9-3.9-3.8c-1.7-1-3.6-1.5-5.6-1.5c0,0,0,0,0,0c0,0,0,0,0,0c0,0,0,0,0,0
							c-2,0-3.9,0.5-5.6,1.5c-1.6,0.9-2.9,2.2-3.9,3.8c-0.9,1.6-1.4,3.3-1.4,5.1c0,1.1,0.2,2.2,0.6,3.3c0.3,0.9,0.8,1.8,1.6,3
							c1.5,2.4,4.6,5.4,5.8,6.6c0.1,0.1,0.1,0.1,0.2,0.1c0.1,0,0.1,0,0.2-0.1l1.2-1.2c0.1-0.1,0.1-0.1,0.1-0.2c0-0.1,0-0.2-0.1-0.2
							c-1.1-1-4.4-4.3-5.6-6.1c-0.6-0.9-1-1.8-1.3-2.7c-0.3-0.8-0.4-1.7-0.4-2.5c0-1.4,0.4-2.8,1.1-4c1.6-2.7,4.4-4.2,7.6-4.2
							c3.2,0,6,1.5,7.6,4.2c0.8,1.2,1.1,2.6,1.1,4c0,0.9-0.1,1.7-0.4,2.5c-0.3,0.8-0.7,1.7-1.3,2.7c-1.2,1.9-4.5,5.2-5.6,6.1
							c-0.1,0.1-0.1,0.1-0.1,0.2c0,0.1,0,0.2,0.1,0.2l1.2,1.2c0.1,0.1,0.1,0.1,0.2,0.1c0.1,0,0.1,0,0.2-0.1c0.6-0.5,1.7-1.6,2.8-2.8
							c1.3-1.4,2.3-2.7,3-3.7c0.8-1.2,1.3-2.1,1.6-3c0.4-1.1,0.6-2.2,0.6-3.3C76.7,29.8,76.2,28,75.3,26.4z"/>
					</g>
				</g>
			</g>
		</g>
	</g>
	<path class="st3" d="M88.2,68.2C86.7,67.5,78,62,65.5,62s-21.1,5.5-22.6,6.2"/>
</g>
</svg>
