<?xml version="1.0" encoding="utf-8"?>
<!-- Generator: Adobe Illustrator 24.0.1, SVG Export Plug-In . SVG Version: 6.00 Build 0)  -->
<svg version="1.1" id="Capa_1" xmlns="http://www.w3.org/2000/svg" xmlns:xlink="http://www.w3.org/1999/xlink" x="0px" y="0px"
	 viewBox="0 0 167 171" style="enable-background:new 0 0 167 171;" xml:space="preserve">
<style type="text/css">
	.st0{fill:#243746;}
	.st1{fill:#3BD4AE;}
	.st2{fill:#F1F2F2;}
	.st3{fill:#F5B335;}
</style>
<g>
	<g>
		<g>
			<path class="st0" d="M33.6,136c-0.9-1-2.5-1.1-3.5-0.2c-1,0.9-1.1,2.5-0.2,3.5c0.9,1,1.8,1.9,2.7,2.8c0.5,0.5,1.1,0.7,1.7,0.7
				c0.6,0,1.3-0.2,1.7-0.7c0.9-1,0.9-2.5,0-3.5C35.3,137.8,34.4,136.9,33.6,136z"/>
			<path class="st0" d="M57.5,152.8c-1.1-0.5-2.3-1-3.4-1.5c-1.2-0.6-2.7-0.1-3.3,1.2c-0.6,1.2-0.1,2.7,1.2,3.3
				c1.2,0.6,2.4,1.1,3.6,1.6c0.3,0.1,0.6,0.2,0.9,0.2c1,0,1.9-0.6,2.3-1.5C59.4,154.7,58.8,153.3,57.5,152.8z"/>
			<path class="st0" d="M69.8,156.4c-1.2-0.2-2.4-0.5-3.6-0.8c-1.3-0.3-2.6,0.5-3,1.8c-0.3,1.3,0.5,2.6,1.8,3
				c1.3,0.3,2.6,0.6,3.9,0.9c0.2,0,0.3,0,0.5,0c1.1,0,2.2-0.8,2.4-2C72,158,71.2,156.7,69.8,156.4z"/>
			<path class="st0" d="M46.1,146.8c-1-0.7-2-1.4-3-2.1c-1.1-0.8-2.6-0.6-3.4,0.5c-0.8,1.1-0.6,2.6,0.5,3.4c1.1,0.8,2.1,1.5,3.2,2.3
				c0.4,0.3,0.9,0.4,1.3,0.4c0.8,0,1.6-0.4,2-1.1C47.6,149,47.3,147.5,46.1,146.8z"/>
			<path class="st0" d="M13.9,95c1.4,0,2.4-1.1,2.4-2.5c0-0.4,0-0.7,0-1.1c0-0.9,0-1.7,0-2.6c0.1-1.3-1-2.5-2.3-2.5
				c-1.3,0-2.5,1-2.5,2.3c0,0.9-0.1,1.8-0.1,2.8c0,0.4,0,0.8,0,1.2C11.4,93.9,12.5,95,13.9,95C13.8,95,13.9,95,13.9,95z"/>
			<path class="st0" d="M17.7,105.3c-0.3-1.2-0.5-2.4-0.7-3.6c-0.2-1.3-1.5-2.2-2.8-2c-1.3,0.2-2.2,1.5-2,2.8
				c0.2,1.3,0.4,2.6,0.7,3.9c0.2,1.1,1.3,1.9,2.4,1.9c0.2,0,0.3,0,0.5-0.1C17.2,107.9,18,106.6,17.7,105.3z"/>
			<path class="st0" d="M21.6,117.6c-0.5-1.1-0.9-2.3-1.4-3.4c-0.5-1.3-1.9-1.9-3.1-1.5c-1.3,0.5-1.9,1.9-1.5,3.1
				c0.5,1.2,0.9,2.5,1.5,3.7c0.4,0.9,1.3,1.5,2.2,1.5c0.3,0,0.7-0.1,1-0.2C21.6,120.2,22.2,118.8,21.6,117.6z"/>
			<path class="st0" d="M25.9,125.7c-0.7-1.2-2.2-1.5-3.4-0.8c-1.2,0.7-1.5,2.2-0.8,3.4c0.7,1.1,1.4,2.2,2.1,3.3
				c0.5,0.7,1.2,1.1,2,1.1c0.5,0,1-0.1,1.4-0.4c1.1-0.8,1.4-2.3,0.6-3.4C27.2,127.8,26.5,126.8,25.9,125.7z"/>
			<path class="st0" d="M82.7,157.6C82.7,157.6,82.7,157.6,82.7,157.6h-0.2c-1.2,0-2.4,0-3.5-0.1c-1.3-0.1-2.5,1-2.6,2.3
				c-0.1,1.3,1,2.5,2.3,2.6c1.3,0.1,2.5,0.1,3.8,0.1h0.2c1.3,0,2.4-1.1,2.4-2.5C85.1,158.7,84,157.6,82.7,157.6z"/>
			<path class="st0" d="M118.9,36c1,0.7,2,1.4,3,2.1c0.4,0.3,0.9,0.5,1.5,0.5c0.7,0,1.5-0.3,2-1c0.8-1.1,0.6-2.6-0.5-3.4
				c-1.1-0.8-2.1-1.5-3.2-2.3c-1.1-0.7-2.6-0.4-3.4,0.7C117.4,33.8,117.7,35.3,118.9,36z"/>
			<path class="st0" d="M131.4,46.8c0.5,0.5,1.1,0.8,1.8,0.8c0.6,0,1.2-0.2,1.6-0.6c1-0.9,1.1-2.5,0.2-3.5c-0.9-1-1.8-1.9-2.7-2.8
				c-1-0.9-2.5-0.9-3.5,0c-0.9,1-0.9,2.5,0,3.5C129.7,45,130.6,45.9,131.4,46.8z"/>
			<path class="st0" d="M107.5,30c1.1,0.5,2.3,1,3.4,1.5c0.3,0.2,0.7,0.2,1,0.2c0.9,0,1.8-0.5,2.2-1.4c0.6-1.2,0.1-2.7-1.2-3.3
				c-1.2-0.6-2.4-1.1-3.6-1.6c-1.3-0.5-2.7,0.1-3.2,1.3C105.6,28.1,106.2,29.5,107.5,30z"/>
			<path class="st0" d="M95.1,26.4c1.2,0.2,2.4,0.5,3.6,0.8c0.2,0,0.4,0.1,0.6,0.1c1.1,0,2.1-0.7,2.4-1.9c0.3-1.3-0.5-2.6-1.8-3
				c-1.3-0.3-2.6-0.6-3.9-0.9c-1.3-0.3-2.6,0.6-2.9,1.9C92.9,24.8,93.8,26.1,95.1,26.4z"/>
			<path class="st0" d="M139.1,57.1c0.5,0.8,1.3,1.2,2.1,1.2c0.4,0,0.9-0.1,1.3-0.4c1.2-0.7,1.5-2.2,0.8-3.4
				c-0.7-1.1-1.4-2.2-2.1-3.3c-0.8-1.1-2.3-1.4-3.4-0.6c-1.1,0.8-1.4,2.3-0.6,3.4C137.8,55,138.5,56,139.1,57.1z"/>
			<path class="st0" d="M151.1,87.8c-1.3,0-2.4,1.1-2.4,2.5c0,0.4,0,0.8,0,1.1c0,0.8,0,1.7,0,2.5c-0.1,1.3,1,2.5,2.4,2.5
				c0,0,0.1,0,0.1,0c1.3,0,2.4-1,2.4-2.4c0-0.9,0.1-1.8,0.1-2.7c0-0.4,0-0.8,0-1.2C153.6,88.8,152.5,87.8,151.1,87.8
				C151.2,87.8,151.1,87.8,151.1,87.8z"/>
			<path class="st0" d="M147.3,77.5c0.3,1.2,0.5,2.4,0.7,3.6c0.2,1.2,1.2,2.1,2.4,2.1c0.1,0,0.3,0,0.4,0c1.3-0.2,2.2-1.5,2-2.8
				c-0.2-1.3-0.4-2.6-0.7-3.9c-0.3-1.3-1.6-2.2-2.9-1.9C147.8,74.8,147,76.1,147.3,77.5z"/>
			<path class="st0" d="M82.3,25.2L82.3,25.2l0.2,0c1.2,0,2.3,0,3.5,0.1c0,0,0.1,0,0.1,0c1.3,0,2.4-1,2.4-2.3c0.1-1.3-1-2.5-2.3-2.6
				c-1.2-0.1-2.5-0.1-3.8-0.1l-0.2,0c-1.4,0-2.4,1.1-2.4,2.5C79.9,24.1,81,25.2,82.3,25.2z"/>
			<path class="st0" d="M143.4,65.2c0.5,1.1,0.9,2.3,1.4,3.4c0.4,1,1.3,1.6,2.3,1.6c0.3,0,0.6,0,0.8-0.1c1.3-0.5,1.9-1.9,1.5-3.1
				c-0.5-1.2-0.9-2.5-1.5-3.7c-0.5-1.2-2-1.8-3.2-1.3C143.4,62.5,142.8,64,143.4,65.2z"/>
		</g>
		<path class="st1" d="M97.1,39.9c-1.3-0.3-2.6,0.5-3,1.8c-0.3,1.3,0.5,2.6,1.8,3c15.8,4.1,28.7,15.4,34.7,30.5l-3.8-2.2
			c-1.2-0.7-2.7-0.3-3.3,0.9c-0.7,1.2-0.3,2.7,0.9,3.3l8.3,4.9c0.4,0.2,0.8,0.3,1.2,0.3c0.8,0,1.7-0.4,2.1-1.2l4.9-8.3
			c0.7-1.2,0.3-2.7-0.9-3.3c-1.2-0.7-2.7-0.3-3.3,0.9l-1.6,2.7C128.3,56.6,114.3,44.3,97.1,39.9z"/>
		<path class="st1" d="M71.6,138.2c-15.8-4.1-28.7-15.4-34.7-30.5l3.8,2.2c1.2,0.7,2.7,0.3,3.3-0.9c0.7-1.2,0.3-2.7-0.9-3.3
			l-8.3-4.9c-0.6-0.3-1.2-0.4-1.9-0.3c-0.6,0.2-1.2,0.6-1.5,1.1l-4.9,8.3c-0.7,1.2-0.3,2.7,0.9,3.3c0.4,0.2,0.8,0.3,1.2,0.3
			c0.8,0,1.7-0.4,2.1-1.2l1.6-2.7c6.6,16.4,20.7,28.7,37.9,33.2c0.2,0.1,0.4,0.1,0.6,0.1c1.1,0,2.1-0.7,2.4-1.8
			C73.7,139.8,72.9,138.5,71.6,138.2z"/>
	</g>
	<g>
		<g>
			<path class="st2" d="M98.6,168.4c-1.1,0-2-0.9-2-2v-32.2l-1.3,1.3c-1,1-2.3,1.5-3.7,1.5c-1.4,0-2.7-0.6-3.7-1.6c-2-2-2-5.3,0-7.4
				l33.9-33.9c1-1,2.3-1.5,3.7-1.5s2.7,0.5,3.7,1.5l33.9,33.9c2,2,2,5.4,0,7.4c-1,1-2.3,1.5-3.7,1.5c0,0-0.1,0-0.1,0
				c-1.4,0-2.6-0.6-3.6-1.5l-1.3-1.3v32.2c0,1.1-0.9,2-2,2H98.6z"/>
			<path class="st0" d="M125.5,94.7c0.8,0,1.7,0.3,2.3,0.9l33.9,33.9c1.3,1.3,1.3,3.3,0,4.6c-0.6,0.6-1.4,1-2.3,1c0,0,0,0,0,0v0
				c0,0,0,0,0,0h0l0,0c0,0,0,0,0,0c-0.9,0-1.7-0.3-2.3-0.9l-4.7-4.7v37.1h-16.5h0h-20.7H98.6v-37.1l26.8-26.8l0,0l-31.6,31.6
				c-0.6,0.6-1.5,0.9-2.3,0.9c-0.8,0-1.7-0.3-2.3-1c-1.2-1.3-1.2-3.3,0-4.6l33.9-33.9C123.8,95,124.6,94.7,125.5,94.7 M125.5,90.7
				c-1.9,0-3.8,0.8-5.1,2.1l-33.9,33.9c-2.8,2.8-2.8,7.4,0,10.2c1.4,1.4,3.2,2.2,5.2,2.2c1.1,0,2.1-0.2,3-0.7v28c0,2.2,1.8,4,4,4
				h16.5h20.7h16.5c2.2,0,4-1.8,4-4v-28c0.9,0.4,1.9,0.6,2.9,0.7c0.1,0,0.1,0,0.2,0c1.9,0,3.8-0.8,5.1-2.1c2.8-2.8,2.8-7.4,0-10.2
				l-33.9-33.9C129.2,91.4,127.4,90.7,125.5,90.7L125.5,90.7z"/>
		</g>
		<g>
			<path class="st2" d="M152.3,166.4v-37.1l-26.8-26.8l-26.8,26.8v37.1H152.3z"/>
			<g>
				<path class="st3" d="M159.3,137c-1.4,0-2.7-0.5-3.7-1.5l-30.2-30.2l-30.2,30.2c-1,1-2.3,1.5-3.7,1.5c-1.4,0-2.7-0.6-3.7-1.6
					c-2-2-2-5.3,0-7.4l33.9-33.9c1-1,2.3-1.5,3.7-1.5s2.7,0.5,3.7,1.5l33.9,33.9c2,2,2,5.4,0,7.4c-0.7,0.7-1.7,1.5-3.4,1.5
					L159.3,137z"/>
				<path class="st0" d="M125.5,94.7c0.8,0,1.7,0.3,2.3,0.9l33.9,33.9c1.3,1.3,1.3,3.3,0,4.6c-0.6,0.6-1.1,1-2,1c0,0,0,0,0,0l-0.3,0
					c0,0,0,0,0,0h0h0c0,0,0,0,0,0c-0.9,0-1.7-0.3-2.3-0.9l-31.6-31.6l-31.6,31.6c-0.6,0.6-1.5,0.9-2.3,0.9c-0.8,0-1.7-0.3-2.3-1
					c-1.2-1.3-1.2-3.3,0-4.6l33.9-33.9C123.8,95,124.6,94.7,125.5,94.7 M125.5,90.7c-1.9,0-3.8,0.8-5.1,2.1l-33.9,33.9
					c-2.8,2.8-2.8,7.4,0,10.2c1.4,1.4,3.2,2.2,5.2,2.2c1.9,0,3.7-0.7,5.1-2.1l28.8-28.8l28.7,28.7c1.3,1.3,3.2,2.1,5.1,2.1l0.3,0
					c2.5,0,3.9-1.2,4.9-2.1c2.8-2.8,2.8-7.4,0-10.2l-33.9-33.9C129.2,91.4,127.4,90.7,125.5,90.7L125.5,90.7z"/>
			</g>
			<g>
				<path class="st3" d="M113.1,168.4v-36.6c0-1.7,1.4-3.1,3.1-3.1h18.5c1.7,0,3.1,1.4,3.1,3.1v36.6H113.1z"/>
				<path class="st0" d="M134.7,130.7c0.6,0,1.1,0.5,1.1,1.1v34.6h-0.3h-20.4v-34.6c0-0.6,0.5-1.1,1.1-1.1H134.7 M134.7,126.7h-18.5
					c-2.8,0-5.1,2.3-5.1,5.1v34.6v4h4h20.4h0.3h4v-4v-34.6C139.8,129,137.5,126.7,134.7,126.7L134.7,126.7z"/>
			</g>
			<circle class="st0" cx="131.4" cy="146" r="2.2"/>
		</g>
	</g>
	<g>
		<g>
			<path class="st2" d="M14.9,78.1c-1.1,0-2-0.9-2-2V43.9l-1.3,1.3c-1,1-2.3,1.5-3.7,1.5c-1.4,0-2.7-0.6-3.7-1.6c-2-2-2-5.3,0-7.4
				L38,3.9c1-1,2.3-1.5,3.7-1.5s2.7,0.5,3.7,1.5l33.9,33.9c1,1,1.5,2.3,1.5,3.7c0,1.4-0.5,2.7-1.5,3.7c-1,1-2.3,1.5-3.7,1.5
				c0,0-0.1,0-0.1,0c-1.4,0-2.7-0.6-3.6-1.5l-1.3-1.3v32.2c0,1.1-0.9,2-2,2H14.9z"/>
			<path class="st0" d="M41.7,4.4c0.8,0,1.7,0.3,2.3,0.9l33.9,33.9c1.3,1.3,1.3,3.3,0,4.6c-0.6,0.6-1.4,1-2.3,1c0,0,0,0,0,0v0
				c0,0,0,0,0,0h0l0,0c0,0,0,0,0,0c-0.9,0-1.7-0.3-2.3-0.9l-4.7-4.7v37.1H52.1h0H31.4H14.9V39.1l26.8-26.8l0,0L10.1,43.8
				c-0.6,0.6-1.5,0.9-2.3,0.9c-0.8,0-1.7-0.3-2.3-1c-1.2-1.3-1.2-3.3,0-4.6L39.4,5.3C40,4.7,40.9,4.4,41.7,4.4 M41.7,0.4
				c-1.9,0-3.8,0.8-5.1,2.1L2.7,36.4c-2.8,2.8-2.8,7.4,0,10.2c1.4,1.4,3.2,2.2,5.2,2.2c1.1,0,2.1-0.2,3-0.7v28c0,2.2,1.8,4,4,4h16.5
				h20.7h16.5c2.2,0,4-1.8,4-4v-28c0.9,0.4,1.9,0.6,2.9,0.7c0.1,0,0.1,0,0.2,0c1.9,0,3.8-0.8,5.1-2.1c1.4-1.4,2.1-3.2,2.1-5.1
				c0-1.9-0.8-3.8-2.1-5.1L46.8,2.5C45.5,1.2,43.6,0.4,41.7,0.4L41.7,0.4z"/>
		</g>
		<g>
			<path class="st2" d="M68.5,76.1V39.1L41.7,12.2L14.9,39.1v37.1H68.5z"/>
			<g>
				<path class="st3" d="M75.6,46.7c-1.4,0-2.7-0.6-3.7-1.5L41.7,15.1L11.5,45.2c-1,1-2.3,1.5-3.7,1.5c-1.4,0-2.7-0.6-3.7-1.6
					c-2-2-2-5.3,0-7.4L38,3.9c1-1,2.3-1.5,3.7-1.5s2.7,0.5,3.7,1.5l33.9,33.9c2,2,2,5.4,0,7.4c-0.7,0.7-1.8,1.5-3.4,1.5L75.6,46.7z"
					/>
				<path class="st0" d="M41.7,4.4c0.8,0,1.7,0.3,2.3,0.9l33.9,33.9c1.3,1.3,1.3,3.3,0,4.6c-0.6,0.6-1.1,1-2,1c0,0,0,0,0,0l-0.3,0
					c0,0,0,0,0,0h0h0c0,0,0,0,0,0c-0.9,0-1.7-0.3-2.3-0.9L41.7,12.2L10.1,43.8c-0.6,0.6-1.5,0.9-2.3,0.9c-0.8,0-1.7-0.3-2.3-1
					c-1.2-1.3-1.2-3.3,0-4.6L39.4,5.3C40,4.7,40.9,4.4,41.7,4.4 M41.7,0.4c-1.9,0-3.8,0.8-5.1,2.1L2.7,36.4c-2.8,2.8-2.8,7.4,0,10.2
					c1.4,1.4,3.2,2.2,5.2,2.2c1.9,0,3.7-0.7,5.1-2.1l28.8-28.8l28.7,28.7c1.3,1.3,3.2,2.1,5.1,2.1l0.3,0c2.5,0,3.9-1.2,4.9-2.1
					c1.4-1.4,2.1-3.2,2.1-5.1c0-1.9-0.8-3.8-2.1-5.1L46.8,2.5C45.5,1.2,43.6,0.4,41.7,0.4L41.7,0.4z"/>
			</g>
			<g>
				<path class="st3" d="M29.4,78.1V41.5c0-1.7,1.4-3.1,3.1-3.1H51c1.7,0,3.1,1.4,3.1,3.1v36.6H29.4z"/>
				<path class="st0" d="M51,40.4c0.6,0,1.1,0.5,1.1,1.1v34.6h-0.3H31.4V41.5c0-0.6,0.5-1.1,1.1-1.1H51 M51,36.4H32.5
					c-2.8,0-5.1,2.3-5.1,5.1v34.6v4h4h20.4h0.3h4v-4V41.5C56.1,38.7,53.8,36.4,51,36.4L51,36.4z"/>
			</g>
			<circle class="st0" cx="47.6" cy="55.8" r="2.2"/>
		</g>
	</g>
</g>
</svg>
